<?xml version="1.0" standalone="no"?>
<!DOCTYPE svg PUBLIC "-//W3C//DTD SVG 20010904//EN"
 "http://www.w3.org/TR/2001/REC-SVG-20010904/DTD/svg10.dtd">
<svg version="1.0" xmlns="http://www.w3.org/2000/svg"
  viewBox="0 0 721.000000 1457.000000"
 preserveAspectRatio="xMidYMid meet">

<g transform="translate(0.000000,1457.000000) scale(0.100000,-0.100000)"
fill="#000000" stroke="none">
<path d="M4495 14555 c-99 -7 -264 -18 -367 -24 -221 -13 -332 -38 -472 -104
-118 -56 -198 -111 -288 -195 -133 -125 -290 -351 -292 -419 -1 -34 2 -37 64
-70 82 -43 160 -93 160 -102 0 -3 -16 -17 -36 -31 -40 -27 -112 -111 -149
-174 -39 -67 -54 -121 -70 -255 -9 -69 -25 -163 -35 -209 -24 -101 -26 -248
-5 -317 8 -27 47 -98 88 -159 41 -61 93 -141 116 -178 59 -93 130 -158 174
-158 23 0 41 8 59 28 44 46 205 269 314 433 57 86 110 161 117 167 9 8 27 7
65 -2 118 -32 231 -27 306 11 45 23 127 104 241 238 137 161 221 238 281 259
93 32 129 20 216 -71 101 -107 194 -272 224 -401 13 -53 15 -103 11 -242 -6
-194 -30 -350 -91 -570 -115 -418 -397 -853 -918 -1416 -223 -241 -299 -304
-403 -334 -94 -27 -200 -79 -289 -141 -59 -41 -77 -49 -92 -41 -103 53 -315
-17 -433 -144 -111 -118 -148 -231 -158 -482 -7 -187 4 -159 -131 -319 -45
-54 -111 -138 -145 -187 -97 -140 -111 -128 -47 41 49 129 52 190 16 244 -42
62 -80 73 -205 60 -181 -17 -334 -81 -491 -202 -67 -51 -89 -63 -147 -75 -48
-10 -84 -25 -123 -53 -143 -100 -284 -372 -309 -596 -6 -49 -15 -202 -21 -340
-24 -536 -46 -618 -330 -1204 -236 -488 -364 -799 -498 -1211 -227 -696 -367
-1366 -392 -1870 -11 -213 2 -595 25 -774 123 -941 511 -1857 1151 -2722 100
-136 157 -200 195 -220 95 -49 169 33 140 154 -20 80 -98 266 -228 542 -203
430 -300 667 -367 890 -33 110 -102 387 -117 470 -15 84 -14 683 1 805 38 308
151 780 241 1010 68 175 185 326 264 341 98 18 154 -43 306 -335 32 -63 72
-123 100 -150 92 -93 227 -143 437 -161 140 -12 171 -20 252 -60 101 -51 285
-119 401 -150 204 -55 406 -52 549 9 136 57 333 213 432 341 70 91 142 232
164 320 22 87 15 218 -14 283 -58 130 -262 269 -436 297 -34 5 -114 10 -178
10 -64 0 -119 4 -122 9 -3 5 10 23 28 39 46 40 55 41 646 51 l485 8 113 38
c215 72 344 190 360 330 7 69 -5 109 -60 190 -27 42 -49 77 -47 79 2 1 35 15
73 31 156 65 338 216 397 329 29 55 39 66 93 94 143 74 186 156 226 430 40
271 33 286 -152 351 -96 33 -124 38 -308 50 -100 7 -136 14 -182 35 -85 38
-173 50 -323 43 -119 -5 -134 -4 -175 15 -57 27 -219 36 -329 18 -129 -21
-304 -94 -398 -168 -19 -15 -60 -61 -91 -102 -77 -102 -217 -246 -269 -277
-25 -14 -54 -23 -70 -21 -27 3 -25 6 57 88 47 47 124 121 172 165 111 102 118
122 125 360 7 220 -4 291 -63 413 -52 107 -86 136 -191 162 -35 9 -65 21 -66
26 -3 12 240 108 337 133 107 28 354 30 402 3 17 -9 92 -66 167 -127 171 -137
237 -178 352 -214 134 -43 233 -55 414 -48 369 14 684 149 943 405 113 111
133 152 129 269 -2 49 -68 119 -315 333 -163 142 -229 193 -259 201 -42 11
-40 11 -310 -50 -149 -34 -304 -57 -315 -47 -11 11 36 48 123 95 74 41 84 44
214 57 376 39 450 55 552 120 168 106 307 329 300 481 -2 36 -35 47 -89 30
-26 -9 -65 -18 -87 -21 -23 -4 -7 3 37 17 81 25 158 76 289 193 175 157 233
265 179 334 -11 14 -20 29 -20 33 0 4 18 35 41 68 84 124 124 263 118 409 -6
120 -33 141 -215 161 -133 14 -549 5 -674 -15 -91 -14 -178 -47 -205 -76 -15
-16 -19 -17 -43 -4 -30 15 -39 14 -172 -28 -108 -33 -260 -51 -225 -26 11 8
52 27 90 42 39 15 141 66 227 112 214 114 367 182 457 205 42 10 195 39 341
64 299 52 553 110 664 153 91 36 178 97 274 191 186 184 257 382 207 574 -20
75 -38 102 -94 135 -43 25 -55 27 -184 30 l-138 4 78 54 c90 61 117 93 144
171 23 69 24 134 2 204 -13 44 -32 69 -92 129 l-76 75 -11 108 c-10 102 -13
112 -51 165 -22 31 -62 71 -89 90 -44 30 -55 34 -101 30 -84 -7 -183 -63 -292
-165 -90 -84 -94 -87 -88 -55 33 162 34 649 2 787 -41 180 -164 495 -257 660
-66 117 -121 185 -260 321 -156 154 -274 228 -476 298 -193 67 -390 84 -707
61z m175 -139 c0 -3 -24 -12 -52 -22 -85 -27 -237 -97 -310 -142 -38 -22 -68
-37 -68 -32 0 17 112 109 163 134 81 40 267 83 267 62z m-471 -22 c2 -2 -26
-35 -62 -74 -37 -38 -78 -93 -92 -120 -14 -28 -32 -53 -41 -57 -8 -3 -37 12
-67 34 -83 64 -108 73 -189 73 -40 0 -90 -5 -111 -11 -75 -20 -49 1 66 56 63
30 146 62 184 71 138 32 291 46 312 28z m946 -28 c110 -37 222 -90 295 -139
79 -53 202 -159 193 -167 -4 -4 -30 -14 -56 -23 -42 -14 -49 -14 -54 -2 -8 21
-50 19 -163 -10 -216 -55 -399 -136 -550 -244 -163 -117 -186 -131 -241 -151
-104 -36 -329 -56 -329 -29 0 15 93 105 204 197 241 200 498 320 776 362 88
14 128 34 109 56 -16 20 -98 18 -217 -5 -186 -36 -365 -113 -557 -238 -117
-77 -166 -116 -295 -236 l-95 -89 -3 31 c-7 63 25 137 83 195 97 97 323 232
540 321 137 57 165 73 165 95 0 25 -16 25 -116 -1 -105 -27 -275 -94 -404
-159 -125 -63 -189 -102 -253 -158 -81 -71 -93 -46 -21 43 133 163 362 291
629 350 66 15 122 29 124 31 2 2 33 4 69 4 47 0 92 -9 167 -34z m-1343 -254
c57 -30 127 -92 152 -136 38 -67 65 -182 75 -318 10 -149 20 -172 83 -189 38
-10 228 -8 423 4 l40 2 3 -53 c4 -63 -15 -99 -80 -153 -99 -82 -218 -116 -374
-106 -86 5 -107 12 -168 60 -58 46 -76 93 -76 210 0 87 -2 98 -17 95 -57 -11
-79 -177 -36 -271 37 -80 78 -123 150 -159 60 -29 78 -33 167 -36 56 -2 121 1
146 7 24 5 46 8 48 6 9 -9 -136 -139 -173 -156 -64 -30 -100 -24 -209 31 -55
27 -108 58 -120 68 -12 11 -31 25 -43 31 -24 12 -27 6 -38 -104 -4 -35 -18
-85 -35 -120 -27 -55 -250 -380 -319 -465 l-28 -35 -31 50 c-63 101 -64 140
-6 295 32 88 29 121 -15 140 -41 17 -92 -1 -147 -52 l-42 -39 -6 38 c-12 69
13 164 80 316 24 53 44 102 44 108 0 5 -16 17 -35 25 -19 8 -35 16 -35 19 0
15 47 126 66 157 29 45 83 108 94 108 5 0 13 -23 19 -52 18 -81 44 -130 100
-186 64 -62 122 -92 193 -98 56 -5 93 7 112 39 17 28 -17 47 -83 47 -71 0
-125 25 -173 78 -49 54 -68 93 -75 152 -8 65 8 87 88 129 83 44 99 58 99 91 0
51 -18 61 -121 71 -52 5 -113 16 -137 25 -49 18 -102 59 -102 79 0 26 148 129
281 195 149 75 196 85 261 52z m1912 -139 c38 -48 116 -167 116 -178 0 -6 -26
-19 -57 -29 -81 -26 -147 -61 -194 -103 -22 -20 -42 -34 -44 -31 -3 3 5 51 17
107 34 159 24 158 -159 -5 -153 -137 -231 -189 -327 -220 -89 -28 -301 -63
-312 -51 -19 19 215 224 369 324 97 63 121 88 98 102 -8 5 -3 12 14 19 37 17
43 15 37 -13 -6 -34 9 -33 112 10 79 33 265 92 295 94 7 1 23 -11 35 -26z
m203 -353 c24 -52 39 -96 34 -98 -6 -2 -24 4 -41 13 -55 28 -116 29 -230 1
-152 -37 -154 -36 -89 38 44 50 98 86 187 122 85 36 90 33 139 -76z m-530
-166 c8 -13 35 -33 59 -45 40 -19 58 -21 172 -18 l127 4 37 -70 c145 -274 164
-609 62 -1103 -125 -609 -516 -1231 -1281 -2039 -80 -84 -149 -153 -153 -153
-5 0 -25 25 -45 54 -33 51 -73 84 -155 129 -17 9 -30 21 -28 25 2 5 46 44 98
88 130 108 466 445 575 577 312 376 525 766 639 1169 66 233 96 421 96 608 0
185 -25 290 -113 465 -55 112 -136 242 -167 270 -28 25 -26 33 18 78 l37 38 3
-27 c2 -15 10 -38 19 -50z m504 -55 c32 -18 79 -53 103 -79 51 -54 68 -115 86
-295 27 -289 -2 -573 -100 -960 -26 -104 -47 -210 -46 -235 2 -113 -358 -741
-616 -1071 -212 -272 -464 -542 -599 -642 -42 -31 -91 -74 -108 -96 -17 -22
-74 -122 -127 -223 -52 -101 -104 -192 -114 -203 -20 -19 -20 -19 -20 2 0 31
38 210 56 268 20 60 38 83 234 295 471 510 778 910 984 1286 153 281 229 494
303 852 35 171 37 185 41 433 4 250 3 259 -22 353 -30 114 -67 211 -107 282
-16 28 -29 54 -29 58 0 13 24 5 81 -25z m-652 -15 c65 -54 204 -295 250 -432
83 -245 20 -720 -150 -1127 -190 -458 -501 -884 -943 -1293 -334 -309 -351
-315 -87 -30 409 440 688 829 836 1165 160 365 246 838 205 1128 -25 174 -125
376 -254 513 -27 29 -46 55 -43 59 11 10 110 42 134 43 12 0 35 -12 52 -26z
m1395 -914 c54 -65 53 -136 -4 -255 -71 -148 -141 -229 -356 -413 -126 -106
-150 -133 -137 -146 12 -12 37 -5 122 35 102 47 100 45 -49 -56 -178 -121
-230 -164 -230 -187 0 -30 35 -18 160 54 228 132 388 251 571 427 65 61 122
111 128 111 20 0 33 -53 26 -110 -6 -50 -12 -60 -59 -105 -28 -27 -126 -95
-216 -149 -91 -55 -289 -174 -440 -266 -151 -91 -296 -180 -321 -197 -48 -33
-65 -58 -48 -68 13 -9 33 -2 224 83 348 152 577 242 644 252 72 10 298 14 289
4 -4 -3 -70 -34 -147 -69 -287 -129 -688 -347 -849 -462 -99 -71 -136 -110
-123 -132 7 -10 40 5 137 62 180 104 432 238 593 314 234 112 483 209 504 196
15 -9 1 -121 -23 -185 -47 -127 -204 -300 -328 -362 -132 -66 -232 -91 -613
-156 -315 -54 -439 -82 -568 -129 -98 -36 -253 -116 -373 -194 -47 -30 -96
-61 -109 -68 -23 -12 -23 -11 -9 7 8 10 49 57 91 104 412 458 754 1019 954
1565 10 27 20 44 23 37 2 -6 9 -12 16 -12 18 0 124 112 212 225 149 191 232
275 270 275 7 0 24 -14 38 -30z m-2690 -2367 c-15 -85 -117 -377 -168 -481
-142 -289 -438 -723 -735 -1077 -103 -123 -140 -179 -128 -191 16 -16 143 102
281 261 154 177 381 494 544 760 93 153 170 321 243 535 36 107 73 199 82 204
34 21 186 -62 207 -114 15 -36 10 -77 -31 -260 -23 -99 -29 -148 -25 -185 4
-27 7 -62 8 -76 2 -50 -146 -242 -397 -514 -168 -182 -197 -221 -170 -231 32
-13 146 94 405 376 215 234 311 330 332 330 19 0 68 47 105 101 17 25 66 110
108 189 90 171 134 232 179 254 28 13 258 56 304 56 22 0 5 -17 -96 -97 -142
-112 -272 -248 -523 -548 -123 -147 -239 -286 -256 -309 -33 -41 -41 -66 -24
-66 33 0 255 225 553 562 144 161 252 267 351 342 21 16 40 27 42 24 8 -8 -51
-86 -135 -178 -130 -144 -128 -160 21 -110 183 61 301 144 364 255 102 182
102 182 147 195 54 15 608 26 658 13 l35 -9 -160 -96 c-88 -52 -268 -153 -400
-223 -677 -360 -1355 -759 -1355 -797 0 -27 89 10 304 128 127 70 359 193 516
274 157 81 326 170 375 197 50 27 173 94 275 148 102 54 248 135 325 180 170
100 205 118 212 111 9 -8 -26 -134 -49 -179 -45 -89 -193 -213 -332 -278 -62
-29 -92 -36 -327 -78 -158 -28 -286 -72 -453 -156 -211 -105 -192 -124 55 -54
79 22 180 49 224 59 79 18 285 38 274 26 -3 -3 -108 -29 -234 -57 -435 -96
-675 -186 -1225 -460 -318 -158 -630 -351 -630 -390 0 -23 53 -1 231 97 351
193 633 328 915 440 232 91 352 124 689 193 165 33 347 74 405 91 159 47 162
47 95 0 -128 -88 -236 -131 -437 -175 -185 -41 -617 -158 -751 -205 -167 -57
-374 -150 -717 -322 -490 -244 -710 -371 -710 -408 0 -11 2 -20 5 -20 3 0 195
95 428 211 487 244 617 305 840 393 188 75 299 108 567 170 281 65 282 65 423
18 65 -22 120 -42 122 -44 8 -8 -449 -143 -688 -203 -275 -69 -448 -124 -777
-247 -297 -111 -562 -223 -780 -329 -179 -87 -250 -130 -250 -150 0 -19 38 -7
155 47 653 304 1150 480 1690 599 201 45 273 65 555 154 69 21 127 37 129 35
8 -8 -103 -115 -144 -139 -70 -41 -124 -55 -315 -81 -319 -43 -399 -75 -530
-213 l-75 -79 -140 -27 c-462 -88 -931 -243 -1320 -437 -102 -51 -135 -73
-135 -91 0 -23 94 7 367 116 554 222 689 256 1343 342 435 56 534 64 581 41
19 -9 81 -59 139 -112 58 -54 149 -135 204 -182 119 -103 117 -108 -50 -98
-110 6 -262 29 -539 83 -133 25 -155 27 -430 27 -427 -1 -691 -36 -1037 -140
-237 -70 -480 -176 -558 -243 -34 -30 -34 -30 -10 -30 14 -1 63 15 110 35 237
100 472 175 685 219 161 33 447 49 780 42 257 -5 263 -6 455 -46 266 -56 414
-80 550 -88 l114 -6 -59 -55 c-120 -108 -308 -217 -473 -272 -153 -51 -242
-65 -412 -64 -274 1 -369 39 -625 253 -60 51 -139 106 -174 124 l-66 32 -155
-1 c-124 -1 -174 -6 -250 -24 -188 -45 -331 -103 -513 -207 -72 -42 -85 -46
-199 -59 -280 -33 -479 -106 -645 -239 -116 -92 -162 -165 -217 -346 -38 -127
-62 -192 -85 -229 -44 -73 -181 -230 -181 -207 0 20 48 163 75 225 35 81 36
100 7 135 -27 30 -66 21 -134 -34 -241 -193 -450 -441 -477 -568 -21 -100 25
-161 122 -161 31 0 47 -4 47 -12 0 -7 -64 -98 -142 -203 -481 -646 -671 -1079
-757 -1730 -46 -350 -73 -942 -43 -952 7 -3 19 13 30 36 17 41 17 38 19 -221
5 -489 25 -656 118 -980 137 -480 366 -1009 667 -1548 l20 -35 -26 30 c-14 17
-82 111 -150 210 -321 469 -449 724 -652 1298 -255 722 -302 960 -311 1560 -3
211 -1 369 6 440 42 412 143 914 276 1372 56 195 186 588 191 582 3 -2 -9 -60
-26 -127 -37 -151 -48 -244 -30 -255 17 -10 27 10 40 75 70 353 326 886 683
1417 93 138 671 920 861 1163 111 143 428 490 604 663 132 129 150 129 87 -1
-79 -166 -158 -261 -583 -699 -357 -369 -463 -484 -593 -643 -310 -377 -681
-1012 -894 -1525 -163 -392 -303 -854 -429 -1415 -40 -176 -76 -468 -76 -612
0 -89 2 -98 21 -109 33 -17 65 5 78 55 5 22 22 133 36 246 31 241 65 423 106
575 40 145 152 485 199 606 62 155 205 460 266 566 202 349 498 806 684 1054
84 113 453 546 750 882 159 180 184 217 145 217 -32 0 -116 -88 -700 -735
-271 -300 -439 -525 -749 -1007 -70 -109 -130 -198 -132 -198 -13 0 225 448
338 637 279 467 520 767 1119 1393 570 596 734 810 809 1057 42 138 7 237 -36
103 -23 -70 -95 -219 -143 -295 l-30 -47 -5 44 c-3 24 -7 97 -10 163 -3 66
-13 161 -22 210 -9 50 -17 140 -17 200 -1 142 24 213 112 324 37 46 114 101
142 101 15 0 14 -9 -9 -97 -21 -80 -26 -121 -27 -223 0 -109 3 -130 21 -165
28 -51 61 -82 74 -69 6 6 35 77 66 160 125 333 213 467 355 539 52 27 149 53
202 54 27 1 28 0 21 -36z m1346 -163 c-11 -61 -37 -93 -111 -140 -59 -39 -77
-39 -53 -2 25 38 166 203 170 199 2 -2 0 -28 -6 -57z m-1990 -317 c-6 -29 -16
-55 -21 -58 -16 -10 -10 94 8 133 l17 37 4 -30 c2 -16 -1 -54 -8 -82z m-895
-467 c19 -14 18 -18 -29 -133 -50 -123 -51 -132 -31 -228 6 -29 -4 -43 -153
-205 -87 -96 -171 -186 -185 -198 l-25 -24 24 114 c57 267 98 365 216 522 38
50 68 96 68 103 0 32 -41 6 -120 -74 -62 -64 -97 -111 -128 -170 -82 -158
-137 -330 -177 -550 -20 -109 -29 -125 -181 -307 -74 -89 -109 -124 -114 -115
-15 27 -40 327 -40 469 0 104 6 172 20 239 23 114 34 130 50 70 31 -124 86
-229 119 -229 24 0 28 10 46 135 26 172 84 316 167 410 63 72 132 105 328 160
101 28 120 29 145 11z m495 -73 c0 -20 -58 -84 -268 -297 -368 -373 -436 -453
-839 -986 -474 -628 -718 -1003 -935 -1435 -124 -247 -127 -249 -26 -15 133
307 354 725 515 973 136 211 519 690 827 1036 295 331 705 763 717 755 5 -3 9
-17 9 -31z m-1419 -555 c-32 -195 -34 -266 -16 -482 24 -277 22 -294 -46 -391
-62 -88 -86 -106 -76 -57 12 61 27 251 42 538 9 172 21 310 29 336 16 55 77
190 83 184 3 -2 -5 -60 -16 -128z m1809 -1248 c11 -7 -87 -109 -445 -463 -590
-582 -910 -921 -1237 -1309 -82 -98 -151 -178 -154 -178 -3 0 1 10 7 22 6 12
12 50 12 86 0 82 -20 105 -87 105 -91 0 -159 -49 -284 -209 -40 -50 22 57 101
176 156 234 347 470 623 770 238 259 251 279 315 492 22 73 52 153 66 177 97
166 338 300 594 330 102 12 471 13 489 1z m141 -215 c20 -87 17 -334 -4 -405
-28 -92 -86 -177 -211 -307 l-119 -124 -272 -133 c-397 -195 -614 -325 -913
-549 -154 -116 -274 -218 -427 -366 -60 -59 -123 -118 -140 -131 l-29 -25 29
40 c108 149 458 568 655 785 283 311 1010 1043 1270 1280 l104 94 22 -50 c12
-27 28 -76 35 -109z m810 -424 c-17 -30 -273 -259 -379 -338 -53 -40 -139 -98
-191 -130 -51 -32 -97 -67 -101 -79 -7 -16 -23 -24 -72 -33 -94 -18 -389 -95
-503 -131 -343 -109 -782 -318 -1140 -541 -132 -83 -99 -49 100 101 253 190
520 357 787 491 217 109 293 137 399 149 178 20 173 18 435 254 55 49 132 111
172 137 125 82 298 136 445 138 54 1 57 0 48 -18z m563 -56 c57 -27 61 -46 21
-96 -19 -24 -58 -63 -87 -87 -98 -81 -345 -215 -449 -242 -24 -6 -54 -18 -67
-26 -34 -22 -584 -56 -552 -34 8 6 56 35 105 66 105 65 273 190 397 297 99 85
147 121 153 115 7 -7 -69 -160 -131 -264 -53 -89 -62 -124 -32 -124 44 0 239
119 274 167 30 40 68 118 88 180 10 29 25 58 34 63 26 17 203 5 246 -15z
m-3138 -47 c21 -40 15 -178 -9 -225 -24 -45 -169 -177 -229 -207 -153 -76
-189 31 -65 192 94 120 248 272 278 272 5 0 16 -14 25 -32z m3542 -20 c30 -5
77 -18 105 -27 l51 -18 -44 -32 c-99 -72 -350 -177 -554 -231 -121 -33 -308
-71 -314 -65 -2 2 42 26 98 54 126 63 250 148 360 246 47 42 99 79 115 84 33
9 100 5 183 -11z m172 -232 c-20 -143 -49 -252 -73 -274 -36 -33 -90 -42 -327
-52 -421 -19 -569 -35 -997 -111 -273 -48 -303 -55 -303 -74 0 -21 34 -19 273
10 266 32 449 45 632 44 83 0 146 -2 140 -5 -5 -2 -203 -28 -440 -59 -448 -57
-660 -92 -930 -152 -181 -39 -257 -63 -262 -80 -11 -33 37 -28 592 57 377 58
1220 160 1325 160 90 0 -174 -179 -332 -225 -52 -15 -67 -15 -195 0 -283 33
-849 29 -914 -5 -41 -22 -2 -31 177 -41 402 -21 734 -66 793 -108 45 -32 118
-119 148 -177 24 -47 25 -54 13 -83 -18 -43 -91 -106 -173 -147 -132 -67 -119
-66 -802 -74 -676 -9 -693 -10 -923 -76 -230 -65 -452 -177 -419 -211 4 -4 24
-2 45 4 20 6 91 26 157 46 140 41 406 103 484 113 54 7 54 7 46 -17 -29 -91
-7 -160 59 -190 23 -9 100 -24 171 -32 152 -18 235 -45 337 -113 117 -78 155
-149 144 -268 -17 -193 -246 -484 -471 -596 -185 -93 -409 -76 -732 54 -240
97 -345 171 -440 308 -63 92 -141 247 -182 360 -36 102 -58 148 -71 148 -46 0
62 -349 171 -557 l59 -113 -24 -6 c-67 -17 -284 68 -330 129 -13 17 -64 108
-113 201 -107 205 -165 275 -252 300 -102 30 -167 16 -267 -56 -172 -123 -321
-491 -438 -1078 -58 -290 -70 -424 -70 -775 0 -292 2 -318 27 -455 40 -221 40
-223 22 -170 -33 97 -95 351 -114 465 -44 266 -58 504 -42 700 25 286 93 725
125 800 7 17 23 62 36 100 82 249 218 510 373 719 78 104 313 339 442 443 499
400 1132 717 1745 872 250 63 383 81 755 101 576 31 917 115 1270 313 93 52
92 52 75 -67z m-3980 -862 c0 -49 -41 -105 -181 -247 -123 -125 -151 -140
-157 -84 -4 36 25 91 103 197 65 87 128 153 155 163 8 3 30 6 48 6 30 1 32 -1
32 -35z m-99 -301 c-272 -361 -497 -727 -596 -966 -32 -80 -86 -283 -131 -495
-9 -45 -19 -81 -20 -79 -10 10 38 316 97 617 68 349 135 552 269 820 l68 135
-1 -77 c-2 -71 0 -79 24 -104 21 -21 33 -25 55 -20 44 10 128 83 243 211 57
63 105 115 107 115 2 0 -49 -71 -115 -157z"/>
</g>
</svg>
