<?xml version="1.0" standalone="no"?>
<!DOCTYPE svg PUBLIC "-//W3C//DTD SVG 20010904//EN"
 "http://www.w3.org/TR/2001/REC-SVG-20010904/DTD/svg10.dtd">
<svg version="1.0" xmlns="http://www.w3.org/2000/svg"
 width="2000.000000pt" height="2000.000000pt" viewBox="0 0 2000.000000 2000.000000"
 preserveAspectRatio="xMidYMid meet">

<g transform="translate(0.000000,2000.000000) scale(0.100000,-0.100000)"
fill="#000000" stroke="none">
<path d="M16694 18233 c-15 -15 -16 -40 -11 -247 5 -244 20 -360 72 -565 21
-85 75 -251 101 -315 4 -11 -36 17 -90 63 -123 104 -196 157 -309 227 -285
176 -618 298 -957 351 -159 24 -492 24 -645 -1 -576 -92 -1013 -374 -1186
-762 -16 -38 -41 -90 -54 -115 -40 -76 -65 -200 -65 -324 1 -121 10 -177 41
-246 l21 -46 -28 -109 c-48 -190 -36 -363 34 -484 52 -91 170 -196 249 -224
33 -11 38 -19 57 -77 57 -175 170 -267 318 -257 130 9 199 70 335 299 104 175
121 191 276 263 136 64 216 81 377 81 150 -1 213 -14 340 -68 266 -115 489
-385 576 -698 21 -77 27 -123 31 -254 6 -176 -5 -268 -52 -430 -25 -86 -111
-283 -119 -274 -3 2 6 41 19 86 72 248 54 477 -55 698 -82 168 -196 285 -328
336 -87 34 -206 32 -290 -6 -82 -37 -146 -106 -168 -183 -31 -106 -12 -194
101 -470 70 -169 88 -272 82 -462 -5 -189 -31 -300 -106 -452 -47 -97 -103
-182 -86 -133 51 153 60 209 59 390 0 163 -3 189 -27 280 -61 225 -188 411
-325 477 -136 64 -287 33 -359 -76 -18 -26 -38 -67 -45 -89 -21 -73 -13 -200
21 -352 44 -193 61 -312 61 -431 0 -244 -72 -439 -211 -575 -84 -82 -117 -96
-259 -108 -608 -55 -1084 -148 -1413 -274 -37 -15 -66 -23 -63 -18 3 4 55 38
116 75 217 133 457 329 608 498 242 270 381 535 454 863 21 95 17 429 -6 535
-132 611 -594 1186 -1135 1414 -498 210 -1045 121 -1374 -223 -116 -121 -186
-253 -229 -429 -30 -122 -29 -324 1 -437 27 -102 78 -210 134 -283 26 -33 49
-77 56 -106 41 -166 145 -316 272 -389 65 -37 143 -57 228 -57 92 0 132 10
193 49 44 28 52 30 116 24 38 -3 86 -3 106 1 51 10 111 66 130 123 22 65 20
116 -10 229 -37 136 -38 230 -3 304 73 155 249 234 434 197 336 -68 584 -412
585 -808 0 -325 -151 -657 -440 -963 -135 -144 -261 -258 -535 -486 -300 -250
-423 -365 -540 -503 -81 -97 -101 -109 -67 -40 51 100 118 323 148 485 25 138
29 355 10 488 -20 136 -71 296 -126 396 -22 39 -40 79 -40 87 0 23 -13 27 -51
17 -87 -25 -306 -465 -359 -723 -6 -32 -13 -57 -15 -55 -2 2 -14 66 -29 143
-46 252 -111 447 -212 632 -254 468 -653 824 -1093 977 -385 134 -755 106
-1044 -80 -87 -56 -259 -229 -305 -306 -113 -191 -155 -393 -117 -557 9 -36
13 -71 10 -79 -3 -8 -10 -55 -15 -103 -34 -328 123 -682 388 -877 135 -100
258 -144 339 -123 45 12 93 60 93 91 0 28 14 32 56 14 49 -21 148 -21 194 -1
42 19 95 72 109 110 17 44 13 118 -9 165 -11 24 -45 79 -75 122 -82 117 -99
159 -99 257 0 74 3 88 37 156 123 249 431 316 716 156 59 -33 134 -89 128 -95
-1 -2 -25 3 -52 11 -55 17 -173 20 -225 5 -64 -18 -127 -66 -160 -122 -29 -50
-31 -58 -27 -138 6 -142 65 -231 254 -382 212 -170 370 -354 481 -558 115
-212 212 -534 212 -704 0 -145 -46 -596 -101 -991 -38 -277 -44 -296 -53 -185
-29 345 -127 644 -313 958 -50 83 -58 92 -84 92 -24 0 -33 -6 -44 -32 -21 -51
-63 -250 -81 -388 -20 -143 -23 -507 -6 -630 6 -41 9 -76 8 -78 -2 -1 -40 64
-85 145 -118 212 -260 422 -290 430 -28 7 -49 -14 -87 -90 -75 -146 -110 -325
-101 -511 7 -156 40 -285 108 -425 66 -134 76 -205 36 -245 -48 -48 -84 -31
-156 77 -67 99 -101 243 -126 528 -23 271 -39 355 -92 488 -63 161 -167 306
-398 556 -279 301 -375 438 -441 626 -31 88 -43 252 -25 340 15 73 64 175 90
189 12 6 19 15 17 19 -3 4 10 23 29 41 50 48 44 100 -12 100 -28 0 -141 -55
-214 -103 -67 -45 -171 -133 -199 -169 -12 -16 -27 -28 -33 -28 -16 -1 -40
-35 -106 -154 -85 -153 -125 -255 -150 -386 -57 -302 32 -650 225 -886 19 -22
34 -44 34 -47 0 -3 -27 9 -60 28 -301 170 -709 275 -1070 275 -535 0 -1035
-214 -1406 -602 -494 -518 -648 -1206 -418 -1870 112 -321 378 -699 627 -890
260 -199 539 -302 767 -285 138 11 233 62 288 155 23 39 27 58 27 117 -1 87
-26 147 -88 207 -59 58 -114 86 -308 158 -453 169 -761 381 -908 625 -82 136
-138 352 -128 497 4 66 12 90 51 168 199 396 584 664 1115 777 120 26 139 27
401 27 151 0 295 -5 320 -10 41 -9 35 -11 -80 -17 -417 -25 -793 -142 -1105
-345 -148 -97 -195 -138 -195 -172 0 -35 3 -37 144 -84 261 -87 631 -172 856
-196 190 -20 187 -19 92 -46 -112 -33 -199 -73 -299 -141 -134 -90 -313 -278
-313 -329 0 -44 20 -53 130 -63 268 -22 495 28 1060 233 311 113 509 156 722
156 368 0 734 -158 1018 -438 63 -63 106 -111 95 -107 -11 4 -38 14 -60 23
-53 20 -179 19 -226 -1 -52 -23 -95 -62 -126 -115 -22 -38 -28 -60 -31 -131
-4 -94 2 -118 92 -425 25 -87 57 -218 71 -291 136 -739 -47 -1504 -503 -2093
-89 -116 -291 -336 -300 -328 -3 3 11 30 31 60 54 81 131 240 166 344 95 275
121 624 81 1082 -20 237 -22 243 -65 243 -74 0 -380 -390 -517 -658 -50 -97
-70 -143 -110 -245 -9 -23 -12 -19 -49 59 -53 114 -110 190 -220 296 -217 208
-524 362 -851 426 -89 18 -150 23 -288 23 l-175 1 -3 -25 c-3 -22 9 -33 85
-82 277 -179 508 -484 621 -824 31 -93 65 -250 77 -360 8 -76 -17 -278 -47
-370 l-22 -69 -7 120 c-10 194 -76 353 -193 463 -74 70 -133 96 -216 97 -113
0 -206 -71 -254 -195 -26 -67 -31 -204 -12 -355 20 -162 20 -254 1 -371 -16
-99 -70 -264 -115 -354 -87 -173 -271 -387 -410 -477 -143 -93 -553 -162 -880
-149 -285 11 -565 71 -774 165 l-58 26 118 0 c111 0 121 2 154 25 49 34 67 58
80 107 24 83 -14 178 -105 268 -73 73 -164 122 -394 214 -91 37 -197 84 -234
105 -127 71 -224 190 -263 322 -14 50 -15 67 -4 128 38 218 176 451 343 582
91 71 226 138 324 160 118 26 292 16 405 -23 166 -58 306 -162 392 -291 55
-83 71 -123 91 -217 27 -133 13 -260 -46 -402 -53 -127 -169 -223 -336 -277
-102 -34 -144 -106 -107 -187 40 -89 154 -113 300 -64 54 18 96 25 152 25 158
0 298 60 428 183 130 123 201 243 238 406 16 71 31 111 58 151 104 154 86 408
-43 628 -45 75 -196 227 -285 285 -131 86 -302 161 -449 198 l-85 21 42 28
c81 52 108 103 108 207 0 82 -21 133 -82 199 -173 189 -500 238 -796 119 -170
-69 -361 -222 -494 -396 -31 -41 -99 -144 -151 -229 -73 -120 -102 -159 -129
-174 -34 -19 -37 -19 -62 -3 -31 21 -32 41 -6 124 10 34 24 108 31 165 10 88
10 118 -4 199 -9 53 -28 129 -43 169 -48 128 -158 273 -279 367 l-39 31 19 38
c28 54 170 193 237 233 113 66 266 111 376 111 78 0 204 -28 325 -71 274 -97
412 -88 526 37 85 92 115 211 87 341 l-15 73 33 49 c44 64 66 158 66 273 0
136 -37 265 -103 359 -10 13 -17 32 -17 42 0 38 -65 140 -134 211 -118 121
-278 214 -441 257 -111 30 -336 37 -461 15 -417 -72 -844 -384 -1128 -823
-512 -792 -523 -1873 -32 -2917 130 -275 297 -539 510 -806 120 -150 391 -424
536 -542 296 -240 633 -444 955 -575 164 -68 643 -226 793 -262 538 -131 1111
-113 1638 53 345 108 670 261 1279 601 394 220 544 297 615 316 397 104 794
-7 984 -274 24 -34 70 -116 102 -182 48 -97 71 -132 124 -186 74 -74 123 -94
223 -91 143 3 280 126 303 271 4 23 9 41 13 40 3 0 25 -27 48 -59 111 -155
288 -220 421 -154 62 31 106 79 140 153 36 77 37 208 3 296 -36 92 -105 188
-192 268 -171 154 -353 257 -574 322 l-80 24 65 0 c141 1 375 -45 531 -104
407 -156 658 -411 701 -716 30 -213 -64 -405 -239 -487 -52 -24 -69 -27 -168
-27 -101 0 -115 2 -164 28 -30 15 -55 26 -57 25 -1 -2 9 -27 24 -56 79 -161
325 -292 544 -292 193 1 400 102 517 254 24 31 46 55 48 52 12 -11 -61 -250
-112 -366 -122 -279 -372 -552 -570 -623 -193 -69 -362 -52 -521 52 -128 83
-199 187 -279 406 -83 227 -154 329 -272 387 -57 28 -75 32 -141 31 -99 -1
-174 -29 -243 -90 -96 -87 -139 -188 -139 -326 0 -170 64 -318 200 -460 81
-86 219 -201 284 -239 279 -161 547 -226 820 -199 l122 12 104 -35 c149 -48
233 -60 410 -59 232 1 384 36 595 137 378 182 660 570 732 1007 l16 96 55 27
c143 70 284 267 338 471 26 97 26 339 1 444 -65 270 -197 492 -418 707 -208
201 -634 458 -959 579 -355 132 -812 199 -1140 166 -235 -24 -293 -25 -328 -7
-39 20 -57 55 -48 91 13 53 127 102 441 190 345 97 511 180 652 329 83 87 136
185 159 296 21 97 14 225 -22 430 -34 190 -37 359 -10 430 44 113 33 126 -101
110 -48 -5 -113 -16 -143 -25 -112 -30 -109 -30 -65 10 169 153 413 329 555
400 341 172 695 172 950 2 50 -33 141 -118 171 -158 l19 -26 -75 -28 c-122
-44 -181 -98 -205 -187 -13 -46 2 -119 34 -168 12 -19 26 -55 29 -80 3 -25 9
-53 12 -61 5 -13 -8 -15 -87 -16 -111 0 -171 -15 -356 -88 -186 -73 -255 -89
-363 -81 -89 6 -109 -1 -109 -35 0 -9 7 -22 16 -30 13 -11 8 -14 -38 -26 -132
-34 -161 -159 -68 -301 53 -83 159 -192 259 -268 147 -111 376 -210 533 -230
29 -4 58 -10 63 -14 6 -4 38 -17 73 -29 151 -51 381 -45 586 16 13 4 1 -17
-36 -58 -124 -142 -182 -254 -214 -409 -57 -284 68 -587 279 -675 158 -66 292
-24 359 112 l32 66 7 226 c11 365 47 495 283 1025 155 348 218 527 252 716 22
120 29 301 16 395 -42 298 -65 391 -129 520 -208 417 -664 738 -1203 847 -101
20 -143 23 -350 22 -214 0 -247 -2 -372 -27 -279 -55 -449 -131 -589 -264
l-56 -53 8 51 c5 32 4 59 -2 70 -19 36 -51 21 -143 -63 -101 -94 -101 -95 -16
94 68 151 133 264 211 367 62 83 187 208 262 261 50 36 53 41 37 71 -9 16 -22
19 -74 19 -179 0 -417 -77 -589 -191 -32 -22 -61 -39 -65 -39 -14 0 167 174
233 224 226 171 432 246 597 218 192 -33 312 -153 311 -312 0 -70 -14 -108
-65 -172 -22 -28 -28 -46 -26 -70 3 -32 4 -33 49 -32 150 1 357 200 426 408
23 70 26 98 26 201 0 109 -3 129 -33 217 -95 284 -361 497 -652 524 -65 6
-182 -5 -235 -22 -33 -10 49 56 138 111 169 105 331 174 504 216 129 30 318
48 640 59 331 12 444 22 582 51 167 36 283 95 361 184 50 57 72 119 72 202 0
78 -25 146 -81 221 -42 55 -42 55 -11 33 45 -31 118 -138 144 -208 19 -51 22
-82 23 -249 3 -250 23 -332 99 -412 52 -56 101 -77 183 -76 69 0 72 -1 56 -18
-31 -34 -109 -77 -168 -93 -39 -10 -137 -19 -275 -24 -180 -8 -226 -13 -280
-31 -86 -29 -140 -62 -188 -114 -52 -57 -72 -96 -79 -159 -5 -42 -13 -58 -46
-92 -46 -47 -99 -155 -118 -240 -7 -33 -13 -112 -12 -175 2 -164 46 -307 136
-440 46 -67 144 -167 215 -217 49 -36 62 -50 62 -71 0 -39 91 -155 179 -228
201 -168 443 -254 719 -254 328 0 582 109 828 354 276 277 417 615 431 1036
14 439 -95 833 -351 1263 -37 62 -61 115 -72 162 -72 311 -185 516 -404 735
-141 141 -261 228 -445 321 -77 39 -142 73 -144 75 -5 5 16 -2 262 -80 413
-131 729 -194 1140 -227 193 -15 726 -6 892 15 66 9 123 16 127 16 15 0 38 48
32 64 -8 20 -232 172 -379 257 -390 224 -900 409 -1310 474 -113 18 -161 33
-108 34 46 1 256 38 348 61 362 92 726 271 1000 491 44 35 132 116 195 179
291 292 493 632 604 1018 37 127 97 423 121 598 34 242 37 631 5 889 -82 680
-354 1393 -785 2056 -70 106 -98 139 -120 139 -2 0 -11 -8 -21 -17z m231 -423
c245 -428 406 -814 516 -1235 43 -166 90 -395 88 -430 -1 -20 -1 -20 -6 0 -74
323 -125 505 -196 705 -55 155 -158 412 -163 407 -2 -2 12 -43 32 -93 111
-285 242 -773 287 -1074 l6 -35 -15 32 c-7 18 -32 99 -54 180 -100 363 -242
777 -403 1173 -104 256 -119 291 -124 287 -2 -2 24 -76 58 -163 112 -292 331
-976 316 -990 -2 -3 -17 28 -31 68 -44 117 -330 818 -333 814 -2 -1 27 -85 63
-187 36 -101 92 -257 123 -346 32 -90 57 -163 56 -163 -2 0 -29 32 -60 71 -60
74 -93 143 -168 344 -96 261 -145 502 -153 750 l-5 150 59 -90 c32 -49 80
-128 107 -175z m-1375 -160 c568 -100 1092 -405 1435 -835 104 -130 237 -335
218 -335 -5 0 -29 21 -53 46 -25 25 -58 55 -75 66 -16 12 4 -15 46 -58 123
-127 153 -172 208 -311 46 -119 101 -291 101 -317 0 -6 -23 32 -51 84 -158
294 -437 590 -699 741 -25 15 -28 15 -10 2 335 -245 527 -466 695 -801 88
-176 121 -285 134 -441 13 -161 14 -284 2 -277 -5 3 -12 27 -16 52 -19 126
-105 362 -193 524 -45 84 -138 230 -147 230 -3 0 14 -28 36 -62 130 -201 241
-513 283 -799 20 -134 20 -232 1 -334 -129 -679 -540 -1251 -1176 -1636 -265
-160 -585 -279 -904 -335 -81 -14 -165 -18 -450 -19 -268 -1 -379 -6 -474 -19
-136 -18 -371 -62 -379 -71 -11 -11 5 -11 73 -4 144 16 597 22 770 10 590 -42
1079 -170 1570 -411 202 -99 258 -134 152 -95 -139 51 -459 148 -662 200 -315
80 -594 134 -920 176 -209 27 -243 22 -50 -7 404 -61 822 -157 1213 -280 223
-70 688 -242 679 -251 -2 -2 -118 30 -258 71 -476 139 -912 248 -1239 310
-908 173 -1664 149 -2348 -76 -68 -22 -121 -42 -119 -44 2 -2 44 10 93 27 505
172 1168 222 1849 138 431 -53 895 -155 1480 -326 143 -42 264 -79 269 -83 4
-5 -61 9 -145 31 -385 98 -787 177 -1184 234 -292 42 -599 78 -623 73 -9 -2
33 -9 93 -16 363 -42 959 -152 1420 -262 327 -79 325 -78 250 -79 -142 -2
-593 50 -874 100 -90 16 -165 28 -168 26 -4 -5 264 -61 417 -87 127 -22 379
-56 510 -69 85 -8 85 -8 -55 -10 -328 -2 -771 61 -1180 169 -684 181 -724 188
-1175 207 -548 22 -1112 -179 -1601 -571 -139 -112 -295 -261 -405 -388 -49
-57 -108 -122 -131 -144 -24 -23 -43 -47 -43 -53 0 -6 -30 -53 -67 -103 -278
-384 -509 -861 -704 -1455 -29 -89 -55 -160 -57 -158 -2 2 19 88 48 192 297
1077 730 1836 1341 2350 371 312 770 507 1219 594 87 17 89 18 30 13 -207 -17
-523 -114 -765 -233 -623 -308 -1126 -865 -1498 -1659 -164 -349 -331 -843
-443 -1305 -16 -65 -30 -114 -32 -108 -10 30 114 563 188 806 240 790 591
1398 1093 1893 68 67 121 122 118 122 -18 -1 -281 -253 -375 -361 -397 -450
-680 -972 -875 -1614 -54 -178 -59 -193 -60 -175 -2 29 68 276 120 425 114
332 303 716 482 979 22 32 35 56 29 52 -12 -7 -159 -227 -225 -337 -109 -182
-231 -451 -312 -686 -23 -68 -44 -120 -47 -118 -3 3 -8 -16 -12 -42 -7 -55
-64 -284 -72 -292 -3 -3 -3 5 0 19 3 14 22 126 41 250 19 124 52 342 75 485
142 911 176 1270 151 1616 -47 661 -288 1173 -696 1480 -249 188 -552 280
-820 250 -350 -40 -625 -219 -766 -502 -98 -195 -103 -456 -14 -679 37 -93 23
-83 -30 20 -186 366 -74 813 268 1072 298 225 692 258 1054 88 96 -45 112 -45
23 0 -330 166 -740 158 -1036 -22 -198 -119 -357 -331 -415 -553 -22 -84 -31
-278 -16 -360 4 -26 4 -33 -2 -19 -30 69 -39 327 -16 449 4 23 3 26 -4 10 -18
-41 -33 -210 -27 -298 8 -107 44 -249 85 -340 39 -86 39 -94 0 -37 -189 279
-211 622 -57 885 84 143 253 288 412 354 133 55 217 73 354 73 67 0 125 4 127
9 10 15 -33 29 -130 41 -260 31 -512 -58 -706 -251 -36 -37 -77 -82 -92 -101
-35 -44 -17 -5 26 60 79 116 222 238 362 307 183 91 313 118 540 110 228 -8
361 -41 574 -143 223 -107 415 -255 581 -449 38 -44 78 -91 90 -105 12 -14 7
-3 -11 23 -18 27 -72 92 -119 145 -249 281 -545 466 -875 548 -125 31 -341 43
-466 25 -300 -44 -574 -214 -732 -453 -28 -42 -53 -76 -54 -74 -10 10 32 105
70 158 221 310 631 485 1027 438 331 -38 628 -183 938 -457 l97 -85 -101 99
c-249 245 -510 391 -824 459 -118 26 -372 26 -488 1 -171 -38 -341 -112 -469
-205 -37 -28 -70 -48 -72 -46 -8 7 100 113 169 166 83 63 222 132 325 159 117
30 312 37 446 14 672 -112 1261 -690 1513 -1485 55 -172 76 -307 77 -484 0
-150 9 -240 21 -221 3 6 16 69 27 140 31 189 60 330 83 410 36 122 142 375
153 363 1 -1 -12 -80 -31 -174 -36 -187 -85 -500 -83 -536 1 -25 8 5 45 197
28 147 72 354 111 524 23 100 54 181 70 181 13 0 -32 -452 -67 -681 -46 -296
-120 -613 -204 -874 -25 -76 -44 -141 -42 -143 2 -1 24 57 50 130 157 449 262
931 302 1378 8 84 8 84 16 40 14 -68 2 -509 -16 -620 -24 -155 -27 -191 -6
-98 30 134 50 338 50 503 0 89 4 145 9 140 23 -25 45 -184 45 -330 1 -348 -82
-618 -388 -1258 -36 -76 -66 -140 -66 -142 0 -3 -40 -89 -90 -193 -107 -226
-204 -482 -181 -482 5 0 23 33 41 73 18 39 62 124 98 187 422 740 945 1189
1656 1419 334 109 631 159 1366 231 772 76 1082 129 1420 240 756 249 1286
784 1447 1460 30 130 42 403 24 545 -46 350 -201 669 -433 891 -86 82 -223
182 -234 171 -4 -4 45 -56 108 -117 119 -113 202 -213 258 -310 l32 -55 -82
87 c-139 149 -310 263 -492 327 -94 32 -220 61 -265 60 -15 0 10 -9 57 -19
411 -88 737 -378 879 -783 17 -49 31 -94 31 -100 0 -7 -26 41 -58 105 -32 64
-82 147 -110 185 -106 143 -293 299 -457 381 -112 55 -342 124 -408 121 -12 0
14 -9 58 -19 277 -63 526 -220 705 -446 55 -69 157 -238 114 -189 -119 136
-156 174 -227 234 -105 88 -187 140 -313 202 -135 65 -147 62 -17 -4 147 -74
268 -164 382 -282 86 -89 221 -271 221 -297 0 -5 -26 24 -58 64 -127 159 -302
300 -482 389 -130 65 -140 62 -17 -4 97 -52 221 -136 213 -144 -2 -3 -24 6
-48 20 -65 38 -177 75 -338 113 -243 56 -329 93 -420 180 -134 127 -146 273
-32 376 68 61 138 82 277 82 99 0 136 -4 215 -26 52 -15 103 -30 114 -34 13
-5 17 -3 14 6 -5 17 -179 95 -268 121 -97 29 -301 36 -413 15 -304 -57 -590
-239 -828 -526 -98 -119 -168 -221 -287 -420 -99 -165 -166 -244 -224 -262
-21 -6 -41 -8 -44 -5 -11 11 37 150 92 267 150 315 413 607 738 819 318 207
643 291 936 241 479 -80 932 -469 1133 -973 84 -209 118 -389 118 -618 0 -729
-453 -1400 -1186 -1754 -71 -34 -151 -70 -178 -80 -26 -10 -46 -20 -43 -22 15
-15 355 146 493 233 720 456 1086 1235 933 1986 -126 614 -599 1132 -1165
1274 -190 48 -431 43 -622 -12 -294 -85 -565 -254 -828 -518 -154 -155 -227
-246 -323 -406 -58 -98 -150 -312 -167 -387 -8 -39 -20 -41 -60 -9 l-29 24 38
98 c106 270 271 520 486 734 282 282 612 468 955 537 121 24 366 24 488 0 478
-95 892 -418 1122 -877 123 -245 179 -478 194 -800 l8 -165 1 120 c9 672 -315
1261 -863 1574 -203 116 -421 178 -656 188 -160 6 -255 -3 -409 -42 -544 -138
-1073 -612 -1327 -1190 -66 -152 -64 -149 -57 -70 14 160 91 390 183 544 104
176 282 367 433 466 114 74 117 77 68 54 -120 -58 -292 -190 -387 -298 -138
-157 -246 -346 -303 -531 -51 -168 -48 -162 -49 -100 -3 226 122 530 307 744
190 219 436 362 720 417 l97 19 -86 -6 c-141 -8 -310 -55 -450 -125 -180 -90
-376 -263 -484 -427 -32 -50 -61 -90 -63 -88 -2 2 20 50 47 106 207 415 520
669 921 745 135 26 384 24 544 -4 66 -12 121 -19 123 -17 6 5 -156 34 -262 46
-245 27 -488 -4 -685 -89 -362 -156 -654 -512 -817 -995 -18 -54 -33 -105 -33
-112 0 -7 -4 -15 -9 -18 -10 -6 -7 32 10 154 57 393 333 770 708 963 402 208
892 237 1366 81 118 -38 349 -145 455 -210 124 -76 127 -78 105 -59 -39 32
-194 124 -296 176 -458 229 -928 285 -1379 164 -466 -126 -831 -472 -974 -922
-27 -88 -56 -235 -57 -298 0 -37 -1 -38 -11 -15 -18 44 -3 312 22 410 90 342
344 637 696 806 211 101 393 143 656 151 206 6 338 -4 527 -43 63 -12 117 -21
119 -20 5 5 -165 44 -272 62 -126 21 -428 30 -551 15 -379 -45 -674 -179 -911
-415 -143 -142 -231 -281 -292 -461 -57 -166 -78 -383 -52 -539 5 -33 8 -62 5
-64 -8 -8 -64 90 -81 142 -24 71 -22 208 5 313 68 274 232 519 476 715 444
356 1003 463 1612 308 144 -37 384 -120 466 -162 50 -25 87 -39 87 -32 0 10
-225 111 -330 148 -401 142 -854 186 -1205 117 -261 -51 -515 -165 -698 -315
-32 -26 -61 -46 -63 -43 -9 9 125 136 207 197 95 70 286 167 404 204 321 101
692 100 1109 -5 65 -16 121 -28 123 -25 4 4 -108 35 -237 65 -381 89 -773 77
-1075 -33 -38 -14 -71 -24 -73 -22 -2 2 30 17 71 34 389 162 924 174 1422 31
191 -55 410 -151 556 -245 39 -25 68 -40 65 -35 -13 20 -192 125 -319 187
-316 154 -678 235 -1052 236 -529 1 -936 -154 -1241 -474 -95 -100 -158 -187
-219 -303 -43 -83 -37 -51 11 54 82 180 260 394 429 519 187 138 432 238 705
288 119 21 381 29 515 15 336 -36 687 -153 1035 -346 36 -19 56 -28 45 -20
-11 9 -58 38 -105 64 -277 157 -574 266 -875 322 -144 27 -423 36 -577 19
-552 -60 -1002 -366 -1230 -834 -49 -101 -49 -101 -43 -51 17 143 92 325 184
446 139 182 367 343 621 437 145 54 287 87 505 116 17 2 125 3 240 1 162 -2
238 -8 335 -25z m30 -1347 c0 -17 -36 -43 -59 -43 -51 0 -56 17 -10 33 49 17
69 20 69 10z m-102 -62 c50 -10 54 -13 46 -35 -5 -14 -17 -15 -78 -10 -39 4
-80 10 -91 14 -18 6 -17 8 10 23 34 18 52 20 113 8z m-58 -64 c76 -11 85 -14
82 -32 -2 -11 -5 -21 -6 -22 -1 -1 -42 4 -91 12 -50 8 -108 15 -130 15 l-40 1
24 19 c26 23 42 23 161 7z m-20 -55 l95 -17 3 -33 c3 -29 1 -33 -15 -28 -87
25 -124 30 -235 30 -71 1 -128 2 -128 3 0 1 19 15 43 32 50 36 91 38 237 13z
m28 -77 c71 -16 74 -18 92 -58 9 -23 16 -43 15 -45 -2 -2 -33 6 -69 17 -36 11
-89 23 -118 26 -41 4 -33 1 32 -14 108 -24 159 -46 187 -79 12 -15 22 -30 23
-33 0 -3 -51 11 -112 32 -138 47 -254 62 -372 49 -47 -6 -97 -15 -111 -20 -51
-19 -61 -12 -30 20 16 17 32 30 37 30 4 0 25 19 46 42 30 31 50 43 83 49 65
11 214 4 297 -16z m-3113 -1 c491 -85 971 -483 1231 -1019 157 -324 203 -611
147 -910 -57 -310 -228 -615 -501 -894 -98 -101 -98 -89 0 19 227 249 375 554
429 885 18 106 18 419 1 515 -83 466 -298 811 -622 1000 -93 54 -147 77 -263
111 -342 100 -701 27 -980 -199 -168 -136 -292 -330 -338 -528 -28 -124 -24
-305 10 -404 60 -172 205 -326 364 -385 59 -22 46 -35 -34 -35 -160 0 -299 92
-381 254 -92 181 -97 457 -12 683 52 139 161 303 257 389 123 109 305 213 436
250 34 9 61 21 61 25 0 17 -85 9 -180 -16 -353 -95 -627 -392 -706 -769 -8
-38 -17 -72 -21 -75 -13 -12 7 188 26 262 23 88 83 223 131 292 93 135 246
260 400 326 139 60 243 81 425 88 l160 7 -105 8 c-388 29 -772 -158 -948 -463
-78 -135 -132 -302 -132 -413 -1 -36 -2 -40 -12 -24 -15 27 -3 203 21 297 58
226 200 407 413 526 35 19 54 32 43 28 -51 -16 -174 -96 -237 -154 -170 -157
-262 -357 -277 -601 l-7 -105 -8 68 c-22 177 44 421 156 585 95 138 267 264
453 331 164 59 411 78 600 45z m3037 -155 c145 -30 274 -79 343 -131 28 -21
77 -52 110 -70 208 -110 371 -276 470 -482 156 -323 148 -691 -25 -1061 -68
-148 -172 -288 -319 -436 -168 -167 -245 -224 -106 -78 237 250 372 511 427
824 28 165 22 384 -16 528 -86 334 -307 617 -591 758 -262 130 -537 129 -799
-2 l-78 -40 30 42 c57 77 80 97 139 119 126 48 273 58 415 29z m-2762 -134
c519 -78 894 -492 1002 -1105 8 -45 13 -151 13 -265 0 -156 -5 -210 -23 -302
-91 -452 -322 -788 -838 -1214 -82 -68 -212 -176 -288 -239 -76 -63 -159 -128
-185 -144 -157 -97 -226 -146 -401 -282 -24 -19 -17 -9 20 30 74 77 224 201
460 381 392 299 599 481 746 656 285 342 440 779 421 1184 -22 468 -273 893
-647 1093 -169 91 -311 126 -510 125 -173 -1 -257 -19 -395 -87 -213 -105
-380 -307 -447 -542 -30 -104 -33 -324 -5 -423 21 -76 67 -170 109 -223 47
-59 15 -44 -42 20 -118 131 -174 318 -152 500 39 307 238 581 532 731 209 108
405 141 630 106z m-94 -106 c238 -33 452 -140 623 -310 318 -319 444 -818 325
-1289 -62 -246 -196 -500 -376 -715 -149 -178 -307 -320 -683 -614 -269 -211
-379 -305 -539 -460 -97 -94 -115 -108 -69 -56 102 118 281 277 613 545 462
374 667 592 836 891 134 237 171 326 193 469 7 41 17 92 22 112 21 82 -18 389
-70 548 -39 116 -136 300 -206 387 -205 256 -538 402 -834 365 -191 -23 -336
-94 -473 -232 -72 -73 -93 -102 -131 -181 -60 -125 -81 -224 -74 -348 10 -168
72 -319 180 -437 49 -53 56 -65 37 -59 -217 67 -381 354 -355 619 49 497 482
835 981 765z m3494 -20 c19 -6 49 -13 65 -15 17 -3 82 -19 145 -35 l115 -29
82 -86 c344 -364 449 -781 302 -1202 -68 -194 -176 -358 -349 -532 -102 -103
-242 -220 -263 -220 -4 0 32 36 80 79 234 210 422 490 483 716 28 102 37 295
20 403 -26 166 -113 378 -222 542 -61 92 -184 244 -230 285 -26 24 -24 20 8
-15 363 -399 501 -842 379 -1217 -95 -290 -405 -650 -765 -888 -110 -73 -334
-195 -357 -195 -4 0 37 25 91 56 201 113 328 207 480 354 404 391 546 832 421
1306 -62 236 -211 484 -376 624 -59 50 -57 47 31 -45 185 -195 291 -396 347
-655 14 -64 18 -125 17 -250 -1 -144 -4 -177 -27 -263 -93 -351 -306 -627
-674 -875 -92 -62 -109 -63 -28 -2 110 83 323 304 392 405 173 256 255 513
257 800 1 269 -57 465 -199 680 -50 74 -181 213 -250 263 -34 24 -27 27 25 11z
m495 -162 c81 -47 128 -91 180 -167 63 -94 120 -225 151 -347 35 -133 43 -345
20 -488 -41 -246 -173 -520 -361 -748 -85 -103 -297 -262 -450 -339 -76 -38
-64 -27 52 51 354 235 591 551 682 908 100 393 -13 785 -323 1118 -31 32 -56
60 -56 62 0 5 54 -21 105 -50z m-3905 27 c100 -19 204 -58 295 -111 68 -40
167 -114 161 -120 -2 -2 -33 15 -69 37 -37 22 -102 52 -144 67 -67 23 -94 27
-193 27 -97 0 -127 -5 -196 -27 -94 -31 -188 -88 -262 -160 -77 -75 -158 -197
-176 -267 -3 -14 5 -2 18 27 54 115 162 241 266 310 101 68 218 103 342 103
109 0 169 -15 284 -70 124 -60 236 -160 319 -285 68 -102 71 -119 6 -33 -98
130 -229 227 -356 264 -72 21 -223 24 -305 5 -30 -7 -95 -32 -145 -56 -243
-116 -385 -359 -385 -657 0 -81 15 -186 36 -251 6 -18 3 -19 -27 -13 -19 3
-39 13 -45 21 -6 8 -13 12 -16 9 -10 -9 -105 104 -127 152 -67 142 -77 317
-28 464 36 105 72 165 144 240 35 35 63 68 63 72 0 17 -25 6 -86 -37 -106 -76
-196 -224 -224 -372 -18 -90 -8 -262 19 -337 12 -33 19 -61 18 -63 -8 -8 -67
137 -81 197 -24 110 -28 163 -16 250 58 420 469 698 910 614z m4222 -326 c106
-156 167 -341 175 -528 5 -106 3 -121 -22 -195 -39 -116 -89 -227 -151 -332
-63 -108 -85 -129 -48 -46 81 180 114 317 121 508 6 167 -7 270 -53 416 -28
91 -101 244 -140 296 -13 17 -24 35 -24 40 1 14 99 -96 142 -159z m-3952 42
c258 -87 465 -356 524 -682 21 -115 29 -254 18 -308 -10 -44 -10 -43 -11 31
-7 469 -329 866 -726 895 -208 16 -387 -81 -467 -252 -44 -94 -48 -169 -15
-304 36 -148 41 -193 28 -233 -14 -41 -36 -63 -72 -72 -25 -6 -27 -4 -44 62
-71 279 17 589 212 749 69 55 173 109 251 129 80 20 219 14 302 -15z m2797
-172 c145 -72 263 -255 325 -506 18 -70 22 -117 22 -237 0 -163 -18 -260 -70
-375 -30 -65 -74 -143 -79 -138 -2 2 7 45 21 97 50 194 54 458 10 631 l-15 55
7 -65 c4 -36 7 -146 6 -245 0 -157 -4 -194 -26 -290 -39 -165 -82 -275 -123
-315 l-35 -34 36 90 c108 266 128 555 58 845 -14 61 -28 109 -30 107 -2 -2 6
-49 18 -103 29 -132 30 -384 4 -525 -36 -187 -131 -424 -206 -510 l-30 -35 35
78 c96 217 130 382 129 637 -1 208 -17 311 -79 496 -31 93 -128 304 -140 304
-3 0 13 -37 36 -82 59 -118 105 -250 131 -380 32 -158 32 -426 0 -574 -30
-138 -75 -272 -129 -379 -78 -155 -92 -175 -157 -216 -33 -21 -62 -37 -64 -35
-1 2 23 39 54 82 92 129 156 268 200 439 32 121 44 371 25 495 -15 93 -42 213
-47 208 -2 -3 4 -38 13 -79 26 -117 23 -384 -5 -518 -43 -196 -143 -403 -271
-563 -63 -78 -164 -178 -180 -178 -5 0 -18 -3 -28 -7 -10 -4 13 22 50 57 193
181 311 421 338 695 20 197 -13 389 -107 612 -84 202 -100 285 -69 361 30 71
91 117 170 127 28 4 51 8 53 10 8 7 110 -17 149 -37z m-819 -523 c117 -49 206
-164 275 -355 104 -288 56 -651 -121 -926 -36 -55 -87 -102 -98 -91 -3 3 10
29 29 58 119 187 171 370 170 599 0 74 -5 155 -9 178 -7 33 -9 9 -9 -100 -1
-200 -35 -349 -119 -515 -41 -82 -56 -97 -25 -26 60 139 86 332 70 508 -10
106 -50 320 -58 312 -2 -2 4 -46 13 -98 24 -142 15 -400 -19 -531 -42 -161
-112 -295 -212 -406 -64 -71 -75 -66 -19 11 192 257 231 592 123 1040 -17 70
-33 126 -36 124 -2 -3 5 -41 17 -86 65 -257 65 -523 -1 -737 -22 -73 -74 -194
-83 -194 -3 0 6 30 20 67 54 144 68 226 68 403 0 138 -4 180 -23 258 -13 51
-25 91 -27 89 -3 -2 3 -33 11 -68 9 -35 19 -120 22 -189 8 -191 -23 -342 -109
-515 -60 -122 -84 -147 -43 -43 20 47 45 122 56 165 24 92 35 299 21 388 -9
58 -10 56 -11 -51 -1 -136 -21 -245 -67 -372 -29 -82 -108 -242 -119 -242 -2
0 14 37 35 83 64 140 75 196 75 407 0 179 -1 191 -45 403 -41 203 -43 222 -33
282 13 76 52 140 103 166 43 23 127 25 178 4z m-4857 -438 c288 -74 556 -265
765 -545 80 -107 202 -350 248 -495 133 -411 157 -859 80 -1466 -57 -453 -282
-1872 -377 -2386 -33 -178 -34 -179 -40 -120 -3 33 -2 78 3 100 5 22 9 49 9
60 0 19 -1 19 -8 1 -4 -11 -12 45 -19 135 -25 314 -80 634 -235 1384 -47 226
-92 446 -101 491 -14 76 -13 124 4 124 4 0 39 -66 78 -147 107 -224 204 -532
243 -778 15 -93 17 -396 3 -567 -9 -120 -3 -153 14 -75 5 23 24 96 41 162 53
199 167 899 210 1290 40 356 46 469 46 835 0 400 -8 485 -65 727 -123 517
-425 898 -789 995 -99 26 -252 28 -335 4 -256 -75 -409 -297 -375 -545 12 -82
36 -135 115 -252 73 -107 89 -160 60 -204 -9 -14 -20 -25 -25 -25 -14 0 -96
111 -140 190 -111 196 -135 405 -66 580 30 78 102 179 157 221 60 46 68 55 30
33 -58 -32 -152 -142 -188 -219 -39 -80 -64 -185 -64 -265 0 -148 68 -337 174
-483 59 -82 58 -85 -12 -28 -91 75 -183 226 -213 351 -7 30 -13 100 -13 155 0
98 0 99 -9 40 -12 -77 5 -214 38 -300 35 -93 71 -150 144 -227 35 -38 62 -70
60 -73 -14 -13 -111 49 -164 106 -146 157 -217 406 -169 592 33 127 131 279
226 347 54 39 34 39 -25 -1 -95 -63 -196 -202 -236 -328 -59 -182 -48 -360 34
-526 24 -50 66 -115 94 -147 49 -54 65 -98 42 -112 -15 -10 -147 138 -186 208
-77 137 -107 247 -107 391 0 111 11 168 49 264 93 233 270 386 523 451 77 20
211 28 312 19 385 -36 727 -298 938 -720 159 -316 231 -726 216 -1229 -12
-412 -72 -1106 -152 -1748 -14 -112 -23 -209 -21 -215 9 -28 105 825 141 1253
42 496 49 645 43 938 -5 279 -19 410 -62 592 -62 261 -166 493 -305 678 -68
93 -212 232 -297 290 -320 217 -711 249 -1028 84 -49 -26 -97 -63 -160 -127
-101 -100 -144 -172 -191 -315 -24 -76 -27 -101 -28 -225 -1 -117 3 -153 22
-218 38 -134 107 -253 205 -354 62 -65 38 -62 -36 4 -158 140 -242 301 -267
512 -53 430 265 804 748 881 97 15 285 4 393 -23z m392 -626 c131 -63 199
-135 275 -291 34 -69 75 -167 92 -219 32 -99 35 -135 5 -54 -59 158 -142 304
-220 388 -34 37 -35 37 -11 5 43 -58 124 -193 147 -246 34 -79 81 -214 74
-214 -1 0 -22 33 -46 73 -23 39 -67 106 -98 147 -60 82 -230 256 -301 310 -25
18 -3 -6 48 -54 197 -187 336 -408 426 -677 48 -144 45 -165 -7 -49 -51 110
-134 248 -221 364 -68 90 -237 264 -306 316 -27 20 -13 3 36 -43 149 -139 277
-312 373 -504 49 -97 121 -273 121 -295 0 -5 -24 39 -54 99 -111 222 -265 424
-451 594 l-70 64 80 -85 c147 -156 250 -300 342 -484 81 -162 93 -201 32 -103
-111 175 -255 333 -440 483 -64 51 -132 113 -151 136 -100 122 -112 243 -33
322 49 49 104 67 197 62 66 -3 91 -10 161 -45z m4112 -338 c-41 -55 -107 -123
-121 -123 -9 0 132 156 145 159 2 1 -9 -16 -24 -36z m-6136 -815 c-55 -162
-57 -349 -5 -528 65 -222 181 -407 476 -755 80 -93 180 -217 224 -275 85 -114
100 -131 72 -85 -42 69 -140 199 -304 403 -95 119 -202 260 -237 312 -163 242
-236 450 -234 669 1 126 14 161 22 61 13 -149 71 -323 160 -478 75 -131 153
-239 332 -457 85 -104 183 -230 218 -278 80 -114 94 -131 66 -82 -37 66 -124
188 -299 420 -223 295 -312 442 -374 613 -32 91 -33 117 -1 40 63 -152 165
-288 425 -568 263 -283 363 -427 425 -614 25 -75 104 -516 105 -582 0 -126
132 -430 207 -479 65 -43 129 -37 179 17 70 75 71 162 4 304 -109 230 -140
408 -106 614 15 96 65 251 82 257 21 7 158 -214 279 -452 182 -357 312 -747
389 -1165 62 -337 69 -410 70 -690 0 -324 -3 -425 -13 -470 -5 -21 -10 77 -13
250 -6 294 -20 440 -64 698 -24 141 -112 503 -133 552 l-12 25 6 -25 c3 -14
21 -85 40 -159 39 -149 78 -348 99 -516 14 -105 14 -158 1 -79 -66 389 -154
656 -364 1107 -59 128 -118 258 -131 289 -13 32 -25 56 -27 54 -6 -5 49 -139
133 -323 252 -557 335 -861 388 -1423 8 -88 -9 -35 -29 85 -34 216 -108 480
-191 687 -52 130 -155 360 -160 355 -2 -1 28 -76 67 -165 197 -461 294 -884
304 -1332 5 -202 0 -196 -35 51 -21 149 -77 390 -125 534 -36 110 -106 287
-111 282 -2 -2 9 -37 26 -77 122 -296 213 -717 225 -1036 6 -163 -7 -148 -24
28 -20 193 -78 424 -157 620 -209 520 -606 1006 -1159 1419 -564 420 -1160
680 -1720 750 -127 16 -444 16 -555 0 -258 -37 -462 -98 -667 -201 -237 -120
-435 -281 -579 -473 -92 -122 -96 -126 -59 -62 128 226 352 451 595 597 220
132 500 226 783 263 154 20 441 20 594 0 413 -55 862 -228 1231 -477 39 -27
72 -46 72 -44 0 9 -171 121 -285 186 -587 339 -1221 457 -1810 339 -139 -28
-349 -99 -481 -164 -486 -237 -825 -667 -938 -1190 -20 -90 -24 -102 -25 -65
-1 52 22 199 44 283 172 654 797 1143 1595 1249 142 19 480 16 620 -5 237 -36
493 -112 685 -201 106 -50 129 -53 34 -6 -674 341 -1539 328 -2162 -31 -194
-112 -393 -281 -518 -439 -34 -44 -64 -80 -67 -80 -6 0 38 70 102 160 81 114
317 349 434 430 313 219 655 332 1047 347 378 15 734 -69 1135 -267 144 -72
253 -146 393 -269 175 -154 214 -174 257 -131 11 11 20 33 20 49 0 51 -70 96
-280 180 -58 23 -126 57 -151 76 -140 102 -315 383 -368 592 -27 105 -42 254
-33 318 l8 50 12 -75 c29 -170 108 -354 224 -522 69 -101 198 -248 251 -289
39 -30 38 -28 -14 27 -267 281 -418 601 -436 924 -5 97 -3 125 13 175 l18 60
7 -135 c6 -138 23 -224 66 -338 76 -204 231 -424 477 -677 l97 -100 -106 125
c-295 346 -430 576 -480 815 -19 91 -22 256 -5 330 14 68 66 194 91 225 l21
25 -7 -25 c-27 -109 -35 -170 -35 -271 0 -345 130 -632 446 -983 231 -257 297
-333 350 -404 68 -92 83 -109 58 -64 -31 55 -136 190 -240 311 -283 326 -358
427 -439 590 -133 267 -164 618 -74 833 20 48 56 108 63 108 2 0 -9 -37 -25
-82z m5706 32 c480 -44 886 -227 1190 -534 109 -111 214 -258 268 -376 55
-120 53 -130 -11 -45 -290 387 -683 665 -1137 805 -142 43 -172 45 -45 1 254
-86 467 -199 684 -364 82 -62 336 -303 336 -319 0 -5 -39 25 -87 65 -441 370
-957 566 -1533 581 l-165 5 135 -9 c374 -26 681 -106 985 -257 931 -462 1515
-1552 1315 -2453 -113 -507 -489 -905 -939 -996 -126 -25 -344 -16 -466 20
-85 25 -282 112 -274 121 2 2 46 -7 96 -20 368 -96 727 -36 1042 172 94 62
246 208 300 288 l33 50 -42 -50 c-200 -233 -454 -383 -748 -442 -60 -12 -134
-17 -237 -17 -155 0 -245 13 -385 56 -67 21 -223 88 -217 94 2 2 41 -9 88 -25
163 -55 236 -66 449 -65 185 0 201 2 312 31 131 35 272 98 381 170 95 63 250
213 320 310 54 76 147 238 147 258 0 6 -19 -24 -41 -65 -62 -113 -124 -196
-219 -290 -179 -180 -397 -299 -640 -351 -85 -19 -136 -23 -270 -22 -202 0
-267 16 -109 26 168 11 318 51 498 133 88 41 91 55 3 19 -159 -65 -374 -101
-542 -92 -314 18 -611 175 -765 405 -31 45 -80 142 -72 142 1 0 29 -25 62 -56
260 -244 577 -374 908 -374 484 0 942 332 1117 808 12 34 20 65 17 68 -3 3
-11 -12 -17 -33 -22 -69 -112 -234 -170 -312 -145 -195 -346 -346 -567 -424
-407 -146 -914 -20 -1249 311 -86 84 -144 163 -144 196 0 26 2 25 40 -23 142
-179 346 -320 570 -395 142 -47 243 -60 409 -53 296 12 540 114 749 311 186
175 311 417 356 685 20 119 21 347 1 466 -86 535 -465 1012 -1019 1284 -223
109 -471 185 -741 227 -166 26 -608 27 -772 2 -354 -54 -730 -182 -1001 -341
-34 -20 -62 -33 -62 -28 0 9 148 138 250 218 177 138 466 298 681 377 293 108
640 154 944 126z m-2325 -204 c0 -2 -8 -10 -17 -17 -16 -13 -17 -12 -4 4 13
16 21 21 21 13z m2230 -171 c593 -83 1077 -333 1405 -726 385 -462 493 -1021
291 -1515 -98 -240 -289 -450 -517 -569 -455 -236 -980 -151 -1355 220 -50 50
-103 109 -118 131 -25 39 -27 46 -19 100 l8 59 29 -50 c101 -175 274 -323 476
-408 110 -46 193 -67 302 -76 195 -15 373 20 553 109 332 165 557 478 621 865
21 127 14 349 -15 480 -82 379 -309 709 -643 936 -66 46 -282 159 -302 159 -6
0 35 -25 92 -55 173 -92 276 -167 411 -298 234 -228 387 -524 431 -832 14
-104 12 -300 -5 -401 -39 -228 -141 -434 -293 -596 -242 -257 -589 -380 -913
-323 -159 28 -333 103 -456 198 -76 58 -202 191 -248 261 -37 55 -37 55 -24
105 7 28 15 51 18 51 3 0 19 -20 35 -45 76 -121 238 -261 391 -338 472 -236
1050 -60 1294 395 87 162 124 308 122 493 0 72 -4 145 -8 163 -5 20 -8 -33 -9
-135 -1 -148 -4 -180 -27 -265 -26 -99 -83 -225 -140 -307 -49 -72 -175 -194
-255 -246 -99 -63 -189 -103 -298 -131 -276 -70 -529 -24 -789 144 -78 49
-224 191 -274 264 -31 47 -31 48 -15 79 l16 32 30 -55 c90 -169 301 -324 528
-389 116 -33 336 -38 454 -10 161 39 318 126 440 246 55 54 136 157 158 200
14 26 1 13 -51 -58 -81 -107 -202 -197 -351 -259 -206 -87 -450 -92 -670 -13
-75 27 -194 88 -204 104 -3 5 22 0 56 -10 213 -67 473 -65 679 4 81 27 217 90
234 108 5 6 -19 -3 -53 -21 -89 -44 -224 -86 -321 -101 -126 -18 -334 -7 -452
24 -129 34 -260 91 -295 129 -23 25 -25 29 -9 23 211 -83 294 -104 450 -112
294 -16 587 93 792 292 55 54 57 58 13 20 -104 -91 -254 -177 -384 -221 -107
-37 -218 -54 -346 -54 -186 0 -339 36 -504 120 -80 40 -91 49 -99 79 -4 18 -7
35 -5 37 2 2 44 -14 94 -35 170 -74 355 -107 549 -98 289 12 524 108 705 287
144 143 204 285 202 480 -2 399 -338 840 -822 1081 -310 154 -605 219 -990
219 -619 0 -1158 -196 -1627 -593 -51 -43 -93 -75 -93 -71 0 7 60 80 155 187
70 79 182 155 370 251 335 172 667 263 1085 300 90 8 398 -4 510 -19z m-125
-126 c610 -72 1116 -373 1373 -815 93 -161 138 -326 129 -478 -6 -112 -33
-193 -96 -289 -215 -326 -696 -473 -1151 -352 -90 25 -265 94 -257 102 3 2 49
-7 103 -21 546 -141 1002 -11 1207 344 28 49 77 188 76 217 0 10 -8 -7 -18
-37 -115 -356 -490 -563 -943 -520 -141 13 -418 73 -418 90 0 3 6 14 13 24 13
17 18 17 123 0 136 -23 406 -25 509 -5 208 41 391 149 500 294 26 33 54 75 62
92 18 36 11 28 -47 -48 -89 -119 -260 -225 -435 -269 -79 -20 -115 -23 -290
-23 -230 0 -363 17 -330 42 53 38 147 55 350 63 224 9 281 19 375 63 126 59
239 211 271 365 17 84 7 252 -20 332 -80 234 -291 423 -579 520 -98 32 -291
70 -362 70 -26 0 -73 9 -106 21 -219 76 -487 85 -725 25 -90 -23 -263 -85
-256 -92 1 -2 32 6 67 17 257 80 553 74 842 -17 92 -29 108 -44 35 -33 -106
16 -325 29 -471 28 l-151 -2 130 -8 c245 -16 606 -69 686 -100 15 -6 42 -26
60 -46 32 -34 33 -35 9 -29 -14 4 -86 20 -160 36 -227 48 -388 64 -655 64
-254 -1 -384 -13 -607 -58 -123 -25 -351 -86 -345 -92 2 -3 46 7 98 21 398
106 918 123 1354 45 33 -6 135 -29 227 -52 159 -39 167 -42 179 -70 6 -16 10
-30 8 -32 -2 -1 -96 14 -209 35 -335 62 -498 80 -766 86 -268 6 -406 -4 -604
-43 -330 -66 -679 -231 -870 -414 l-65 -62 60 52 c254 219 602 363 1015 421
143 21 579 18 755 -4 164 -21 436 -67 583 -98 102 -22 102 -22 102 -52 0 -26
-3 -29 -22 -23 -143 39 -493 99 -708 122 -192 20 -544 15 -690 -10 -649 -112
-1179 -499 -1474 -1074 -31 -61 -56 -114 -56 -119 0 -4 26 42 58 102 109 208
216 349 394 520 297 285 667 465 1100 532 153 23 519 23 703 -1 194 -25 646
-108 664 -122 7 -6 -40 -58 -78 -86 l-39 -28 -164 54 c-275 92 -483 122 -786
113 -356 -10 -666 -90 -957 -247 -142 -77 -142 -85 0 -15 214 106 487 186 740
215 126 15 404 15 515 1 152 -21 292 -52 433 -98 75 -25 137 -48 137 -53 0 -4
-20 -13 -44 -20 -39 -11 -51 -10 -107 10 -318 110 -757 131 -1105 54 -401 -89
-774 -297 -1054 -590 -50 -53 -43 -47 32 23 336 316 721 499 1171 558 136 17
383 20 507 5 166 -20 409 -76 393 -90 -13 -13 -229 -29 -528 -40 -412 -15
-565 -36 -775 -106 -346 -115 -696 -376 -952 -710 -162 -212 -340 -540 -447
-829 -87 -235 -171 -518 -157 -532 11 -12 23 9 76 142 148 368 302 693 368
775 102 127 251 248 384 310 190 89 424 94 595 14 176 -84 297 -244 309 -409
l5 -60 -25 63 c-134 336 -499 457 -851 282 -103 -51 -189 -117 -295 -226 l-85
-88 101 96 c113 107 201 169 312 217 181 79 349 81 507 6 145 -70 256 -207
289 -360 4 -18 -5 -6 -24 31 -60 123 -207 223 -359 244 -242 34 -559 -112
-803 -369 -93 -97 -183 -224 -222 -314 -14 -31 -46 -84 -72 -119 -25 -35 -68
-108 -95 -163 -76 -157 -103 -277 -139 -609 -23 -206 -51 -357 -80 -423 -23
-53 -14 -63 18 -17 69 103 112 251 151 526 47 329 82 441 190 605 155 234 394
405 662 473 120 31 122 29 42 -52 -168 -171 -314 -439 -413 -756 -21 -68 -45
-119 -80 -172 -53 -78 -134 -229 -127 -236 2 -2 31 31 64 73 33 43 75 96 94
118 50 59 252 265 259 265 23 0 -51 -303 -99 -406 -69 -147 -149 -234 -274
-299 -50 -26 -62 -37 -62 -56 0 -20 6 -25 32 -27 37 -4 87 20 163 77 139 104
246 297 291 526 13 68 16 72 89 145 198 195 514 299 870 287 171 -6 248 -22
375 -81 105 -49 99 -58 -13 -20 -99 34 -249 65 -306 63 -17 -1 8 -7 56 -14
222 -35 503 -182 572 -299 14 -25 26 -47 26 -50 0 -3 -30 15 -67 40 -95 64
-250 137 -368 173 -110 34 -257 62 -314 60 -26 -1 -20 -4 26 -10 193 -28 410
-110 574 -218 146 -96 189 -136 198 -188 l8 -42 -73 64 c-95 83 -168 132 -279
188 -97 48 -261 103 -335 112 -36 4 -31 1 25 -14 241 -66 450 -194 609 -375
48 -54 54 -67 48 -90 -7 -27 -8 -26 -75 48 -218 243 -553 385 -877 374 l-95
-4 106 -2 c348 -7 658 -167 873 -450 48 -63 48 -65 34 -95 l-15 -31 -31 46
c-88 128 -275 276 -440 348 -159 70 -233 85 -427 84 -179 0 -234 -10 -378 -64
-81 -30 -67 -33 19 -4 381 128 789 23 1080 -278 39 -40 88 -99 109 -131 l38
-58 -21 -21 c-12 -12 -23 -20 -25 -17 -2 2 -18 29 -35 59 -140 249 -436 410
-752 410 -133 0 -203 -10 -326 -46 -215 -62 -411 -177 -628 -368 -121 -106
-279 -289 -629 -726 -188 -234 -443 -549 -567 -700 -124 -151 -254 -312 -289
-357 -35 -46 -66 -83 -68 -83 -16 0 81 145 331 495 483 676 560 831 725 1455
74 281 131 459 186 578 19 40 30 70 26 67 -12 -7 -87 -179 -122 -282 -17 -49
-69 -221 -115 -383 -167 -581 -231 -700 -808 -1497 -65 -90 -119 -163 -121
-163 -3 0 121 277 151 336 8 16 94 136 190 265 275 367 354 495 438 709 42
108 117 367 115 400 0 8 -16 -42 -35 -112 -64 -238 -149 -434 -268 -617 -74
-113 -366 -494 -373 -487 -3 2 64 143 147 313 163 328 208 424 192 408 -6 -5
-47 -77 -91 -160 -45 -82 -86 -154 -91 -159 -5 -5 13 55 41 135 88 251 270
865 269 904 -1 5 -52 -141 -114 -325 -150 -445 -390 -1089 -402 -1078 -2 2 15
60 36 128 90 282 187 654 335 1281 291 1230 453 1741 726 2289 173 345 221
419 379 580 209 213 397 353 646 482 442 229 947 324 1429 267z m583 -415
c224 -144 372 -412 372 -677 0 -55 2 -98 6 -95 3 3 5 58 5 122 0 141 -25 253
-82 371 l-39 80 31 -35 c41 -47 105 -181 125 -260 20 -77 15 -215 -9 -272 -29
-68 -139 -115 -222 -94 -44 11 -102 73 -127 134 -20 52 -22 76 -24 262 -1 113
-7 220 -13 239 -16 53 -6 49 28 -11 54 -93 110 -268 112 -347 0 -20 4 -45 9
-56 16 -40 -3 131 -25 221 -22 88 -58 174 -110 264 -25 43 -23 42 43 -27 119
-123 171 -259 173 -453 1 -103 2 -104 11 -45 6 39 5 91 -2 150 -27 221 -136
401 -314 520 -45 30 -91 64 -101 75 -17 19 -14 18 39 -5 32 -14 83 -42 114
-61z m-4119 -196 c6 -29 47 -228 91 -441 121 -587 168 -871 202 -1202 15 -151
18 -759 4 -850 -9 -54 -11 -40 -22 155 -8 126 -24 277 -39 365 -25 148 -107
501 -125 540 -5 11 -30 79 -56 150 -25 72 -54 153 -64 180 -23 65 -48 241 -62
435 -14 203 12 609 35 550 3 -8 22 -89 41 -180 19 -91 35 -157 35 -147 1 10
-17 103 -39 206 -36 170 -39 194 -29 240 6 28 12 51 14 51 2 0 8 -24 14 -52z
m-2874 -558 c523 -80 1065 -322 1605 -719 719 -526 1172 -1194 1301 -1916 21
-112 24 -163 24 -372 0 -180 -3 -245 -12 -254 -11 -10 -13 14 -13 122 0 627
-272 1308 -740 1854 -109 126 -335 344 -465 448 -124 99 -374 268 -512 346
-374 211 -776 346 -1193 402 -119 16 -448 16 -560 0 -463 -66 -840 -245 -1125
-535 -240 -244 -376 -519 -436 -879 l-19 -112 5 135 c14 440 237 864 596 1134
269 203 602 327 984 366 136 13 400 4 560 -20z m1269 -111 c64 -31 94 -54 83
-65 -7 -7 -50 16 -112 60 -61 44 -55 45 29 5z m-1364 11 c547 -41 1115 -261
1625 -628 516 -372 931 -891 1136 -1419 19 -51 -3 -17 -60 92 -194 370 -489
699 -906 1012 -350 262 -597 398 -932 514 -439 153 -536 180 -769 221 -112 20
-163 23 -384 22 -238 0 -264 -2 -389 -28 -579 -119 -1011 -435 -1207 -883 -40
-91 -45 -83 -9 14 78 205 193 382 360 549 340 341 787 520 1355 542 25 1 106
-3 180 -8z m4976 -300 c303 -76 524 -344 524 -635 0 -74 -21 -190 -38 -207 -4
-4 -7 44 -8 105 -1 135 -19 209 -79 332 -123 249 -376 399 -664 393 -74 -1
-73 -1 29 -8 155 -11 241 -39 360 -116 77 -50 124 -92 174 -155 46 -59 47 -76
1 -22 -124 146 -349 244 -554 242 -88 0 -211 -23 -286 -54 -13 -5 -6 7 20 34
21 22 45 41 53 41 7 0 11 4 8 9 -32 51 302 81 460 41z m-188 -90 c290 -37 531
-244 591 -509 12 -53 0 -43 -23 22 -60 163 -224 306 -421 366 -68 21 -100 25
-210 24 -115 0 -140 -3 -215 -28 -97 -31 -153 -58 -227 -108 -29 -20 -53 -33
-53 -29 0 4 34 47 75 97 59 71 85 94 127 113 69 30 148 49 258 60 9 1 53 -3
98 -8z m-4293 -35 c310 -49 619 -151 875 -287 108 -58 204 -118 198 -124 -2
-2 -51 17 -109 42 -222 97 -562 198 -819 243 -379 68 -785 78 -1153 29 -50 -6
-84 -14 -74 -16 9 -2 57 1 105 8 48 6 179 13 292 17 623 18 1240 -115 1815
-392 123 -59 167 -87 245 -152 95 -80 142 -126 110 -108 -8 4 -29 18 -46 31
-191 141 -553 307 -864 397 -780 226 -1536 232 -2080 18 -53 -21 -54 -21 -30
-1 45 36 300 160 329 160 16 0 34 6 41 14 31 38 322 108 580 140 79 10 489 -4
585 -19z m4389 -95 c181 -46 334 -165 407 -314 24 -50 25 -55 7 -31 -58 77
-175 182 -240 213 -305 149 -671 71 -937 -199 -28 -29 -53 -50 -55 -48 -2 2
25 47 59 100 50 76 76 106 127 142 194 139 428 189 632 137z m-4509 -89 c595
-81 1094 -254 1490 -516 348 -231 584 -503 783 -901 142 -285 212 -543 231
-850 53 -864 -372 -1772 -1229 -2624 -721 -716 -1569 -1181 -2453 -1344 -286
-53 -370 -60 -722 -60 -285 0 -352 3 -492 22 -270 36 -597 114 -783 186 -71
27 -70 36 1 11 146 -52 490 -123 734 -151 209 -25 661 -25 870 0 437 51 815
148 1217 312 776 316 1549 892 2082 1552 406 503 638 1014 717 1582 20 141 18
507 -4 645 -106 670 -468 1202 -1090 1606 -127 83 -406 219 -560 274 -246 88
-545 154 -842 187 -77 8 -242 13 -460 13 -338 -1 -506 -11 -758 -49 -48 -7
-84 -10 -80 -6 27 25 297 92 458 114 170 24 173 24 465 21 207 -3 312 -9 425
-24z m-210 -101 c754 -50 1366 -279 1865 -698 441 -369 699 -839 771 -1402 18
-138 15 -440 -5 -585 -84 -589 -327 -1103 -774 -1640 -112 -133 -488 -505
-637 -629 -1180 -981 -2540 -1363 -3865 -1085 -227 47 -569 155 -605 191 -20
20 -20 20 20 2 496 -214 1176 -293 1840 -213 461 55 874 170 1340 374 582 253
1171 676 1623 1165 535 579 829 1137 927 1760 25 160 32 600 11 755 -36 269
-116 505 -244 720 -120 201 -384 490 -592 647 -324 246 -725 416 -1193 507
-286 55 -414 66 -822 66 -359 0 -444 -5 -766 -41 -100 -11 -143 -12 -164 -4
-15 6 -26 13 -23 15 3 3 76 16 164 30 424 65 797 87 1129 65z m-10 -100 c678
-45 1233 -231 1671 -561 90 -67 140 -115 79 -75 -116 76 -181 106 -561 261
-453 184 -983 299 -1419 309 -88 2 -128 2 -90 0 274 -15 628 -68 895 -135 164
-41 458 -133 473 -148 5 -5 -38 2 -95 15 -140 31 -293 53 -413 58 -55 2 -84 3
-65 0 19 -2 78 -9 130 -15 105 -12 351 -61 390 -79 22 -9 19 -10 -19 -5 -354
45 -759 11 -1101 -92 -121 -36 -324 -112 -318 -119 3 -2 44 12 93 31 173 68
395 123 605 149 147 19 440 32 440 20 0 -5 -40 -17 -88 -26 -120 -23 -282 -73
-566 -175 -358 -128 -496 -165 -690 -183 -99 -10 -186 -5 -186 10 0 16 179
178 247 223 174 115 362 189 534 210 55 6 98 16 96 21 -6 18 -115 44 -317 75
-342 54 -807 154 -833 180 -10 10 37 16 288 36 320 25 585 30 820 15z m-3470
-500 c113 -31 214 -75 299 -130 91 -59 109 -84 30 -41 -213 118 -499 126 -772
24 -62 -23 -47 -25 31 -3 215 60 461 39 652 -56 169 -83 283 -205 345 -368 16
-44 2 -29 -26 27 -63 123 -214 272 -316 310 -28 10 -21 -1 11 -18 54 -27 152
-116 198 -178 48 -65 107 -181 118 -232 5 -27 4 -26 -16 10 -101 184 -309 342
-485 369 -33 6 -31 4 16 -12 138 -46 260 -131 344 -240 38 -50 102 -162 93
-162 -2 0 -27 29 -55 64 -61 77 -145 143 -238 189 -134 67 -234 88 -403 86
l-116 -2 125 -8 c256 -16 439 -97 568 -251 75 -89 142 -246 142 -331 0 -26 -5
-23 -81 58 -262 276 -657 378 -1019 263 -92 -29 -206 -88 -289 -148 -86 -62
-94 -76 -12 -20 77 53 208 113 296 136 55 15 105 19 230 19 143 -1 171 -3 258
-28 232 -64 430 -197 538 -361 60 -92 46 -97 -38 -14 -127 123 -276 208 -448
254 -57 15 -102 19 -245 18 -102 0 -187 -6 -205 -12 -26 -10 -23 -10 20 -4
107 15 296 7 385 -16 99 -26 224 -83 310 -142 139 -95 290 -266 290 -329 l0
-32 -72 62 c-113 97 -255 179 -367 213 -88 26 -83 18 10 -17 151 -58 331 -189
390 -283 l21 -34 -21 -34 c-38 -60 -45 -62 -98 -23 -47 33 -113 71 -113 64 0
-2 24 -20 54 -41 29 -20 62 -46 71 -56 17 -19 17 -20 -21 -36 -69 -29 -183
-14 -357 45 -185 63 -252 75 -386 68 -270 -14 -499 -145 -651 -372 -18 -27
-34 -52 -36 -53 -1 -2 -10 0 -19 5 -13 8 -8 20 37 84 140 200 378 366 618 431
73 19 109 23 260 23 154 0 169 1 125 12 -73 16 -260 15 -352 -2 -279 -53 -544
-221 -700 -444 -26 -36 -48 -68 -49 -69 -6 -9 -144 33 -144 43 0 17 68 126
134 216 112 151 259 274 448 375 111 59 98 64 -17 6 -223 -111 -437 -317 -561
-539 -37 -65 -37 -65 -73 -59 -20 3 -55 6 -78 6 -30 0 -43 4 -43 14 0 36 79
247 141 376 38 80 60 134 49 120 -36 -46 -148 -284 -186 -395 -20 -60 -43
-117 -51 -126 -7 -9 -13 -29 -12 -45 0 -16 -8 -69 -19 -119 -114 -497 -60
-1099 147 -1643 64 -166 66 -174 40 -127 -35 62 -112 248 -158 377 -302 854
-218 1694 230 2299 34 46 112 136 173 199 89 92 98 103 44 56 -328 -283 -557
-733 -630 -1241 -22 -149 -16 -551 9 -715 65 -418 200 -805 418 -1197 25 -46
43 -83 41 -83 -18 0 -223 393 -299 570 -191 448 -291 959 -273 1395 10 271 45
463 132 725 93 278 242 549 414 750 43 50 56 68 31 45 -85 -80 -221 -270 -306
-425 -316 -577 -389 -1294 -205 -2015 118 -463 305 -872 597 -1308 61 -92 108
-165 104 -162 -5 3 -47 56 -94 117 -351 466 -594 1007 -702 1561 -78 401 -78
816 2 1177 119 542 416 1017 818 1305 164 118 402 223 580 255 90 16 330 5
420 -20z m1580 -598 c68 -133 134 -221 250 -337 230 -230 568 -382 894 -402
109 -6 121 -14 121 -76 l0 -40 -102 7 c-515 33 -930 321 -1167 811 -49 100
-93 219 -105 285 -3 19 7 -5 24 -53 16 -48 54 -136 85 -195z m-120 71 c69
-197 162 -341 314 -493 264 -263 604 -417 964 -437 59 -3 107 -8 107 -10 0
-12 -31 -61 -49 -77 -19 -17 -32 -18 -133 -13 -243 12 -478 91 -693 235 -96
64 -289 259 -354 357 -71 109 -147 268 -165 346 -17 76 -30 169 -23 169 2 0
17 -35 32 -77z m7757 -23 c174 -87 313 -247 375 -435 23 -69 27 -97 27 -200 0
-105 -4 -130 -28 -200 -33 -96 -88 -192 -152 -266 -40 -46 -42 -49 -10 -19 54
50 121 147 160 232 89 194 87 408 -6 603 -15 32 -16 36 -2 20 27 -33 82 -156
99 -220 8 -34 19 -101 25 -150 l9 -90 -4 95 c-7 159 -54 301 -141 423 -42 58
-42 64 -3 35 57 -42 236 -356 264 -463 8 -32 16 -80 17 -105 l1 -45 6 45 6 45
17 -62 c50 -178 60 -357 29 -508 -32 -156 -101 -278 -220 -387 -166 -154 -377
-233 -686 -257 -61 -4 -87 -9 -59 -10 172 -4 398 44 549 118 175 86 289 199
370 366 58 121 77 210 77 365 0 138 -16 231 -63 368 -16 48 -40 125 -55 172
-14 47 -36 109 -49 138 -13 28 -20 52 -16 52 20 0 139 -176 183 -270 157 -337
119 -717 -101 -1008 -139 -184 -333 -303 -571 -352 -92 -19 -126 -21 -280 -17
-182 6 -284 22 -445 71 -112 34 -308 105 -318 115 -5 5 10 12 35 16 23 3 71
15 105 26 35 11 68 17 74 13 7 -4 9 -3 6 3 -8 12 214 103 313 129 36 9 100 17
142 18 75 1 78 0 112 -33 20 -19 36 -38 36 -42 0 -21 -179 -66 -310 -79 l-85
-9 95 4 c62 3 136 15 211 34 l116 30 47 -24 c26 -13 47 -27 47 -32 0 -4 -39
-18 -88 -30 -48 -12 -79 -22 -68 -22 11 -1 62 10 114 24 68 18 107 24 140 19
66 -8 165 12 247 51 130 62 239 203 293 380 30 95 51 242 50 345 l-1 85 -14
-95 c-38 -250 -111 -425 -224 -540 -165 -167 -386 -194 -529 -65 -39 35 -87
102 -80 110 2 2 32 -4 66 -13 196 -51 472 113 596 354 58 113 87 230 86 339
l-2 80 -8 -73 c-25 -215 -123 -396 -277 -511 -198 -149 -431 -152 -502 -6 -46
95 1 156 168 219 53 20 118 50 143 67 102 65 180 178 214 310 21 81 22 225 0
303 -38 142 -162 313 -289 401 -82 56 -76 61 16 15z m-7512 -131 c109 -155
339 -348 529 -444 104 -52 294 -112 426 -134 88 -14 123 -24 133 -38 12 -17 9
-18 -50 -21 -123 -6 -329 42 -487 114 -245 112 -482 339 -615 589 -25 46 -25
48 -4 24 13 -14 43 -55 68 -90z m3753 79 c103 -52 172 -134 254 -304 262 -542
270 -1179 23 -1812 -306 -785 -1070 -1618 -1960 -2137 -174 -102 -308 -166
-495 -237 -165 -63 -383 -134 -390 -127 -2 2 94 54 213 114 818 417 1377 819
1782 1281 439 502 693 1021 785 1609 22 143 30 435 16 591 -7 71 -23 185 -37
252 -24 119 -83 321 -104 352 -14 22 -12 5 4 -35 27 -63 75 -249 96 -365 84
-481 14 -1005 -200 -1483 -262 -584 -783 -1158 -1455 -1604 -200 -132 -196
-126 25 39 214 160 330 258 504 428 607 591 951 1213 1051 1900 22 150 30 452
16 590 -14 133 -32 252 -38 246 -2 -2 3 -50 12 -107 75 -493 -23 -1046 -274
-1548 -296 -593 -798 -1119 -1536 -1611 -140 -93 -432 -275 -460 -287 -36 -15
95 86 220 170 313 209 485 340 635 482 47 44 130 114 185 155 122 92 342 304
440 425 296 366 473 764 557 1251 19 113 22 165 23 424 0 237 -4 318 -18 410
-24 155 -66 326 -121 497 -67 208 -79 318 -41 370 12 16 15 14 33 -28 100
-233 169 -480 212 -764 31 -198 38 -559 16 -749 -17 -148 -16 -195 2 -74 40
269 41 672 3 911 -36 226 -92 428 -178 646 -28 72 -41 117 -35 123 41 41 161
44 235 6z m-3482 -295 c122 -79 319 -174 504 -242 152 -56 255 -101 255 -111
0 -4 -35 -2 -77 5 -293 48 -561 180 -774 382 -88 84 -128 140 -48 68 23 -20
86 -66 140 -102z m8162 -271 c163 -318 176 -670 37 -984 -132 -298 -402 -531
-742 -642 -124 -41 -213 -56 -378 -67 l-125 -8 140 4 c367 10 665 135 915 385
183 182 278 362 321 605 7 39 14 63 16 54 7 -32 -28 -210 -57 -290 -141 -387
-524 -696 -985 -795 -44 -9 -154 -20 -245 -24 l-165 -8 175 3 c193 4 303 22
458 74 163 54 332 146 467 253 35 28 28 19 -25 -32 -187 -178 -445 -309 -712
-361 -144 -28 -377 -31 -513 -5 -136 25 -155 27 -100 11 87 -25 248 -45 371
-45 396 0 757 147 1034 422 85 83 85 72 -1 -52 -193 -283 -557 -482 -876 -479
l-88 0 115 29 c65 17 154 49 207 74 102 49 124 68 41 35 -358 -144 -736 -114
-1074 86 -202 120 -394 328 -394 427 0 38 38 75 85 84 64 12 132 -12 240 -82
195 -127 452 -234 650 -269 196 -35 436 -16 594 46 229 91 470 304 553 489 32
72 28 83 -6 17 -70 -133 -167 -246 -271 -317 -71 -49 -211 -107 -329 -137
-135 -34 -375 -43 -513 -19 -158 27 -452 133 -437 157 3 5 -3 6 -12 2 -12 -4
-15 -3 -10 5 4 8 2 10 -7 6 -8 -3 -21 1 -29 9 -8 8 -37 26 -66 41 -65 33 -78
52 -17 26 226 -97 548 -147 774 -121 426 50 747 314 879 721 55 172 62 366 19
533 -25 94 -91 245 -138 316 -13 19 -18 31 -11 27 20 -12 106 -144 144 -221
75 -150 108 -290 108 -459 0 -319 -125 -564 -384 -755 -166 -123 -429 -216
-630 -223 l-51 -1 45 -4 c107 -10 349 51 492 123 159 80 325 217 407 337 234
342 207 825 -66 1187 -29 39 -53 74 -53 78 1 4 41 -35 89 -86 67 -69 100 -114
134 -180z m-8510 151 c41 -62 137 -168 207 -229 227 -197 491 -308 810 -340
l75 -7 -35 -15 c-25 -11 -67 -16 -145 -16 -182 1 -254 21 -415 117 -209 124
-368 272 -489 454 -23 34 -41 64 -41 68 0 12 9 3 33 -32z m7072 -3 c101 -27
210 -78 289 -134 75 -53 182 -166 215 -225 27 -49 23 -48 -64 19 -399 309
-745 356 -1150 154 -60 -30 -121 -64 -135 -74 -14 -11 29 8 94 41 127 63 231
100 336 119 93 17 252 15 340 -5 72 -17 204 -64 198 -71 -2 -2 -40 7 -83 19
-66 17 -107 21 -230 21 -131 0 -164 -3 -256 -27 -233 -60 -429 -165 -669 -358
-58 -46 -218 -196 -356 -334 -272 -271 -301 -308 -370 -481 -99 -245 -292
-584 -431 -755 -59 -74 -60 -89 -8 -113 98 -47 211 18 284 163 47 91 67 149
130 371 89 310 129 403 234 539 58 75 224 213 191 159 -5 -7 -22 -33 -40 -58
-41 -59 -108 -192 -150 -302 -44 -112 -43 -138 0 -33 75 183 156 316 253 416
78 81 119 100 67 32 -19 -25 -46 -64 -59 -88 -29 -48 -277 -626 -272 -631 2
-2 37 67 77 154 243 520 278 576 405 639 22 11 53 23 69 27 28 7 27 5 -26 -56
-113 -129 -176 -248 -297 -561 -204 -528 -322 -647 -851 -862 -224 -91 -351
-154 -481 -240 -60 -40 -109 -69 -108 -66 0 3 70 67 155 141 231 201 225 206
-13 13 -57 -46 -106 -83 -109 -83 -3 0 12 20 33 44 199 228 375 436 512 607
186 233 182 229 -145 -136 -133 -149 -252 -279 -265 -290 -30 -25 -30 -25 133
180 73 94 185 238 248 320 143 188 319 413 518 665 86 107 187 236 226 285
426 543 792 812 1192 875 93 14 277 4 369 -20z m-10126 -864 l42 -54 -25 -83
c-104 -360 -91 -829 35 -1283 65 -237 199 -552 320 -756 46 -76 69 -124 51
-105 -6 6 -35 55 -67 109 -264 461 -422 937 -466 1400 -17 180 -7 514 20 676
24 139 26 150 39 150 5 0 28 -24 51 -54z m286 14 c145 -65 279 -245 340 -455
39 -136 51 -279 37 -447 -6 -78 -10 -143 -8 -145 8 -8 28 161 33 279 9 201
-20 366 -89 502 -16 32 -28 60 -26 62 8 8 82 -102 114 -170 73 -153 101 -357
69 -496 -29 -122 -30 -171 -6 -202 12 -15 37 -32 57 -38 87 -29 158 23 259
189 86 141 167 248 267 349 197 199 419 302 653 302 72 0 202 -27 250 -53 24
-12 10 -13 -112 -10 -76 2 -158 0 -183 -6 -36 -7 -26 -8 50 -4 104 6 219 -8
318 -39 56 -17 67 -24 93 -66 16 -25 29 -49 29 -53 0 -3 -35 3 -77 13 -102 26
-376 35 -477 16 -67 -13 -63 -13 135 -13 180 0 215 -3 299 -24 124 -31 130
-34 130 -76 0 -19 -2 -35 -3 -35 -2 0 -46 9 -98 20 -108 24 -369 36 -464 23
-48 -7 -28 -9 105 -9 160 0 219 -7 363 -41 69 -17 84 -33 48 -53 -14 -7 -28
-7 -48 1 -15 6 -104 14 -198 16 -201 6 -350 -14 -521 -71 -98 -33 -278 -116
-299 -138 -5 -5 23 7 64 27 92 46 250 98 368 122 105 21 484 26 503 7 8 -8
-11 -13 -72 -18 -513 -43 -937 -215 -1214 -493 -153 -152 -263 -338 -314 -528
-30 -111 -38 -318 -17 -440 9 -49 15 -91 13 -92 -5 -6 -66 183 -86 267 -39
167 -42 223 -50 755 -8 543 -12 590 -55 755 -17 65 -74 214 -81 208 -1 -2 10
-40 26 -85 16 -46 40 -133 52 -195 22 -107 23 -130 19 -443 -10 -814 -10 -825
44 -1085 13 -64 -49 128 -75 230 -42 170 -61 304 -70 500 l-8 175 3 -210 c2
-160 8 -239 25 -334 45 -257 126 -496 246 -731 60 -117 62 -122 28 -85 -61 68
-144 238 -215 440 -115 327 -128 430 -129 995 0 217 -5 436 -10 485 -29 256
-97 465 -203 623 -20 28 -32 52 -29 52 4 0 42 -20 85 -45 172 -101 316 -278
373 -457 9 -32 19 -56 22 -54 7 7 -39 137 -71 201 -64 129 -169 254 -273 326
-24 16 -44 32 -44 34 0 7 46 -8 105 -35z m8821 23 c-4 -9 -10 -37 -13 -62 -4
-30 -23 -69 -58 -122 -57 -85 -140 -249 -205 -404 -169 -403 -267 -568 -428
-716 -37 -34 -49 -48 -26 -31 68 52 183 179 239 265 61 95 135 241 230 452
108 244 222 446 237 423 14 -24 8 -44 -47 -156 -30 -61 -89 -198 -131 -304
-87 -222 -154 -366 -214 -458 -118 -181 -243 -296 -364 -331 -354 -103 -436
-153 -436 -264 0 -41 12 -69 46 -105 l23 -25 -140 -23 c-218 -35 -441 -97
-638 -178 -46 -19 -85 -33 -87 -31 -11 11 323 222 478 302 56 29 39 29 -26 0
-141 -62 -283 -139 -441 -240 -30 -19 -30 -19 5 19 53 58 182 160 305 241 120
80 292 169 510 265 387 170 548 306 684 577 41 83 48 100 147 361 96 255 166
386 271 509 27 31 54 53 65 53 15 0 18 -5 14 -17z m-1359 -75 c-3 -7 -5 -2 -5
12 0 14 2 19 5 13 2 -7 2 -19 0 -25z m4074 -130 c-31 -216 -106 -432 -268
-768 -144 -298 -195 -416 -243 -560 -67 -200 -81 -280 -89 -520 -9 -229 -18
-268 -76 -319 -79 -69 -214 -41 -316 66 -165 170 -177 468 -31 733 32 58 109
170 118 170 1 0 -19 -46 -46 -102 -49 -103 -101 -262 -99 -302 1 -20 2 -20 6
-1 38 172 176 438 274 531 l31 29 -37 -59 c-105 -165 -198 -452 -194 -595 1
-24 5 -12 14 39 40 236 139 457 284 630 30 36 56 67 58 69 1 2 5 2 7 0 3 -3
-15 -38 -40 -79 -60 -98 -127 -232 -163 -323 -63 -158 -97 -372 -81 -512 l7
-70 2 101 c0 55 6 127 11 160 18 100 71 253 125 359 49 96 215 358 223 351 1
-2 -27 -63 -63 -136 -114 -227 -207 -500 -204 -595 1 -23 3 -19 9 16 21 123
72 272 142 414 41 82 180 316 185 311 2 -1 -26 -63 -61 -137 -122 -256 -178
-441 -197 -652 -6 -65 -9 -121 -6 -124 3 -2 8 26 12 64 28 301 106 515 350
953 109 195 171 322 221 453 45 117 108 334 124 425 18 98 25 83 11 -20z
m-11716 2 l35 -69 -24 -98 c-49 -198 -64 -396 -46 -613 21 -263 67 -467 179
-806 38 -115 72 -225 76 -244 l6 -35 -19 31 c-27 43 -85 167 -134 289 -195
484 -256 994 -172 1430 23 119 45 195 56 189 4 -3 24 -37 43 -74z m7581 -74
c-8 -63 -22 -128 -31 -143 -16 -27 -16 -27 -10 -3 3 14 15 88 28 165 26 163
35 150 13 -19z m1411 -123 c-14 -199 -115 -478 -258 -713 l-21 -35 21 24 c32
36 129 211 172 312 22 49 54 139 72 199 19 61 36 112 39 115 10 10 28 -144 28
-236 0 -237 -110 -404 -359 -546 -77 -44 -111 -55 -95 -30 5 7 2 6 -6 -4 -23
-23 -51 -37 -136 -65 -103 -33 -114 -30 -57 15 153 120 273 309 417 654 61
145 128 300 156 360 24 49 33 31 27 -50z m-8894 -80 c40 -190 52 -438 40 -793
l-8 -225 -22 85 c-62 240 -91 534 -74 739 12 150 31 271 41 271 4 0 14 -35 23
-77z m5831 -29 c14 -105 7 -173 -35 -321 -143 -512 -369 -983 -668 -1398 -71
-98 -260 -335 -268 -335 -6 0 2 12 86 130 221 309 454 766 643 1259 61 160
178 494 175 498 -2 2 -21 -41 -42 -95 -266 -677 -477 -1121 -688 -1452 -74
-116 -219 -321 -224 -317 -2 2 15 48 38 102 88 211 123 379 123 595 0 219 -38
389 -129 587 -73 159 -225 355 -358 465 -32 26 -18 9 38 -47 222 -221 355
-482 395 -782 16 -115 8 -358 -15 -463 -43 -197 -152 -441 -272 -610 -195
-272 -504 -515 -813 -639 -87 -35 -84 -33 73 57 280 160 516 383 674 637 269
431 308 962 104 1391 -115 240 -286 432 -547 615 -50 35 -113 77 -139 92 -26
15 -45 31 -42 34 11 10 211 -28 299 -57 187 -62 357 -168 498 -310 147 -147
268 -349 324 -540 14 -47 25 -78 25 -70 1 9 -11 56 -25 105 -31 109 -106 270
-171 367 -62 93 -187 225 -275 290 -37 28 -68 53 -68 55 0 8 111 -57 185 -108
279 -193 434 -423 440 -654 1 -69 8 -85 35 -85 20 0 40 50 40 101 0 25 51 153
119 302 40 86 149 270 218 367 56 79 224 279 234 279 4 1 9 -20 13 -45z
m-1769 -131 c289 -174 500 -484 572 -841 28 -137 25 -394 -6 -542 -98 -474
-388 -868 -847 -1152 -539 -334 -1213 -431 -1889 -273 -233 54 -451 143 -596
243 -138 95 -163 125 -42 50 206 -126 476 -219 773 -264 160 -25 509 -25 675
0 414 61 764 199 1089 431 447 317 716 765 716 1192 0 111 -16 193 -76 403
-91 312 -205 517 -406 726 -89 92 -82 98 37 27z m1789 -378 c-6 -78 -13 -105
-61 -220 -234 -556 -546 -1022 -965 -1437 -198 -197 -267 -246 -93 -67 516
531 878 1171 1071 1889 l39 145 7 -110 c4 -60 5 -150 2 -200z m-1486 168 c223
-223 337 -425 392 -693 99 -486 -66 -988 -450 -1370 -225 -224 -500 -389 -844
-506 -55 -19 -101 -32 -103 -31 -2 2 30 16 69 32 93 35 309 143 385 191 232
148 441 349 580 557 204 306 307 695 274 1035 -30 322 -153 597 -370 824 -127
134 -78 105 67 -39z m-2268 -30 c112 -18 299 -77 390 -123 247 -124 432 -311
501 -505 24 -68 35 -204 24 -290 -8 -66 -17 -62 -34 15 -46 216 -236 458 -438
559 -89 45 -117 47 -36 3 105 -57 179 -117 245 -200 191 -241 233 -572 102
-811 -94 -173 -252 -307 -444 -381 l-55 -21 50 45 c28 25 53 45 57 46 16 1
122 141 157 210 100 193 122 435 59 648 -26 88 -36 89 -12 1 25 -89 25 -300 1
-389 -38 -143 -153 -327 -258 -411 -110 -89 -226 -147 -337 -170 -63 -13 -104
-2 -126 34 -18 29 3 47 99 85 221 86 342 220 407 448 29 104 31 277 4 374 -80
278 -315 495 -622 572 -126 31 -316 31 -429 0 -289 -81 -541 -312 -661 -605
-69 -170 -78 -220 -78 -442 -1 -223 9 -289 69 -467 19 -56 33 -103 31 -105 -6
-6 -94 200 -115 272 -35 112 -51 229 -51 361 0 396 180 743 492 944 257 167
562 210 843 119 291 -93 538 -352 624 -655 11 -38 20 -62 20 -53 1 9 -8 48
-20 85 -93 301 -326 545 -616 645 -131 45 -308 60 -458 39 -251 -36 -515 -179
-659 -358 -174 -215 -262 -456 -273 -747 -7 -173 5 -278 46 -424 15 -56 27
-101 25 -101 -8 0 -67 126 -94 199 -69 188 -91 423 -56 589 21 96 74 236 117
307 115 191 307 368 516 474 92 47 315 123 413 141 103 19 346 14 481 -9 259
-45 522 -160 714 -313 l50 -40 -50 47 c-109 101 -348 235 -518 290 -76 24
-227 57 -332 72 l-50 7 45 6 c56 8 119 3 240 -17z m5853 -55 c-46 -156 -102
-280 -149 -331 -31 -34 -79 -59 -105 -55 -17 3 -13 11 31 72 51 70 156 234
204 319 15 26 29 47 31 47 2 0 -3 -24 -12 -52z m-2108 -265 c-50 -391 -141
-609 -383 -923 -84 -108 -335 -360 -472 -473 -57 -47 -106 -84 -108 -82 -3 2
41 52 97 111 360 377 658 858 845 1367 10 26 20 47 22 47 3 0 2 -21 -1 -47z
m1262 -120 c-138 -291 -337 -606 -543 -864 -255 -319 -604 -651 -789 -749
-226 -120 -371 -199 -470 -255 -1041 -589 -1559 -760 -2250 -742 -275 7 -493
40 -750 114 -105 30 -308 104 -302 110 3 2 40 -5 83 -16 116 -30 329 -67 494
-88 202 -24 675 -25 880 0 898 109 1707 472 2460 1107 157 132 486 458 616
610 237 276 430 545 567 793 21 37 40 67 42 67 2 0 -15 -39 -38 -87z m-3067
-254 c163 -98 263 -368 231 -621 -16 -124 -70 -276 -121 -344 -50 -66 -161
-186 -167 -180 -2 2 7 23 21 45 103 162 156 409 136 625 -6 55 -12 101 -14
103 -2 3 -2 -47 1 -109 12 -235 -58 -475 -189 -657 -42 -58 -187 -211 -200
-211 -4 0 15 29 42 64 110 147 186 329 217 520 17 112 14 345 -7 454 -17 88
-24 70 -9 -22 19 -118 7 -348 -25 -468 -34 -128 -89 -254 -157 -358 -59 -89
-156 -210 -170 -210 -5 0 11 28 35 63 111 159 219 455 215 589 0 19 -7 -2 -15
-47 -50 -283 -214 -568 -429 -745 -113 -94 -122 -86 -18 17 210 208 333 464
365 756 9 86 9 135 -3 250 -8 78 -14 187 -13 242 0 88 3 106 26 150 26 50 55
82 93 103 34 19 116 14 155 -9z m4240 -279 c388 -33 741 -131 1073 -296 612
-306 1006 -741 1130 -1249 l5 -20 1 20 c1 31 -73 244 -114 324 -191 381 -518
686 -990 926 -261 133 -511 219 -779 270 -72 13 -142 26 -156 29 -14 3 20 3
75 1 482 -22 1082 -256 1510 -590 273 -213 496 -552 549 -834 22 -117 21 -266
-4 -370 -24 -101 -67 -201 -86 -201 -8 0 -14 -8 -14 -19 0 -10 -12 -35 -26
-56 -26 -38 -105 -125 -114 -125 -3 0 -4 62 -2 138 3 119 0 154 -22 250 -100
443 -482 960 -961 1298 -91 65 -187 126 -175 112 3 -3 57 -43 120 -88 359
-257 650 -589 835 -955 106 -209 156 -398 154 -584 -1 -134 -14 -170 -23 -66
-34 382 -189 727 -484 1084 -382 460 -909 761 -1442 822 -122 14 -342 6 -440
-15 l-65 -14 65 6 c36 4 148 7 250 6 159 -1 203 -5 311 -27 406 -85 744 -273
1064 -592 196 -196 364 -419 451 -599 24 -48 48 -94 55 -102 6 -7 7 -19 3 -25
-4 -7 -3 -9 4 -6 21 14 111 -240 139 -397 22 -121 22 -341 0 -462 -73 -405
-333 -761 -686 -943 -180 -93 -362 -138 -580 -146 -136 -5 -126 1 54 30 321
52 652 245 856 501 72 90 153 223 190 312 76 182 120 409 118 600 l-2 97 -8
-134 c-24 -401 -154 -708 -403 -956 -154 -153 -330 -260 -539 -330 -151 -50
-237 -65 -387 -70 l-135 -5 116 25 c342 72 622 215 839 428 342 334 482 788
385 1248 -42 196 -146 429 -273 609 -69 98 -292 331 -372 389 -34 25 -37 26
-15 6 17 -15 65 -58 107 -96 197 -177 384 -453 473 -699 77 -212 105 -490 71
-690 -49 -288 -184 -539 -405 -753 -257 -248 -555 -381 -985 -441 -22 -3 -35
-2 -30 3 14 14 156 68 299 115 147 49 244 95 360 171 198 131 358 307 477 525
39 71 103 227 113 275 3 17 -8 -5 -24 -47 -131 -343 -352 -604 -659 -777 -79
-45 -240 -113 -255 -108 -14 4 56 55 153 111 47 27 117 72 155 101 125 94 308
297 351 390 9 18 9 23 2 11 -112 -164 -271 -328 -408 -419 -46 -31 -86 -54
-89 -51 -3 2 13 23 35 47 43 45 106 122 119 147 4 8 -37 -28 -91 -81 -115
-112 -224 -186 -380 -257 -234 -106 -375 -136 -617 -130 -196 5 -244 22 -68
25 449 6 860 218 1137 586 69 91 183 301 199 367 3 14 -19 -26 -50 -89 -76
-157 -151 -266 -264 -384 -234 -244 -509 -388 -836 -438 -164 -25 -476 -9
-580 31 -47 18 -24 19 55 3 106 -22 340 -21 455 1 439 85 801 348 1012 736 84
152 150 383 155 532 2 49 5 87 8 85 153 -92 315 -41 397 125 65 128 43 330
-58 533 -142 289 -412 537 -785 724 -291 145 -573 213 -880 209 -88 -1 -139
-3 -114 -4 309 -21 468 -48 661 -114 269 -91 466 -208 684 -406 306 -278 482
-620 436 -846 -7 -32 -16 -60 -20 -63 -5 -2 -16 36 -25 86 -46 250 -185 546
-331 704 l-37 40 35 -45 c176 -231 287 -506 312 -776 7 -70 7 -70 -25 -97 -44
-38 -60 -35 -60 9 0 20 -7 83 -15 140 -48 318 -221 655 -451 874 -72 69 -177
155 -214 175 -23 12 -3 -5 71 -63 157 -122 319 -322 412 -508 92 -183 156
-421 160 -591 l2 -78 -30 3 c-41 5 -110 45 -108 63 1 7 9 52 18 99 50 246 -48
521 -260 733 -89 88 -131 113 -55 31 88 -94 138 -172 178 -279 83 -219 80
-456 -8 -640 -116 -243 -378 -401 -605 -366 l-50 8 46 2 c150 4 295 66 399
170 214 214 237 578 60 931 -126 251 -370 481 -651 614 -386 183 -893 220
-1439 105 -179 -38 -392 -108 -501 -165 -42 -21 -46 -12 -11 22 35 35 172 113
302 172 266 122 775 256 1165 308 182 24 510 24 665 0 236 -37 419 -95 645
-205 289 -141 537 -334 749 -586 108 -127 173 -223 257 -373 32 -58 59 -102
59 -97 0 18 -120 227 -178 310 -228 328 -520 581 -878 761 -328 165 -719 248
-1074 229 -488 -26 -1141 -185 -1502 -365 -43 -21 -78 -35 -78 -30 0 13 118
118 164 145 69 40 301 139 420 179 253 84 573 144 668 125 29 -6 78 -4 148 5
136 17 144 18 280 6z m-442 -401 c390 -42 716 -187 965 -428 246 -238 369
-504 370 -796 0 -123 -17 -203 -64 -301 -120 -254 -417 -382 -681 -293 -82 27
-97 42 -22 22 89 -25 233 -22 320 5 174 53 312 199 359 378 28 108 16 270 -30
409 -30 92 -114 249 -179 336 -492 653 -1487 804 -2445 370 -63 -28 -116 -50
-118 -48 -11 12 97 91 171 127 243 115 556 195 881 223 95 8 384 6 473 -4z
m-6888 -363 c65 -85 156 -175 235 -231 62 -44 201 -118 245 -129 14 -4 -9 11
-51 32 -42 22 -103 56 -135 78 -74 48 -229 202 -276 274 -49 75 -102 179 -96
186 3 3 40 -36 83 -86 126 -148 273 -264 429 -335 105 -49 107 -43 3 13 -129
69 -318 219 -348 274 -10 18 -8 18 33 -3 24 -12 113 -49 198 -81 269 -103 390
-179 441 -280 39 -77 25 -144 -38 -185 -64 -42 -241 -11 -393 68 -211 109
-423 355 -463 537 -36 161 -33 166 26 47 31 -60 79 -141 107 -179z m6918 260
c371 -70 654 -215 884 -454 295 -306 405 -703 266 -964 -38 -72 -146 -176
-221 -212 -60 -30 -160 -59 -151 -45 3 5 13 9 23 9 10 0 52 17 92 37 230 115
311 357 215 641 -174 510 -681 866 -1325 932 -371 37 -782 -37 -1230 -222 -79
-32 -161 -68 -183 -79 -21 -11 -38 -15 -38 -10 0 54 413 238 698 312 105 27
293 61 397 72 95 11 492 -1 573 -17z m-214 -76 c76 -6 183 -19 236 -30 448
-91 839 -379 1021 -749 127 -260 108 -476 -55 -629 -114 -107 -233 -149 -385
-139 -104 8 -124 22 -41 30 224 20 399 269 374 532 -44 463 -555 836 -1239
905 -113 12 -515 10 -515 -2 0 -3 -24 -9 -52 -13 -50 -7 -270 -49 -313 -61
-16 -4 -17 -3 -5 5 29 18 245 79 370 104 121 24 278 45 390 50 30 2 60 4 65 5
6 1 73 -3 149 -8z m-343 -161 c195 -63 401 -191 554 -344 117 -116 197 -225
266 -362 28 -54 47 -87 44 -73 -4 14 -32 74 -63 133 -125 246 -312 441 -558
582 -102 58 -71 58 43 0 94 -49 97 -50 88 -35 -16 26 107 -42 210 -115 168
-119 316 -313 345 -451 17 -82 -4 -225 -31 -208 -5 3 -6 -1 -4 -8 7 -18 -46
-71 -92 -93 -85 -41 -215 9 -300 115 -24 30 -73 114 -110 185 -117 231 -179
313 -322 422 -109 84 -117 93 -58 59 26 -15 52 -24 58 -21 14 9 132 -63 221
-134 98 -78 231 -220 297 -317 62 -91 85 -117 51 -59 -92 159 -268 352 -416
458 -143 101 -316 183 -479 227 -58 16 -64 19 -34 19 153 3 433 -102 612 -230
162 -115 281 -249 385 -431 62 -111 68 -109 11 5 -163 324 -454 572 -780 663
-48 14 -58 19 -43 25 29 11 36 11 105 -12z m-471 -100 c147 -37 265 -96 387
-191 83 -65 145 -135 215 -243 62 -95 78 -110 28 -25 -91 154 -224 289 -380
384 -26 16 -35 24 -20 20 81 -23 307 -195 394 -300 61 -74 114 -182 126 -261
16 -98 -16 -208 -77 -264 -46 -43 -75 -57 -131 -65 -117 -15 -184 43 -288 250
-36 72 -81 152 -100 177 -100 137 -269 243 -468 294 -50 13 -80 24 -68 25 87
1 321 -92 436 -174 71 -51 200 -182 241 -243 28 -43 44 -58 26 -25 -21 40
-101 140 -153 193 -152 154 -311 238 -545 290 l-88 19 86 -5 c175 -10 370 -79
522 -185 70 -47 166 -140 230 -220 21 -26 20 -22 -5 14 -86 126 -252 273 -389
342 -94 47 -205 83 -307 99 l-87 13 68 1 c176 3 400 -78 573 -207 79 -58 187
-173 227 -239 27 -47 33 -41 5 8 -36 65 -143 192 -205 246 -107 92 -195 143
-325 188 l-73 26 53 -6 c123 -14 295 -85 407 -167 144 -107 217 -203 323 -428
l12 -25 -6 25 c-12 49 -83 187 -129 249 -170 231 -362 350 -659 407 -23 4 -27
7 -15 15 22 14 69 11 159 -12z m638 -1389 c23 -10 42 -24 42 -30 0 -6 4 -9 9
-6 13 8 91 -81 124 -142 31 -57 120 -292 113 -299 -8 -8 -117 166 -166 268
-28 57 -48 93 -44 79 13 -49 115 -238 167 -310 82 -114 167 -243 164 -247 -2
-2 -34 25 -72 59 -72 66 -194 217 -226 280 -11 21 -22 38 -24 38 -8 0 24 -60
65 -120 114 -168 265 -305 455 -413 56 -31 31 -27 -60 10 -174 72 -343 204
-478 373 -28 35 -28 35 1 -10 49 -74 148 -176 240 -245 82 -62 234 -147 311
-173 60 -21 28 -22 -55 -2 -369 89 -650 359 -758 730 -14 47 -25 77 -25 68 -1
-9 11 -54 25 -100 92 -294 304 -538 585 -674 93 -44 49 -39 -81 9 -143 54
-241 118 -361 237 -80 79 -120 129 -162 200 -32 52 -57 90 -57 84 0 -16 93
-169 141 -230 88 -115 253 -245 383 -304 34 -15 100 -40 149 -55 48 -15 87
-29 87 -32 0 -8 -100 8 -185 29 -88 22 -211 76 -296 130 -113 72 -239 207
-309 331 -41 74 -49 74 -11 -1 41 -82 108 -167 198 -253 91 -86 164 -137 265
-183 40 -18 84 -38 98 -45 l25 -11 -28 5 c-15 3 -65 19 -111 36 -204 74 -386
223 -515 423 -37 56 -46 79 -49 127 -5 69 6 152 19 144 5 -3 6 1 3 9 -16 42
83 163 169 206 74 37 166 41 235 10z m-223 -706 c118 -120 294 -227 434 -264
68 -18 41 -22 -33 -5 -169 39 -304 113 -422 230 -61 61 -90 99 -117 156 -55
115 -54 132 4 44 29 -44 89 -117 134 -161z"/>
<path d="M15900 17185 c19 -7 42 -13 50 -13 8 0 -1 6 -20 13 -19 7 -42 13 -50
13 -8 0 1 -6 20 -13z"/>
<path d="M15980 17160 c8 -5 22 -9 30 -9 10 0 8 3 -5 9 -27 12 -43 12 -25 0z"/>
<path d="M15838 17033 c7 -3 16 -2 19 1 4 3 -2 6 -13 5 -11 0 -14 -3 -6 -6z"/>
<path d="M16630 16966 c0 -2 8 -10 18 -17 15 -13 16 -12 3 4 -13 16 -21 21
-21 13z"/>
<path d="M15710 16860 c14 -4 34 -8 45 -8 16 0 15 2 -5 8 -14 4 -34 8 -45 8
-16 0 -15 -2 5 -8z"/>
<path d="M15818 16833 c7 -3 16 -2 19 1 4 3 -2 6 -13 5 -11 0 -14 -3 -6 -6z"/>
<path d="M16540 16616 c0 -2 8 -10 18 -17 15 -13 16 -12 3 4 -13 16 -21 21
-21 13z"/>
<path d="M16660 16526 c0 -2 8 -10 18 -17 15 -13 16 -12 3 4 -13 16 -21 21
-21 13z"/>
<path d="M15908 16173 c12 -2 32 -2 45 0 12 2 2 4 -23 4 -25 0 -35 -2 -22 -4z"/>
<path d="M15858 16063 c12 -2 30 -2 40 0 9 3 -1 5 -23 4 -22 0 -30 -2 -17 -4z"/>
<path d="M17353 14740 c0 -30 2 -43 4 -27 2 15 2 39 0 55 -2 15 -4 2 -4 -28z"/>
<path d="M17342 14645 c0 -16 2 -22 5 -12 2 9 2 23 0 30 -3 6 -5 -1 -5 -18z"/>
<path d="M17332 14580 c0 -14 2 -19 5 -12 2 6 2 18 0 25 -3 6 -5 1 -5 -13z"/>
<path d="M10670 14017 c0 -2 15 -16 33 -33 l32 -29 -29 33 c-28 30 -36 37 -36
29z"/>
<path d="M8671 13684 c0 -11 3 -14 6 -6 3 7 2 16 -1 19 -3 4 -6 -2 -5 -13z"/>
<path d="M15785 13065 c-25 -12 -26 -14 -5 -9 28 7 60 23 45 23 -5 0 -23 -6
-40 -14z"/>
<path d="M13658 12703 c6 -2 18 -2 25 0 6 3 1 5 -13 5 -14 0 -19 -2 -12 -5z"/>
<path d="M14578 12663 c6 -2 18 -2 25 0 6 3 1 5 -13 5 -14 0 -19 -2 -12 -5z"/>
<path d="M11412 12635 c0 -16 2 -22 5 -12 2 9 2 23 0 30 -3 6 -5 -1 -5 -18z"/>
<path d="M14693 12653 c9 -2 25 -2 35 0 9 3 1 5 -18 5 -19 0 -27 -2 -17 -5z"/>
<path d="M14798 12643 c12 -2 30 -2 40 0 9 3 -1 5 -23 4 -22 0 -30 -2 -17 -4z"/>
<path d="M11651 12614 c0 -11 3 -14 6 -6 3 7 2 16 -1 19 -3 4 -6 -2 -5 -13z"/>
<path d="M11402 12570 c0 -14 2 -19 5 -12 2 6 2 18 0 25 -3 6 -5 1 -5 -13z"/>
<path d="M11642 12570 c0 -14 2 -19 5 -12 2 6 2 18 0 25 -3 6 -5 1 -5 -13z"/>
<path d="M11631 12524 c0 -11 3 -14 6 -6 3 7 2 16 -1 19 -3 4 -6 -2 -5 -13z"/>
<path d="M14268 12473 c7 -3 16 -2 19 1 4 3 -2 6 -13 5 -11 0 -14 -3 -6 -6z"/>
<path d="M14383 12463 c9 -2 23 -2 30 0 6 3 -1 5 -18 5 -16 0 -22 -2 -12 -5z"/>
<path d="M14493 12453 c9 -2 25 -2 35 0 9 3 1 5 -18 5 -19 0 -27 -2 -17 -5z"/>
<path d="M14598 12443 c12 -2 30 -2 40 0 9 3 -1 5 -23 4 -22 0 -30 -2 -17 -4z"/>
<path d="M12870 12320 c-8 -5 -10 -10 -5 -10 6 0 17 5 25 10 8 5 11 10 5 10
-5 0 -17 -5 -25 -10z"/>
<path d="M12239 12233 c-13 -16 -12 -17 4 -4 9 7 17 15 17 17 0 8 -8 3 -21
-13z"/>
<path d="M15368 12213 c7 -3 16 -2 19 1 4 3 -2 6 -13 5 -11 0 -14 -3 -6 -6z"/>
<path d="M11152 11035 c-17 -37 -14 -45 4 -12 9 16 14 31 11 33 -2 2 -9 -7
-15 -21z"/>
<path d="M11122 10965 c-17 -37 -14 -45 4 -12 9 16 14 31 11 33 -2 2 -9 -7
-15 -21z"/>
<path d="M11096 10905 c-9 -26 -7 -32 5 -12 6 10 9 21 6 23 -2 3 -7 -2 -11
-11z"/>
<path d="M11056 10795 c-9 -26 -7 -32 5 -12 6 10 9 21 6 23 -2 3 -7 -2 -11
-11z"/>
<path d="M15148 15993 c29 -2 74 -2 100 0 26 2 2 3 -53 3 -55 0 -76 -1 -47 -3z"/>
<path d="M15043 15983 c9 -2 23 -2 30 0 6 3 -1 5 -18 5 -16 0 -22 -2 -12 -5z"/>
<path d="M12383 15903 c9 -2 23 -2 30 0 6 3 -1 5 -18 5 -16 0 -22 -2 -12 -5z"/>
<path d="M11971 14864 c0 -11 3 -14 6 -6 3 7 2 16 -1 19 -3 4 -6 -2 -5 -13z"/>
<path d="M11961 14824 c0 -11 3 -14 6 -6 3 7 2 16 -1 19 -3 4 -6 -2 -5 -13z"/>
<path d="M11952 14770 c0 -14 2 -19 5 -12 2 6 2 18 0 25 -3 6 -5 1 -5 -13z"/>
<path d="M11944 14635 c0 -49 1 -71 3 -48 2 23 2 64 0 90 -2 26 -3 8 -3 -42z"/>
<path d="M11952 14490 c0 -14 2 -19 5 -12 2 6 2 18 0 25 -3 6 -5 1 -5 -13z"/>
<path d="M11961 14434 c0 -11 3 -14 6 -6 3 7 2 16 -1 19 -3 4 -6 -2 -5 -13z"/>
<path d="M15851 14584 c0 -11 3 -14 6 -6 3 7 2 16 -1 19 -3 4 -6 -2 -5 -13z"/>
<path d="M14761 14360 c0 -8 4 -24 9 -35 5 -13 9 -14 9 -5 0 8 -4 24 -9 35 -5
13 -9 14 -9 5z"/>
<path d="M14921 14184 c0 -11 3 -14 6 -6 3 7 2 16 -1 19 -3 4 -6 -2 -5 -13z"/>
<path d="M15051 14054 c0 -11 3 -14 6 -6 3 7 2 16 -1 19 -3 4 -6 -2 -5 -13z"/>
<path d="M9191 13434 c0 -11 3 -14 6 -6 3 7 2 16 -1 19 -3 4 -6 -2 -5 -13z"/>
<path d="M10766 9959 c-10 -72 -16 -133 -13 -135 2 -2 12 54 22 126 10 72 16
132 13 135 -2 2 -12 -54 -22 -126z"/>
<path d="M10742 9780 c0 -19 2 -27 5 -17 2 9 2 25 0 35 -3 9 -5 1 -5 -18z"/>
<path d="M10732 9710 c0 -19 2 -27 5 -17 2 9 2 25 0 35 -3 9 -5 1 -5 -18z"/>
<path d="M10715 9615 c-3 -31 -5 -59 -2 -61 3 -3 8 20 12 51 3 31 5 59 2 61
-3 3 -8 -20 -12 -51z"/>
<path d="M10702 9515 c0 -16 2 -22 5 -12 2 9 2 23 0 30 -3 6 -5 -1 -5 -18z"/>
<path d="M10676 9369 c-10 -61 -16 -113 -13 -115 2 -3 12 45 22 106 10 61 16
113 13 115 -2 3 -12 -45 -22 -106z"/>
<path d="M8540 10786 c0 -2 8 -10 18 -17 15 -13 16 -12 3 4 -13 16 -21 21 -21
13z"/>
<path d="M8720 10757 c0 -2 15 -16 33 -33 l32 -29 -29 33 c-28 30 -36 37 -36
29z"/>
<path d="M8790 10276 c0 -2 8 -10 18 -17 15 -13 16 -12 3 4 -13 16 -21 21 -21
13z"/>
<path d="M9900 9955 c0 -5 5 -17 10 -25 5 -8 10 -10 10 -5 0 6 -5 17 -10 25
-5 8 -10 11 -10 5z"/>
<path d="M9921 9908 c-1 -12 31 -89 35 -85 3 2 -4 24 -15 48 -11 24 -20 41
-20 37z"/>
<path d="M9961 9805 c0 -5 6 -21 14 -35 8 -14 14 -20 14 -15 0 6 -6 21 -14 35
-8 14 -14 21 -14 15z"/>
<path d="M10001 9715 c0 -5 8 -26 19 -45 11 -19 19 -30 19 -25 0 6 -8 26 -19
45 -11 19 -19 31 -19 25z"/>
<path d="M10111 9065 c0 -5 6 -21 14 -35 8 -14 14 -20 14 -15 0 6 -6 21 -14
35 -8 14 -14 21 -14 15z"/>
<path d="M14168 12223 c7 -3 16 -2 19 1 4 3 -2 6 -13 5 -11 0 -14 -3 -6 -6z"/>
<path d="M13418 12133 c6 -2 18 -2 25 0 6 3 1 5 -13 5 -14 0 -19 -2 -12 -5z"/>
<path d="M15791 9764 c0 -11 3 -14 6 -6 3 7 2 16 -1 19 -3 4 -6 -2 -5 -13z"/>
<path d="M14620 11680 c8 -5 20 -10 25 -10 6 0 3 5 -5 10 -8 5 -19 10 -25 10
-5 0 -3 -5 5 -10z"/>
<path d="M11974 10774 c-18 -14 -18 -15 4 -4 12 6 22 13 22 15 0 8 -5 6 -26
-11z"/>
<path d="M11594 10738 l-19 -23 23 19 c12 11 22 21 22 23 0 8 -8 2 -26 -19z"/>
<path d="M15212 10600 c0 -14 2 -19 5 -12 2 6 2 18 0 25 -3 6 -5 1 -5 -13z"/>
<path d="M11310 8670 c-6 -11 -8 -20 -6 -20 3 0 10 9 16 20 6 11 8 20 6 20 -3
0 -10 -9 -16 -20z"/>
<path d="M11285 8629 c-4 -6 -5 -12 -2 -15 2 -3 7 2 10 11 7 17 1 20 -8 4z"/>
<path d="M12463 8563 c26 -2 68 -2 95 0 26 2 4 3 -48 3 -52 0 -74 -1 -47 -3z"/>
<path d="M12643 8553 c9 -2 25 -2 35 0 9 3 1 5 -18 5 -19 0 -27 -2 -17 -5z"/>
<path d="M11994 8274 c-18 -14 -18 -14 6 -3 31 14 36 19 24 19 -6 0 -19 -7
-30 -16z"/>
<path d="M10796 8254 c-4 -14 -5 -28 -3 -31 3 -2 8 8 11 23 4 14 5 28 3 31 -3
2 -8 -8 -11 -23z"/>
<path d="M11041 8224 c0 -11 3 -14 6 -6 3 7 2 16 -1 19 -3 4 -6 -2 -5 -13z"/>
<path d="M11031 8164 c0 -11 3 -14 6 -6 3 7 2 16 -1 19 -3 4 -6 -2 -5 -13z"/>
<path d="M11021 8114 c0 -11 3 -14 6 -6 3 7 2 16 -1 19 -3 4 -6 -2 -5 -13z"/>
<path d="M11006 8044 c-4 -20 -5 -38 -3 -40 3 -3 8 11 11 32 4 20 5 38 3 40
-3 3 -8 -11 -11 -32z"/>
<path d="M14571 10674 c0 -11 3 -14 6 -6 3 7 2 16 -1 19 -3 4 -6 -2 -5 -13z"/>
<path d="M14651 10654 c0 -11 3 -14 6 -6 3 7 2 16 -1 19 -3 4 -6 -2 -5 -13z"/>
<path d="M10243 10920 c-1 -30 3 -82 7 -115 l7 -60 0 55 c1 30 -3 82 -7 115
l-7 60 0 -55z"/>
<path d="M10332 10730 c0 -14 2 -19 5 -12 2 6 2 18 0 25 -3 6 -5 1 -5 -13z"/>
<path d="M10263 10700 c0 -25 2 -35 4 -22 2 12 2 32 0 45 -2 12 -4 2 -4 -23z"/>
<path d="M10342 10680 c0 -14 2 -19 5 -12 2 6 2 18 0 25 -3 6 -5 1 -5 -13z"/>
<path d="M10352 10630 c0 -14 2 -19 5 -12 2 6 2 18 0 25 -3 6 -5 1 -5 -13z"/>
<path d="M10273 10605 c0 -22 2 -30 4 -17 2 12 2 30 0 40 -3 9 -5 -1 -4 -23z"/>
<path d="M10362 10580 c0 -14 2 -19 5 -12 2 6 2 18 0 25 -3 6 -5 1 -5 -13z"/>
<path d="M10282 10520 c0 -19 2 -27 5 -17 2 9 2 25 0 35 -3 9 -5 1 -5 -18z"/>
<path d="M10372 10520 c0 -14 2 -19 5 -12 2 6 2 18 0 25 -3 6 -5 1 -5 -13z"/>
<path d="M10381 10464 c0 -11 3 -14 6 -6 3 7 2 16 -1 19 -3 4 -6 -2 -5 -13z"/>
<path d="M10292 10440 c0 -14 2 -19 5 -12 2 6 2 18 0 25 -3 6 -5 1 -5 -13z"/>
<path d="M10391 10404 c0 -11 3 -14 6 -6 3 7 2 16 -1 19 -3 4 -6 -2 -5 -13z"/>
<path d="M10301 10364 c0 -11 3 -14 6 -6 3 7 2 16 -1 19 -3 4 -6 -2 -5 -13z"/>
<path d="M10311 10294 c0 -11 3 -14 6 -6 3 7 2 16 -1 19 -3 4 -6 -2 -5 -13z"/>
<path d="M10412 10290 c0 -14 2 -19 5 -12 2 6 2 18 0 25 -3 6 -5 1 -5 -13z"/>
<path d="M10431 10164 c0 -11 3 -14 6 -6 3 7 2 16 -1 19 -3 4 -6 -2 -5 -13z"/>
<path d="M6673 10013 c9 -2 23 -2 30 0 6 3 -1 5 -18 5 -16 0 -22 -2 -12 -5z"/>
<path d="M6950 9130 c-30 -16 -50 -29 -45 -29 6 0 35 13 65 29 30 16 51 29 45
29 -5 0 -35 -13 -65 -29z"/>
<path d="M4197 9029 c7 -7 15 -10 18 -7 3 3 -2 9 -12 12 -14 6 -15 5 -6 -5z"/>
<path d="M3878 8983 c12 -2 32 -2 45 0 12 2 2 4 -23 4 -25 0 -35 -2 -22 -4z"/>
<path d="M4008 8973 c7 -3 16 -2 19 1 4 3 -2 6 -13 5 -11 0 -14 -3 -6 -6z"/>
<path d="M3663 8873 c9 -2 23 -2 30 0 6 3 -1 5 -18 5 -16 0 -22 -2 -12 -5z"/>
<path d="M3598 8863 c7 -3 16 -2 19 1 4 3 -2 6 -13 5 -11 0 -14 -3 -6 -6z"/>
<path d="M3034 8588 l-19 -23 23 19 c21 18 27 26 19 26 -2 0 -12 -10 -23 -22z"/>
<path d="M3478 8443 c7 -3 16 -2 19 1 4 3 -2 6 -13 5 -11 0 -14 -3 -6 -6z"/>
<path d="M3998 8233 c7 -3 16 -2 19 1 4 3 -2 6 -13 5 -11 0 -14 -3 -6 -6z"/>
<path d="M3440 8180 c-18 -12 -2 -12 25 0 13 6 15 9 5 9 -8 0 -22 -4 -30 -9z"/>
<path d="M13702 7935 c0 -16 2 -22 5 -12 2 9 2 23 0 30 -3 6 -5 -1 -5 -18z"/>
<path d="M13691 7874 c0 -11 3 -14 6 -6 3 7 2 16 -1 19 -3 4 -6 -2 -5 -13z"/>
<path d="M13369 7533 c-13 -16 -12 -17 4 -4 9 7 17 15 17 17 0 8 -8 3 -21 -13z"/>
<path d="M12528 6943 c12 -2 30 -2 40 0 9 3 -1 5 -23 4 -22 0 -30 -2 -17 -4z"/>
<path d="M12953 6893 c9 -2 23 -2 30 0 6 3 -1 5 -18 5 -16 0 -22 -2 -12 -5z"/>
<path d="M12883 6883 c9 -2 25 -2 35 0 9 3 1 5 -18 5 -19 0 -27 -2 -17 -5z"/>
<path d="M12648 6873 c34 -2 90 -2 125 0 34 2 6 3 -63 3 -69 0 -97 -1 -62 -3z"/>
<path d="M12398 6863 c7 -3 16 -2 19 1 4 3 -2 6 -13 5 -11 0 -14 -3 -6 -6z"/>
<path d="M12488 6843 c7 -3 16 -2 19 1 4 3 -2 6 -13 5 -11 0 -14 -3 -6 -6z"/>
<path d="M12538 6833 c7 -3 16 -2 19 1 4 3 -2 6 -13 5 -11 0 -14 -3 -6 -6z"/>
<path d="M12583 6823 c9 -2 23 -2 30 0 6 3 -1 5 -18 5 -16 0 -22 -2 -12 -5z"/>
<path d="M12643 6813 c9 -2 23 -2 30 0 6 3 -1 5 -18 5 -16 0 -22 -2 -12 -5z"/>
<path d="M12708 6803 c12 -2 30 -2 40 0 9 3 -1 5 -23 4 -22 0 -30 -2 -17 -4z"/>
<path d="M12798 6793 c17 -2 47 -2 65 0 17 2 3 4 -33 4 -36 0 -50 -2 -32 -4z"/>
<path d="M9520 8285 c0 -5 5 -17 10 -25 5 -8 10 -10 10 -5 0 6 -5 17 -10 25
-5 8 -10 11 -10 5z"/>
<path d="M9511 8104 c0 -11 3 -14 6 -6 3 7 2 16 -1 19 -3 4 -6 -2 -5 -13z"/>
<path d="M9521 8064 c0 -11 3 -14 6 -6 3 7 2 16 -1 19 -3 4 -6 -2 -5 -13z"/>
<path d="M9531 8024 c0 -11 3 -14 6 -6 3 7 2 16 -1 19 -3 4 -6 -2 -5 -13z"/>
<path d="M9542 7980 c0 -14 2 -19 5 -12 2 6 2 18 0 25 -3 6 -5 1 -5 -13z"/>
<path d="M9412 6850 c0 -14 2 -19 5 -12 2 6 2 18 0 25 -3 6 -5 1 -5 -13z"/>
<path d="M9401 6804 c0 -11 3 -14 6 -6 3 7 2 16 -1 19 -3 4 -6 -2 -5 -13z"/>
<path d="M9391 6754 c0 -11 3 -14 6 -6 3 7 2 16 -1 19 -3 4 -6 -2 -5 -13z"/>
<path d="M12738 6653 c7 -3 16 -2 19 1 4 3 -2 6 -13 5 -11 0 -14 -3 -6 -6z"/>
<path d="M12788 6643 c7 -3 16 -2 19 1 4 3 -2 6 -13 5 -11 0 -14 -3 -6 -6z"/>
<path d="M12843 6633 c9 -2 23 -2 30 0 6 3 -1 5 -18 5 -16 0 -22 -2 -12 -5z"/>
<path d="M12923 6623 c15 -2 39 -2 55 0 15 2 2 4 -28 4 -30 0 -43 -2 -27 -4z"/>
<path d="M12230 6536 c0 -3 14 -12 30 -21 17 -9 30 -13 30 -11 0 3 -13 12 -30
21 -16 9 -30 13 -30 11z"/>
<path d="M12300 6495 c0 -7 81 -47 86 -43 2 3 -17 14 -41 26 -25 12 -45 20
-45 17z"/>
<path d="M12410 6441 c36 -26 271 -102 310 -100 8 0 -30 13 -85 28 -55 16
-122 37 -150 48 -82 33 -92 37 -75 24z"/>
<path d="M12648 6433 c7 -3 16 -2 19 1 4 3 -2 6 -13 5 -11 0 -14 -3 -6 -6z"/>
<path d="M12688 6423 c7 -3 16 -2 19 1 4 3 -2 6 -13 5 -11 0 -14 -3 -6 -6z"/>
<path d="M12728 6413 c6 -2 18 -2 25 0 6 3 1 5 -13 5 -14 0 -19 -2 -12 -5z"/>
<path d="M12788 6403 c6 -2 18 -2 25 0 6 3 1 5 -13 5 -14 0 -19 -2 -12 -5z"/>
<path d="M12858 6393 c12 -2 32 -2 45 0 12 2 2 4 -23 4 -25 0 -35 -2 -22 -4z"/>
<path d="M12753 6333 c9 -2 23 -2 30 0 6 3 -1 5 -18 5 -16 0 -22 -2 -12 -5z"/>
<path d="M12813 6323 c9 -2 25 -2 35 0 9 3 1 5 -18 5 -19 0 -27 -2 -17 -5z"/>
<path d="M11787 7925 c-20 -14 -37 -28 -37 -31 0 -2 18 8 40 22 35 23 47 34
37 34 -1 0 -19 -11 -40 -25z"/>
<path d="M10609 6583 c-13 -16 -12 -17 4 -4 9 7 17 15 17 17 0 8 -8 3 -21 -13z"/>
<path d="M10199 5943 c-13 -16 -12 -17 4 -4 16 13 21 21 13 21 -2 0 -10 -8
-17 -17z"/>
<path d="M4448 7023 c7 -3 16 -2 19 1 4 3 -2 6 -13 5 -11 0 -14 -3 -6 -6z"/>
<path d="M4348 6883 c7 -3 16 -2 19 1 4 3 -2 6 -13 5 -11 0 -14 -3 -6 -6z"/>
<path d="M4348 6783 c6 -2 18 -2 25 0 6 3 1 5 -13 5 -14 0 -19 -2 -12 -5z"/>
<path d="M3222 6295 c0 -16 2 -22 5 -12 2 9 2 23 0 30 -3 6 -5 -1 -5 -18z"/>
<path d="M3211 6244 c0 -11 3 -14 6 -6 3 7 2 16 -1 19 -3 4 -6 -2 -5 -13z"/>
<path d="M13342 5550 c0 -14 2 -19 5 -12 2 6 2 18 0 25 -3 6 -5 1 -5 -13z"/>
<path d="M13331 5484 c0 -11 3 -14 6 -6 3 7 2 16 -1 19 -3 4 -6 -2 -5 -13z"/>
<path d="M13604 5340 c0 -69 1 -97 3 -62 2 34 2 90 0 125 -2 34 -3 6 -3 -63z"/>
<path d="M13423 5390 c0 -36 2 -50 4 -32 2 17 2 47 0 65 -2 17 -4 3 -4 -33z"/>
<path d="M13693 5255 c0 -27 2 -38 4 -22 2 15 2 37 0 50 -2 12 -4 0 -4 -28z"/>
<path d="M13521 5224 c0 -11 3 -14 6 -6 3 7 2 16 -1 19 -3 4 -6 -2 -5 -13z"/>
<path d="M13611 5174 c0 -11 3 -14 6 -6 3 7 2 16 -1 19 -3 4 -6 -2 -5 -13z"/>
<path d="M13701 5174 c0 -11 3 -14 6 -6 3 7 2 16 -1 19 -3 4 -6 -2 -5 -13z"/>
<path d="M11370 6220 c-12 -16 -19 -30 -16 -30 2 0 14 14 26 30 12 17 19 30
16 30 -2 0 -14 -13 -26 -30z"/>
<path d="M11324 6158 l-19 -23 23 19 c21 18 27 26 19 26 -2 0 -12 -10 -23 -22z"/>
<path d="M7871 5874 c0 -11 3 -14 6 -6 3 7 2 16 -1 19 -3 4 -6 -2 -5 -13z"/>
<path d="M7881 5814 c0 -11 3 -14 6 -6 3 7 2 16 -1 19 -3 4 -6 -2 -5 -13z"/>
<path d="M5362 5580 c0 -14 2 -19 5 -12 2 6 2 18 0 25 -3 6 -5 1 -5 -13z"/>
<path d="M6741 5604 c0 -11 3 -14 6 -6 3 7 2 16 -1 19 -3 4 -6 -2 -5 -13z"/>
<path d="M6892 5490 c0 -14 2 -19 5 -12 2 6 2 18 0 25 -3 6 -5 1 -5 -13z"/>
<path d="M6664 5260 c0 -63 1 -89 3 -57 2 31 2 83 0 115 -2 31 -3 5 -3 -58z"/>
<path d="M11975 4660 c33 -33 62 -60 64 -60 3 0 -21 27 -54 60 -33 33 -62 60
-64 60 -3 0 21 -27 54 -60z"/>
<path d="M13110 4125 c0 -5 5 -17 10 -25 5 -8 10 -10 10 -5 0 6 -5 17 -10 25
-5 8 -10 11 -10 5z"/>
<path d="M13272 3955 c0 -16 2 -22 5 -12 2 9 2 23 0 30 -3 6 -5 -1 -5 -18z"/>
<path d="M13282 3890 c0 -19 2 -27 5 -17 2 9 2 25 0 35 -3 9 -5 1 -5 -18z"/>
<path d="M13191 3894 c0 -11 3 -14 6 -6 3 7 2 16 -1 19 -3 4 -6 -2 -5 -13z"/>
<path d="M13202 3850 c0 -14 2 -19 5 -12 2 6 2 18 0 25 -3 6 -5 1 -5 -13z"/>
<path d="M13294 3760 c0 -52 1 -74 3 -47 2 26 2 68 0 95 -2 26 -3 4 -3 -48z"/>
<path d="M13212 3800 c0 -14 2 -19 5 -12 2 6 2 18 0 25 -3 6 -5 1 -5 -13z"/>
<path d="M12872 3780 c0 -14 2 -19 5 -12 2 6 2 18 0 25 -3 6 -5 1 -5 -13z"/>
<path d="M12882 3725 c0 -16 2 -22 5 -12 2 9 2 23 0 30 -3 6 -5 -1 -5 -18z"/>
<path d="M13223 3675 c0 -38 2 -53 4 -32 2 20 2 52 0 70 -2 17 -4 1 -4 -38z"/>
<path d="M12893 3645 c0 -27 2 -38 4 -22 2 15 2 37 0 50 -2 12 -4 0 -4 -28z"/>
<path d="M13282 3630 c0 -14 2 -19 5 -12 2 6 2 18 0 25 -3 6 -5 1 -5 -13z"/>
<path d="M12653 3560 c0 -25 2 -35 4 -22 2 12 2 32 0 45 -2 12 -4 2 -4 -23z"/>
<path d="M13212 3560 c0 -14 2 -19 5 -12 2 6 2 18 0 25 -3 6 -5 1 -5 -13z"/>
<path d="M12642 3460 c0 -14 2 -19 5 -12 2 6 2 18 0 25 -3 6 -5 1 -5 -13z"/>
<path d="M12632 3400 c0 -14 2 -19 5 -12 2 6 2 18 0 25 -3 6 -5 1 -5 -13z"/>
<path d="M12621 3344 c0 -11 3 -14 6 -6 3 7 2 16 -1 19 -3 4 -6 -2 -5 -13z"/>
<path d="M12611 3304 c0 -11 3 -14 6 -6 3 7 2 16 -1 19 -3 4 -6 -2 -5 -13z"/>
<path d="M12601 3264 c0 -11 3 -14 6 -6 3 7 2 16 -1 19 -3 4 -6 -2 -5 -13z"/>
<path d="M10476 4692 c5 -5 41 -31 79 -58 94 -65 222 -190 292 -283 66 -87 85
-109 58 -66 -71 116 -230 281 -349 363 -41 29 -78 52 -82 52 -4 0 -4 -4 2 -8z"/>
<path d="M10160 4586 c0 -2 29 -25 65 -51 126 -90 299 -280 381 -421 14 -24
28 -44 31 -44 8 0 -45 88 -96 160 -62 88 -207 237 -295 304 -66 51 -86 63 -86
52z"/>
<path d="M10930 4230 c6 -11 13 -20 16 -20 2 0 0 9 -6 20 -6 11 -13 20 -16 20
-2 0 0 -9 6 -20z"/>
<path d="M10972 4155 c12 -24 23 -43 26 -41 4 5 -36 86 -43 86 -3 0 5 -20 17
-45z"/>
<path d="M10657 4025 c9 -19 18 -33 21 -31 4 5 -26 66 -33 66 -3 0 3 -16 12
-35z"/>
<path d="M10122 4095 c12 -24 23 -43 26 -41 4 5 -36 86 -43 86 -3 0 5 -20 17
-45z"/>
<path d="M10281 3974 c0 -11 3 -14 6 -6 3 7 2 16 -1 19 -3 4 -6 -2 -5 -13z"/>
<path d="M10291 3934 c0 -11 3 -14 6 -6 3 7 2 16 -1 19 -3 4 -6 -2 -5 -13z"/>
<path d="M10032 3275 c0 -16 2 -22 5 -12 2 9 2 23 0 30 -3 6 -5 -1 -5 -18z"/>
<path d="M9970 3035 c0 -5 5 -17 10 -25 5 -8 10 -10 10 -5 0 6 -5 17 -10 25
-5 8 -10 11 -10 5z"/>
<path d="M10220 3021 c0 -6 4 -13 10 -16 6 -3 7 1 4 9 -7 18 -14 21 -14 7z"/>
<path d="M10253 2965 c9 -16 23 -39 32 -50 9 -11 7 -2 -6 20 -27 49 -47 72
-26 30z"/>
<path d="M9891 2975 c0 -5 6 -21 14 -35 8 -14 14 -20 14 -15 0 6 -6 21 -14 35
-8 14 -14 21 -14 15z"/>
</g>
</svg>
