<?xml version="1.0" standalone="no"?>
<!DOCTYPE svg PUBLIC "-//W3C//DTD SVG 20010904//EN"
 "http://www.w3.org/TR/2001/REC-SVG-20010904/DTD/svg10.dtd">
<svg version="1.0" xmlns="http://www.w3.org/2000/svg"
  viewBox="0 0 781.000000 1747.000000"
 preserveAspectRatio="xMidYMid meet">

<g transform="translate(0.000000,1747.000000) scale(0.100000,-0.100000)"
fill="#000000" stroke="none">
<path d="M4230 17450 c-236 -50 -359 -119 -535 -301 -123 -127 -182 -208 -239
-330 -83 -176 -106 -282 -106 -495 0 -130 24 -228 89 -359 96 -194 211 -294
421 -367 92 -32 100 -33 255 -32 146 0 167 2 240 27 108 36 186 84 273 170 97
96 132 150 203 320 33 78 69 151 80 162 17 17 33 20 107 20 161 -1 236 -60
332 -260 44 -93 89 -201 104 -251 7 -21 5 -22 -78 -17 -84 6 -85 5 -114 -24
-42 -41 -53 -87 -59 -238 -5 -124 -4 -134 20 -195 28 -68 27 -80 -4 -80 -68 0
-171 -102 -269 -267 -85 -142 -124 -241 -150 -382 -12 -64 -31 -150 -43 -191
-15 -55 -21 -105 -21 -186 -1 -110 -1 -111 41 -195 28 -57 86 -139 178 -254
222 -277 256 -349 256 -540 0 -303 -117 -715 -304 -1070 l-52 -100 -127 -90
c-333 -238 -575 -484 -801 -815 -239 -353 -448 -708 -645 -1099 -230 -455
-295 -608 -383 -911 -13 -43 -14 -38 -20 120 -21 476 -36 603 -106 915 -115
517 -336 1128 -584 1615 -147 290 -248 438 -649 950 -245 313 -345 459 -445
651 -49 95 -98 177 -107 183 -28 17 -71 -4 -91 -46 -10 -20 -22 -77 -27 -125
-15 -143 -12 -639 5 -792 8 -74 12 -156 9 -181 -8 -62 11 -149 52 -239 39 -84
40 -106 18 -252 -23 -153 -7 -250 56 -338 11 -16 20 -32 20 -35 0 -3 -18 -15
-40 -26 -48 -25 -84 -82 -104 -170 -22 -91 -20 -179 9 -359 13 -86 29 -212 35
-281 20 -229 57 -360 136 -488 57 -92 166 -203 289 -295 120 -89 184 -121 244
-119 91 2 244 77 289 142 15 22 32 38 37 37 6 -2 33 -37 61 -80 53 -79 98
-195 109 -282 l7 -50 -109 -72 c-59 -39 -209 -133 -332 -208 -375 -228 -456
-290 -691 -525 -315 -314 -400 -468 -466 -840 -23 -123 -25 -453 -5 -555 32
-162 102 -324 216 -500 177 -276 342 -427 534 -492 69 -23 87 -25 206 -21 109
3 137 7 176 26 58 28 140 106 167 158 l20 39 15 -35 c27 -63 57 -196 67 -297
5 -54 14 -532 20 -1063 8 -731 14 -1005 25 -1129 9 -90 13 -166 10 -169 -3 -4
-24 16 -47 43 -126 153 -325 320 -582 490 -296 195 -515 316 -913 504 -273
129 -310 143 -354 139 -49 -4 -62 -49 -56 -198 6 -161 24 -199 195 -404 113
-136 168 -226 326 -537 79 -156 158 -309 176 -339 96 -164 230 -292 463 -442
387 -250 493 -323 550 -381 168 -167 388 -509 899 -1395 349 -605 639 -1034
835 -1233 88 -90 148 -124 201 -115 46 7 62 24 69 73 9 71 -75 248 -259 543
-178 286 -323 554 -421 780 -182 418 -361 1060 -462 1652 -69 407 -79 531 -79
948 0 492 24 784 90 1090 72 339 158 499 340 636 133 100 208 132 359 154 72
10 139 22 150 26 11 3 43 30 71 58 29 28 70 67 93 87 35 31 41 41 41 76 0 22
-11 61 -25 89 -14 27 -25 51 -25 53 0 2 21 1 46 -3 78 -10 141 -53 269 -181
129 -129 167 -186 220 -335 72 -204 144 -241 622 -319 404 -66 511 -70 689
-25 132 33 320 124 462 224 94 66 261 227 369 355 97 115 148 212 189 359 18
63 40 117 62 149 140 203 144 407 12 604 l-21 31 93 63 c131 89 259 218 298
301 103 220 67 503 -82 651 -29 28 -84 70 -122 91 -79 46 -91 62 -100 131 -14
106 -34 152 -93 215 -31 34 -85 82 -120 107 -37 26 -65 54 -67 66 -2 12 -9 65
-15 117 -31 280 -109 423 -315 582 -50 39 -94 76 -98 83 -11 19 5 29 147 84
172 67 213 92 336 204 127 115 390 375 485 478 38 41 97 94 130 116 88 60 181
158 302 318 191 253 238 341 282 528 39 166 75 573 68 773 -5 134 -13 159
-114 336 l-55 97 54 138 c68 169 85 225 131 423 66 288 122 687 147 1052 11
166 11 178 -7 214 -16 33 -24 39 -55 42 -32 3 -41 -2 -70 -36 -19 -22 -53 -75
-77 -117 -112 -200 -203 -332 -364 -526 -76 -92 -95 -109 -118 -109 -43 0 -60
10 -60 35 0 12 27 107 61 211 92 289 91 280 96 550 6 260 1 299 -43 413 -58
147 -134 223 -279 285 l-80 33 2 44 c0 24 16 94 34 154 30 104 32 120 37 313
l4 204 -37 76 c-29 59 -57 96 -119 157 -98 97 -179 141 -286 154 -40 5 -76 13
-80 18 -4 4 -18 51 -30 103 -66 276 -164 437 -412 675 -249 240 -443 346 -795
436 -199 51 -280 59 -568 58 -192 0 -257 -4 -325 -19z m541 -130 c336 -33 685
-155 873 -304 81 -65 200 -175 194 -181 -5 -5 -212 44 -329 79 -198 57 -558
62 -717 10 -80 -26 -204 -92 -264 -138 -36 -29 -74 -73 -105 -121 -78 -124
-136 -198 -170 -218 -29 -16 -34 -17 -60 -3 -41 21 -100 85 -118 128 -20 50
-20 196 1 273 27 99 28 105 12 105 -44 0 -97 -136 -98 -246 0 -145 30 -232
110 -314 64 -66 143 -114 237 -146 68 -23 89 -26 168 -21 54 3 115 13 154 26
35 12 66 20 69 17 9 -9 -48 -158 -96 -251 -62 -119 -147 -206 -257 -260 l-80
-40 -140 -3 c-165 -4 -253 11 -353 60 -127 62 -246 209 -293 360 -15 48 -19
92 -19 224 0 163 0 165 37 277 l37 112 8 -155 c5 -85 15 -178 23 -205 35 -122
240 -358 285 -330 20 12 9 29 -69 110 -134 139 -176 255 -169 460 3 111 6 125
36 187 61 126 185 233 345 299 103 43 128 48 298 58 171 11 191 16 187 40 -7
34 -57 46 -198 45 -146 -1 -240 -20 -348 -69 -80 -37 -44 -4 41 38 105 51 218
82 372 100 66 8 299 6 396 -3z m589 -450 c25 -6 55 -12 68 -15 30 -7 28 -21
-5 -30 -107 -26 -230 -92 -423 -228 -268 -189 -366 -232 -530 -232 -68 0 -113
5 -128 13 l-23 13 26 31 c14 17 50 72 80 123 92 155 179 236 318 292 115 47
166 53 377 48 107 -3 215 -10 240 -15z m399 -161 c42 -9 62 -22 114 -72 35
-34 75 -78 89 -97 42 -57 148 -257 200 -380 56 -129 75 -155 123 -164 45 -9
78 -42 116 -117 51 -103 62 -114 148 -148 89 -37 105 -51 151 -138 27 -53 31
-68 25 -105 -13 -84 -57 -244 -92 -338 -52 -137 -84 -231 -90 -261 -7 -36 16
-78 102 -184 192 -240 247 -376 248 -610 0 -212 -52 -408 -190 -713 -36 -81
-78 -181 -93 -222 -31 -84 -35 -87 -145 -89 -137 -2 -262 -58 -355 -158 -85
-91 -95 -129 -85 -337 15 -309 13 -393 -14 -466 -40 -110 -124 -280 -195 -394
-153 -247 -273 -391 -881 -1051 -702 -763 -741 -809 -965 -1110 -357 -480
-776 -1132 -1055 -1637 -33 -59 -61 -106 -63 -104 -4 5 78 232 140 386 65 161
289 619 408 836 164 298 449 770 662 1099 265 409 600 1056 835 1609 31 72 99
228 153 346 171 376 264 691 279 937 10 173 -1 374 -25 433 -24 63 -113 190
-254 365 -133 166 -178 245 -187 326 -6 62 5 78 70 99 50 16 54 30 72 214 8
83 21 177 30 208 46 178 142 318 216 318 43 0 107 -70 162 -177 114 -222 118
-308 46 -976 -30 -280 -31 -343 -6 -334 23 7 45 94 133 517 l89 425 -2 289
c-2 244 0 286 11 270 11 -15 17 -16 29 -6 48 40 21 239 -82 606 -96 340 -192
561 -291 669 -73 79 -124 108 -235 132 -44 10 -83 21 -88 24 -8 8 98 87 207
156 85 54 199 105 270 120 76 17 199 19 265 4z m739 -699 c100 -47 177 -136
218 -252 15 -43 7 -49 -22 -16 -10 11 -55 38 -99 58 -92 44 -114 64 -148 140
-13 30 -31 61 -40 69 -49 40 7 41 91 1z m-1090 -508 c30 -56 100 -219 128
-296 l14 -39 -32 27 c-18 14 -61 48 -95 74 -35 26 -69 61 -78 79 -16 32 -21
153 -9 212 6 30 8 31 24 16 10 -9 31 -42 48 -73z m186 -172 c3 -14 -5 -1 -19
29 -14 29 -25 56 -25 60 1 11 37 -63 44 -89z m-30 -366 c3 -9 6 -23 6 -32 -1
-12 -5 -10 -15 8 -8 14 -14 28 -15 33 0 13 18 7 24 -9z m1291 -68 c126 -53
181 -179 191 -440 11 -272 -16 -440 -121 -750 -31 -91 -55 -177 -53 -193 2
-20 14 -33 42 -49 l39 -22 -84 -56 c-45 -30 -84 -54 -85 -53 -2 1 20 68 47
147 81 235 118 389 129 542 24 332 -23 465 -269 758 -95 112 -98 118 -69 130
34 15 186 5 233 -14z m-1229 -290 c-4 -39 -9 -86 -13 -104 -10 -58 -26 -19
-31 73 -4 69 -1 90 13 111 16 25 18 26 27 9 6 -10 8 -47 4 -89z m-686 -137
c-7 -75 -17 -133 -26 -146 -17 -27 -28 -30 -20 -5 3 9 12 70 21 134 15 113 23
153 31 145 3 -2 -1 -60 -6 -128z m2655 -815 c-39 -324 -101 -636 -166 -840
-33 -103 -120 -316 -136 -334 -3 -3 -2 22 2 55 8 63 38 173 100 370 34 107 38
132 39 230 1 61 -3 155 -8 210 l-8 100 67 130 c86 166 116 218 121 212 3 -3
-2 -62 -11 -133z m-138 54 c-55 -95 -99 -178 -109 -210 -7 -20 -12 -132 -13
-283 l-1 -250 -49 -180 -48 -180 -1 -185 c-1 -125 -6 -200 -15 -230 -8 -25
-14 -83 -15 -130 -1 -75 4 -101 44 -225 43 -134 45 -145 45 -260 0 -117 -1
-122 -33 -180 -18 -33 -68 -103 -112 -155 -96 -114 -146 -207 -155 -287 -3
-32 -13 -77 -21 -100 -22 -61 -146 -173 -276 -250 -138 -82 -152 -94 -144
-121 11 -33 50 -28 146 19 193 93 309 208 409 406 17 34 31 69 31 78 0 18 -21
20 -38 3 -24 -24 -23 2 3 54 14 29 63 97 109 150 97 113 139 188 162 284 28
121 13 219 -74 465 -17 48 -34 115 -38 149 -6 57 -5 62 15 67 25 6 26 11 5 34
-15 17 -14 23 12 89 15 39 32 74 37 77 15 9 48 -37 103 -141 l49 -91 -1 -125
c-2 -207 -50 -644 -84 -769 -32 -115 -78 -193 -250 -421 -134 -177 -181 -225
-264 -265 -78 -37 -106 -63 -185 -172 -29 -40 -107 -122 -174 -183 -67 -60
-181 -166 -254 -234 -146 -138 -193 -166 -351 -212 -86 -24 -103 -26 -250 -22
-168 4 -183 8 -240 61 -18 17 -62 47 -99 67 -76 40 -102 70 -110 126 -8 61 18
84 190 168 193 95 266 123 463 181 248 73 294 94 249 111 -33 13 -452 -87
-635 -151 -229 -81 -480 -228 -735 -431 -127 -101 -374 -346 -489 -484 -210
-251 -446 -600 -821 -1215 -257 -419 -420 -728 -539 -1014 -71 -173 -86 -224
-66 -236 27 -17 71 51 231 356 104 198 164 297 273 449 34 48 80 117 101 153
22 37 42 67 45 67 3 0 11 -28 17 -62 24 -124 104 -192 221 -186 34 2 62 3 62
1 0 -1 -55 -44 -121 -94 -176 -133 -316 -255 -465 -404 -223 -226 -394 -475
-571 -832 -52 -106 -99 -193 -103 -193 -22 0 -103 -236 -135 -395 -13 -66 -40
-187 -59 -270 -42 -178 -88 -444 -112 -645 -14 -114 -18 -232 -18 -555 0 -367
2 -430 22 -595 115 -942 333 -1798 618 -2424 35 -77 60 -135 55 -130 -5 5
-122 202 -261 438 -486 828 -660 1094 -829 1269 -85 89 -150 136 -406 297
-267 167 -351 228 -441 316 -100 99 -165 202 -339 544 -172 338 -204 389 -344
559 -120 145 -129 162 -138 241 -5 50 -3 60 10 60 17 0 49 -37 87 -100 34 -56
101 -98 304 -192 94 -43 212 -103 263 -133 93 -56 132 -69 140 -48 8 21 -227
183 -389 268 -151 80 -111 67 62 -20 353 -177 584 -316 840 -509 166 -124 298
-254 372 -366 258 -391 310 -510 425 -965 93 -372 182 -631 221 -643 21 -6 14
38 -33 197 -49 169 -82 302 -145 580 -23 102 -69 268 -101 369 -50 153 -62
206 -74 319 -9 74 -25 204 -37 287 -20 141 -21 201 -25 933 l-4 783 26 152
c46 267 57 559 29 758 -24 171 -15 325 30 519 19 84 42 213 51 285 21 171 55
403 61 421 3 8 26 26 50 40 124 73 153 279 85 605 -35 171 -54 342 -49 460 l3
85 87 50 c48 27 99 60 113 73 40 35 58 87 51 144 -6 46 -5 51 32 96 55 65 65
88 64 146 -2 116 -71 239 -159 282 -57 28 -98 28 -156 -3 -16 -8 -34 -12 -40
-10 -7 2 -21 29 -31 58 -62 176 -189 352 -331 460 -57 43 -105 65 -105 47 0
-6 47 -59 104 -118 110 -115 168 -201 212 -315 37 -99 64 -196 58 -207 -10
-16 -20 3 -44 82 -39 133 -104 244 -200 340 -86 86 -184 150 -231 150 -26 0
-69 -36 -69 -59 0 -9 14 -45 30 -80 17 -36 28 -71 25 -78 -2 -8 -38 -30 -79
-49 -64 -29 -79 -32 -103 -23 -41 15 -151 127 -179 182 -42 81 -42 128 -1 227
42 103 51 157 37 230 -13 73 -32 96 -121 150 -41 25 -74 52 -74 60 0 9 18 20
45 27 62 16 305 16 350 -1 63 -22 153 -89 241 -178 86 -89 109 -103 109 -70 0
60 -179 240 -295 298 l-74 36 -183 -4 c-101 -3 -195 -10 -211 -16 -17 -7 -35
-28 -49 -56 -28 -59 -19 -77 69 -136 100 -69 113 -88 113 -172 0 -58 -5 -83
-30 -134 -21 -46 -31 -85 -36 -143 -4 -45 -10 -81 -13 -81 -12 0 -86 110 -123
182 -47 89 -64 169 -83 378 -8 91 -24 211 -35 268 -22 112 -26 273 -10 334 15
53 37 62 119 48 106 -18 132 -16 153 10 35 44 25 65 -91 185 -130 134 -139
154 -122 266 7 41 24 116 38 166 l27 93 -32 42 c-77 103 -87 127 -84 206 1 39
3 91 3 115 1 23 -6 67 -16 97 -13 43 -18 108 -22 295 -3 135 -1 255 4 275 l9
35 18 -69 c28 -112 49 -145 215 -339 12 -14 17 -57 21 -200 l7 -182 36 -81
c56 -125 61 -161 42 -305 -19 -138 -16 -195 20 -333 34 -130 144 -464 155
-471 22 -14 16 29 -39 256 -91 376 -87 339 -60 526 27 191 24 217 -42 371 -42
95 -43 100 -49 242 -4 80 -10 154 -14 165 -7 17 -6 18 6 5 78 -91 438 -569
502 -668 199 -305 399 -720 565 -1174 64 -177 143 -426 139 -440 -2 -4 -62 81
-134 190 -192 288 -300 428 -457 589 -125 128 -167 162 -167 134 0 -5 35 -48
77 -96 198 -223 371 -466 568 -795 153 -255 215 -401 254 -595 45 -223 54
-328 58 -700 7 -494 -11 -691 -92 -985 -64 -236 -88 -409 -105 -738 -22 -423
-28 -483 -65 -624 -98 -369 -117 -458 -169 -768 -58 -352 -80 -525 -74 -600 2
-37 7 -46 25 -48 28 -4 34 17 74 263 61 379 173 855 254 1080 160 443 304 762
513 1136 213 382 571 960 793 1281 323 468 559 746 1434 1693 518 560 518 561
767 985 113 191 123 214 153 314 50 175 78 423 56 504 -22 80 -36 51 -66 -138
-23 -140 -30 -149 -46 -59 -21 117 -18 226 8 274 31 57 79 99 153 134 85 40
160 48 232 27 108 -31 127 -20 154 88 25 102 63 150 173 224 171 114 360 278
496 431 44 50 82 90 83 91 2 0 -7 -19 -21 -42z m-1062 -728 c-3 -5 -14 -10
-23 -10 -31 0 -158 -78 -195 -119 -43 -48 -67 -121 -67 -207 0 -123 31 -417
47 -452 16 -33 15 -36 -16 -101 -94 -190 -342 -587 -422 -673 -52 -56 -39 -29
70 140 177 276 279 487 301 622 9 54 10 115 4 220 -24 387 2 472 168 554 66
34 147 49 133 26z m-1689 -1302 c-24 -51 -96 -198 -160 -327 -97 -192 -123
-236 -148 -250 -51 -27 -131 -95 -156 -131 -21 -31 -46 -105 -87 -252 -22 -81
-58 -117 -178 -178 -240 -123 -337 -222 -448 -454 -53 -112 -139 -356 -139
-398 0 -30 10 -40 28 -30 6 4 34 67 61 140 129 341 270 531 478 647 48 27 107
62 131 78 24 16 45 27 47 25 4 -4 -51 -93 -435 -712 -253 -409 -411 -690 -594
-1056 -169 -340 -259 -553 -372 -880 -36 -107 -70 -199 -75 -204 -19 -21 30
209 81 374 15 52 56 196 90 320 75 275 175 614 228 775 153 465 443 1042 830
1650 280 440 457 647 750 875 57 44 105 80 107 80 2 0 -15 -42 -39 -92z m-407
-829 c-44 -89 -83 -159 -86 -156 -6 6 42 157 64 201 13 26 90 116 99 116 2 0
-32 -72 -77 -161z m77 -48 c-15 -28 -28 -51 -31 -51 -3 0 7 25 22 55 15 30 29
53 31 51 2 -2 -8 -27 -22 -55z m742 -944 c33 -59 88 -113 163 -158 59 -37 79
-71 79 -137 0 -67 50 -163 141 -272 39 -47 80 -103 91 -124 38 -75 12 -192
-78 -347 -45 -78 -202 -238 -263 -269 -42 -21 -45 -21 -57 -5 -27 36 -57 198
-58 305 -1 91 2 111 22 147 30 58 29 96 -5 123 -44 35 -111 24 -230 -37 -90
-46 -107 -51 -206 -61 -60 -7 -140 -23 -180 -37 -40 -13 -142 -38 -227 -55
-85 -17 -177 -37 -204 -45 -27 -8 -51 -13 -53 -11 -5 5 156 201 291 356 202
232 518 528 681 638 33 23 61 41 62 41 0 1 14 -23 31 -52z m-2608 -274 c60
-94 48 -158 -36 -203 -26 -13 -53 -34 -61 -47 -14 -21 -13 -27 12 -78 l28 -55
-23 -25 c-13 -14 -48 -37 -78 -52 -53 -26 -65 -27 -331 -39 -299 -14 -385 -26
-502 -74 -40 -17 -74 -28 -76 -26 -2 2 80 55 184 117 103 61 289 177 413 257
324 209 424 272 433 272 4 0 21 -21 37 -47z m3142 -68 c40 -36 124 -102 186
-146 189 -135 235 -193 274 -344 9 -33 19 -78 23 -100 l6 -40 -26 33 c-26 31
-55 43 -55 22 0 -6 10 -48 21 -93 24 -89 28 -188 14 -348 -6 -80 -5 -105 10
-150 40 -120 89 -167 259 -249 149 -72 183 -100 229 -188 74 -140 73 -279 -3
-364 -47 -54 -115 -89 -330 -171 -194 -73 -210 -81 -193 -98 17 -17 107 2 288
63 177 59 213 76 270 129 53 49 81 107 96 196 25 158 -56 344 -195 445 -46 33
-30 37 54 12 80 -24 159 -106 190 -198 19 -60 22 -83 18 -185 -5 -145 -28
-201 -120 -297 -79 -83 -162 -138 -313 -209 l-119 -56 90 -87 c118 -113 139
-155 139 -277 0 -78 -4 -97 -27 -146 -16 -31 -37 -64 -47 -74 -19 -17 -20 -16
-25 6 -3 13 -13 73 -22 133 -30 213 -89 351 -194 456 -98 98 -207 144 -445
186 -114 21 -532 30 -681 15 -335 -34 -633 -135 -1099 -372 -708 -359 -1026
-637 -1233 -1079 -89 -189 -218 -622 -276 -925 -84 -440 -108 -1107 -55 -1555
59 -498 191 -1106 346 -1585 115 -356 363 -904 541 -1195 9 -14 11 -20 4 -15
-26 24 -181 295 -271 475 -296 594 -479 1219 -635 2170 -67 406 -68 425 -64
1055 5 611 4 600 78 960 108 527 320 1052 582 1443 167 248 462 541 803 795
412 308 1055 675 1420 811 162 60 202 83 291 169 157 148 284 394 284 549 0
39 3 48 18 48 9 0 66 -27 126 -60 60 -34 118 -62 129 -63 75 -8 -48 119 -206
213 -149 89 -293 236 -321 328 -7 21 -5 22 43 22 48 0 54 -3 123 -65z m-3642
-531 c0 -3 -11 -19 -25 -36 -14 -16 -28 -40 -31 -54 -9 -37 35 -116 126 -224
153 -183 188 -268 197 -480 6 -153 -6 -244 -37 -260 -10 -6 -40 -11 -67 -11
-106 -3 -112 -8 -186 -159 -29 -61 -31 -73 -35 -197 -3 -105 2 -172 23 -323
14 -105 25 -196 23 -202 -2 -6 -24 26 -47 72 -77 147 -180 289 -300 413 -60
61 -91 81 -91 58 0 -5 37 -58 81 -118 107 -142 158 -221 219 -344 92 -182 152
-410 170 -639 16 -217 13 -241 -15 -105 -25 122 -74 240 -145 354 -143 227
-174 256 -306 288 -38 9 -79 25 -92 37 -30 27 -170 311 -218 444 -38 104 -54
125 -54 73 0 -95 58 -279 142 -450 55 -111 60 -126 47 -145 -51 -79 -60 -132
-37 -207 15 -52 70 -115 113 -129 66 -22 72 5 15 74 -44 53 -47 64 -25 106 33
64 83 75 153 34 53 -31 81 -86 82 -157 0 -61 -21 -107 -71 -152 -48 -43 -88
-46 -162 -9 -105 53 -149 116 -172 246 -8 45 -22 92 -30 105 -23 34 -76 70
-204 138 -115 61 -211 136 -236 186 -11 20 -15 61 -15 141 0 150 12 219 55
305 47 95 118 158 277 247 281 157 361 219 437 335 51 80 75 151 75 226 0 51
-8 80 -56 190 -63 146 -88 217 -88 245 0 35 69 65 182 79 75 10 328 14 328 5z
m2968 -141 c7 -54 26 -159 42 -233 17 -74 30 -146 30 -161 0 -36 -31 -61 -144
-115 -204 -97 -558 -292 -751 -414 -49 -31 -105 -65 -122 -74 l-32 -16 19 33
c27 46 58 139 66 197 7 55 -6 102 -42 151 l-25 34 91 6 c79 5 96 10 132 35 79
56 83 67 104 318 5 62 9 72 45 111 41 44 139 101 223 129 27 9 100 25 163 36
75 13 123 26 141 39 15 11 32 21 38 21 5 0 15 -43 22 -97z m-2724 55 c33 -47
7 -178 -36 -186 -19 -4 -153 81 -161 103 -3 7 0 18 6 24 15 11 158 81 169 81
4 0 14 -10 22 -22z m-911 -10 c3 -10 12 -10 41 0 21 8 39 12 40 10 1 -1 10
-29 20 -62 10 -32 38 -102 63 -155 57 -122 83 -195 83 -236 0 -60 -57 -153
-154 -249 -79 -79 -108 -100 -221 -160 -197 -106 -299 -172 -343 -221 -84 -96
-142 -253 -142 -387 0 -56 -3 -68 -16 -68 -27 0 -11 -72 35 -166 51 -102 112
-159 241 -229 193 -103 213 -126 229 -253 10 -82 28 -119 83 -174 l41 -41 -42
6 c-185 24 -525 431 -637 762 l-38 110 0 235 c0 325 24 452 122 645 60 117
141 223 277 364 114 118 291 281 305 281 5 0 10 -6 13 -12z m3066 -75 c-122
-93 -130 -110 -139 -291 -6 -125 -8 -134 -32 -159 -31 -30 -111 -42 -299 -42
-92 -1 -119 2 -129 14 -20 24 -3 96 42 186 33 67 61 102 148 190 95 95 113
109 163 124 68 20 159 32 251 34 l68 1 -73 -57z m-2283 -1200 c-10 -165 -36
-396 -45 -406 -5 -5 -19 20 -31 55 -25 70 -38 245 -25 343 7 63 51 125 87 125
20 0 20 -4 14 -117z m629 -205 c-23 -73 -126 -288 -137 -288 -5 0 -6 27 -3 63
7 67 77 232 118 275 32 35 43 12 22 -50z m2940 -97 c226 -39 247 -49 377 -170
56 -52 86 -90 107 -134 62 -127 113 -357 115 -514 1 -83 -1 -94 -23 -117 -32
-34 -83 -49 -144 -43 -41 4 -56 10 -80 37 -26 29 -29 38 -26 94 4 113 1 126
-36 163 -34 34 -37 35 -98 31 -43 -3 -88 -16 -147 -42 -95 -42 -118 -45 -206
-22 -117 30 -216 12 -339 -62 -81 -49 -192 -156 -222 -217 -14 -27 -43 -118
-64 -201 -40 -160 -58 -205 -111 -267 -44 -52 -26 -66 35 -27 67 43 103 97
122 188 56 270 136 392 313 479 90 45 167 53 263 29 81 -20 112 -13 239 53 54
28 108 51 120 51 11 0 32 -11 45 -24 22 -22 23 -29 18 -99 -8 -101 2 -141 43
-187 46 -51 105 -65 189 -46 33 7 68 16 78 21 56 24 -32 -106 -185 -275 -189
-209 -345 -325 -545 -405 -222 -90 -348 -96 -719 -34 -270 44 -410 76 -472
108 -42 22 -72 52 -36 36 92 -38 140 -31 231 36 53 39 73 49 93 44 74 -18 86
-4 39 49 -44 50 -71 48 -152 -14 -82 -62 -106 -72 -148 -60 -56 16 -76 37
-170 177 -70 104 -122 167 -213 259 -106 106 -132 126 -211 165 l-90 44 -161
3 c-159 4 -221 -4 -258 -31 -32 -23 -10 -53 101 -139 105 -81 114 -97 55 -98
-38 0 -63 -19 -83 -65 -17 -38 -25 -45 -57 -50 -178 -28 -246 -52 -371 -135
-47 -32 -120 -87 -161 -124 -41 -36 -76 -62 -78 -57 -2 6 15 54 38 108 181
426 458 707 985 999 179 99 520 267 661 327 196 82 466 153 675 176 144 16
526 6 664 -18z"/>
<path d="M1056 11301 c-5 -8 4 -45 50 -211 9 -33 14 -87 12 -137 -1 -45 1 -86
5 -90 4 -4 20 5 35 20 25 26 27 33 26 110 -2 119 -70 317 -110 317 -7 0 -15
-4 -18 -9z"/>
<path d="M992 4338 c3 -7 13 -15 22 -16 12 -3 17 1 14 10 -3 7 -13 15 -22 16
-12 3 -17 -1 -14 -10z"/>
<path d="M1070 4274 c0 -9 22 -55 49 -103 50 -87 72 -137 156 -356 56 -143
105 -231 186 -327 33 -39 57 -73 54 -76 -7 -8 -247 112 -323 161 -86 56 -161
125 -218 198 -77 101 -104 66 -32 -41 89 -134 154 -183 478 -360 228 -124 291
-168 361 -252 65 -78 98 -136 269 -468 157 -305 188 -360 207 -360 9 0 7 15
-8 52 -42 108 -165 371 -270 578 -120 238 -148 278 -376 528 -144 157 -171
200 -252 406 -29 71 -75 174 -103 227 -72 138 -178 253 -178 193z"/>
</g>
</svg>
