<?xml version="1.0" standalone="no"?>
<!DOCTYPE svg PUBLIC "-//W3C//DTD SVG 20010904//EN"
 "http://www.w3.org/TR/2001/REC-SVG-20010904/DTD/svg10.dtd">
<svg version="1.0" xmlns="http://www.w3.org/2000/svg"
 width="644.000000pt" height="1240.000000pt" viewBox="0 0 644.000000 1240.000000"
 preserveAspectRatio="xMidYMid meet">

<g transform="translate(0.000000,1240.000000) scale(0.100000,-0.100000)"
fill="#000000" stroke="none">
<path d="M4685 12381 c-95 -34 -151 -70 -212 -134 -92 -99 -108 -139 -108
-272 1 -88 4 -117 19 -145 38 -70 118 -182 182 -253 104 -114 210 -260 251
-344 32 -67 37 -90 41 -163 3 -74 -1 -101 -31 -206 -19 -66 -44 -138 -55 -160
-11 -22 -25 -59 -32 -84 -17 -64 -33 -90 -91 -154 -35 -39 -58 -56 -76 -56
-30 0 -27 16 27 115 51 94 64 167 57 318 -7 157 -32 249 -94 340 -123 183
-307 266 -461 208 -96 -37 -148 -82 -188 -164 -56 -118 -46 -202 36 -282 22
-22 40 -43 40 -48 0 -5 -26 -39 -58 -76 -54 -61 -164 -195 -290 -350 -29 -36
-69 -94 -88 -128 -20 -35 -38 -63 -40 -63 -3 0 -13 20 -24 44 -36 85 -187 141
-224 84 -8 -13 -19 -56 -25 -96 -19 -122 -70 -234 -216 -468 -11 -18 -54 -89
-95 -158 -75 -128 -93 -144 -121 -109 -18 21 -71 43 -107 43 -50 0 -63 -25
-107 -207 -13 -55 -37 -133 -53 -174 -17 -41 -35 -95 -42 -119 -6 -25 -26 -70
-44 -100 -75 -124 -88 -159 -81 -215 5 -40 0 -69 -20 -133 -38 -121 -55 -107
-57 48 -1 47 2 99 6 115 18 73 -55 87 -74 15 -11 -39 -54 -100 -71 -100 -15 0
-10 44 7 68 10 15 19 64 25 148 14 174 12 170 101 178 89 8 151 37 192 89 29
36 31 45 31 119 l0 79 -51 49 c-59 56 -124 80 -219 80 -103 0 -240 -46 -339
-113 -22 -16 -53 -27 -71 -27 -54 0 -175 -97 -279 -223 -69 -84 -127 -193
-150 -279 -7 -29 -21 -75 -30 -103 -8 -27 -20 -87 -26 -133 -5 -46 -12 -87
-15 -92 -3 -6 -28 2 -55 16 -92 48 -113 23 -146 -172 -24 -140 -25 -167 -22
-439 l3 -290 47 -99 c39 -81 48 -109 48 -154 0 -46 -2 -53 -14 -43 -14 12 -46
84 -82 186 -27 77 -101 145 -201 183 -155 60 -244 68 -283 27 -20 -22 -22 -31
-17 -82 3 -32 18 -116 32 -187 29 -142 28 -146 -32 -146 -73 0 -76 -45 -17
-228 43 -132 122 -286 199 -387 168 -221 198 -346 230 -955 12 -233 20 -321
40 -419 32 -152 74 -265 119 -314 38 -41 121 -196 111 -206 -4 -3 -32 8 -62
24 -52 28 -60 37 -102 120 -62 122 -97 169 -204 282 -102 107 -200 185 -222
176 -8 -3 -19 -24 -25 -47 -30 -119 -52 -145 -92 -113 -22 16 -58 78 -58 98 0
16 69 52 114 60 37 7 60 55 64 132 3 63 0 79 -25 127 -38 75 -89 103 -187 103
-48 0 -82 -5 -106 -18 -107 -54 -205 -159 -261 -279 -27 -57 -32 -83 -41 -203
-7 -97 -15 -148 -28 -173 -21 -41 -40 -135 -40 -194 1 -101 49 -246 121 -357
16 -25 29 -50 29 -56 0 -5 -22 -22 -49 -36 -60 -33 -121 -99 -121 -131 0 -27
14 -41 50 -49 56 -14 164 -131 306 -333 41 -59 74 -112 74 -119 0 -7 -20 -16
-47 -20 -71 -10 -133 -47 -196 -114 -64 -70 -80 -115 -53 -156 9 -14 29 -27
44 -30 54 -12 98 -41 174 -117 125 -125 245 -328 264 -446 l6 -40 -49 -26
c-60 -30 -153 -128 -153 -160 0 -18 9 -25 42 -35 80 -23 162 -79 333 -224 213
-180 531 -497 881 -877 271 -294 786 -813 919 -926 232 -197 446 -343 665
-453 237 -120 431 -182 712 -228 165 -27 188 -28 513 -28 311 0 351 2 470 23
296 53 586 146 750 239 357 204 536 401 645 708 74 210 85 272 85 480 0 205
-12 282 -59 408 -67 179 -226 337 -414 413 -165 66 -385 98 -522 75 -124 -20
-322 -136 -402 -233 -107 -131 -143 -227 -143 -383 1 -155 18 -240 66 -319 21
-36 39 -70 39 -75 0 -25 -38 -7 -90 42 -30 29 -93 75 -140 102 -284 161 -463
309 -572 475 -110 166 -148 283 -155 475 -4 126 -2 150 21 237 29 114 102 292
148 363 44 67 80 72 145 21 26 -20 55 -36 65 -36 28 0 58 73 58 143 0 61 -14
100 -49 131 -29 26 -27 39 15 76 50 43 87 58 167 65 l69 7 19 41 c22 49 24
125 5 170 -18 44 -93 110 -149 132 -38 14 -67 17 -159 13 -100 -4 -122 -8
-185 -36 -128 -57 -125 -42 15 83 127 115 229 170 337 186 175 26 160 20 163
62 4 50 -29 119 -85 175 -24 23 -43 47 -43 51 0 5 36 39 80 75 78 65 226 229
287 317 111 161 184 396 168 537 -9 73 -32 168 -51 205 -21 40 -83 106 -115
123 -43 22 -127 18 -179 -8 -33 -17 -51 -35 -67 -68 -31 -59 -29 -105 7 -196
l31 -76 -21 -33 c-31 -50 -93 -75 -189 -75 -44 0 -92 5 -108 11 -15 5 -58 41
-95 80 -48 50 -84 78 -133 101 -87 40 -94 37 -130 -64 -23 -66 -83 -122 -184
-171 -77 -37 -103 -58 -245 -196 l-159 -155 -17 52 c-18 53 -90 185 -141 255
-16 22 -29 47 -29 55 0 16 69 174 79 182 4 3 36 50 73 105 129 195 321 401
396 426 24 8 83 10 184 7 125 -5 149 -3 160 10 19 22 15 106 -8 147 l-19 36
26 23 c14 12 83 57 155 101 153 93 260 176 268 210 9 33 -6 64 -51 106 -84 81
-186 105 -309 74 -38 -10 -103 -18 -144 -19 -74 -1 -75 -1 -78 25 -6 48 32 76
124 92 44 9 160 45 257 81 209 78 259 83 372 40 124 -46 147 -26 143 128 -3
91 -5 98 -34 135 -17 21 -45 47 -62 58 -17 11 -31 23 -32 27 0 4 34 32 75 63
41 31 99 83 128 116 66 72 191 280 298 494 74 147 81 166 86 235 11 151 -42
241 -163 276 -140 40 -287 -30 -331 -160 -12 -33 -12 -51 -2 -104 15 -76 11
-82 -69 -82 -42 0 -56 4 -70 22 -52 66 -149 159 -187 179 -64 34 -92 22 -122
-56 -27 -70 -70 -117 -176 -191 -43 -30 -119 -93 -170 -139 -87 -80 -186 -145
-221 -145 -25 0 -20 42 11 86 15 21 41 60 59 86 17 25 35 63 39 85 4 21 23 66
42 101 25 45 36 79 40 122 l6 60 81 73 c44 39 137 125 205 190 94 89 141 126
195 152 92 45 225 80 384 100 177 23 186 26 190 56 4 35 -58 90 -132 118 -31
11 -61 21 -66 21 -32 0 4 26 113 81 147 75 223 125 300 198 110 105 176 230
178 342 2 56 -1 63 -32 95 -51 52 -95 59 -189 29 -19 -6 -10 8 40 61 167 177
277 370 329 576 46 179 58 199 191 311 32 27 32 28 15 47 -20 22 -102 50 -146
50 -58 0 -58 -2 -52 158 4 127 2 161 -18 252 -15 72 -24 157 -28 270 l-6 165
-55 3 c-30 2 -73 -2 -94 -9 -30 -10 -40 -11 -43 -2 -5 15 -78 129 -130 203
-58 84 -230 249 -322 310 -78 52 -82 56 -76 85 18 88 27 176 21 207 -4 25 -21
49 -51 77 -41 38 -49 41 -97 40 -29 0 -75 -8 -103 -18z m144 -117 c14 -31 8
-42 -35 -60 -50 -21 -116 -18 -148 7 -30 24 -46 18 -46 -18 0 -18 -14 -38 -45
-65 -25 -22 -45 -47 -45 -57 0 -10 18 -26 47 -40 26 -13 72 -39 103 -59 62
-41 280 -249 280 -267 0 -6 -11 -17 -25 -23 -28 -13 -32 -30 -10 -39 19 -7
191 -235 268 -354 108 -168 157 -294 157 -403 l0 -62 -73 73 c-40 40 -78 73
-83 73 -5 0 -29 -58 -53 -129 -125 -372 -290 -585 -647 -838 -135 -96 -197
-129 -274 -147 -36 -8 -73 -18 -83 -22 -13 -5 -4 18 33 77 84 133 151 302 185
469 10 46 37 118 70 185 61 125 103 250 112 336 8 77 -9 78 -44 2 l-26 -58 -7
40 c-4 22 -11 61 -14 88 -8 54 -24 60 -48 17 -16 -28 -62 -50 -75 -36 -4 3 3
16 14 29 27 28 45 95 37 135 -9 45 -58 98 -120 128 -47 23 -63 26 -114 21 -33
-3 -60 -3 -60 -1 0 3 19 14 43 24 61 28 132 26 197 -7 74 -37 170 -134 204
-207 78 -166 68 -422 -24 -653 -45 -112 -43 -117 45 -85 82 29 161 86 209 152
53 72 132 232 175 353 96 275 53 415 -237 767 -168 204 -230 320 -217 406 19
132 180 274 311 274 45 0 52 -3 63 -26z m-9 -103 c0 -37 -115 -68 -215 -59
-40 4 -40 4 -10 11 17 5 44 14 60 22 17 8 57 18 90 23 33 5 63 10 68 11 4 0 7
-3 7 -8z m-77 -156 c76 -30 210 -116 300 -190 84 -71 218 -243 279 -360 41
-78 42 -82 49 -215 7 -140 15 -168 71 -277 27 -50 48 -74 48 -54 0 5 -7 38
-16 72 -23 91 -16 267 14 333 12 27 25 47 28 44 3 -3 9 -68 14 -145 5 -78 18
-179 30 -229 17 -68 21 -109 18 -174 -8 -142 -33 -196 -232 -494 -245 -367
-387 -527 -604 -686 -185 -134 -223 -159 -558 -361 -584 -351 -772 -485 -963
-685 -112 -118 -261 -310 -318 -411 -19 -35 -37 -62 -39 -60 -3 2 5 33 16 68
18 58 18 65 4 76 -13 10 -14 17 -5 45 20 61 98 181 179 278 133 159 250 254
627 510 258 176 375 262 415 305 l25 27 -22 15 c-25 16 -30 33 -12 33 22 0
131 73 188 126 60 55 141 168 141 196 0 8 -16 23 -35 34 -21 11 -34 25 -33 34
2 8 25 31 52 50 310 222 457 357 561 517 77 119 164 297 195 401 12 39 25 74
30 77 14 9 55 -32 82 -82 18 -34 28 -71 33 -126 4 -43 11 -75 16 -71 21 13 50
88 61 158 10 68 9 83 -12 168 -13 52 -44 135 -70 188 -71 140 -236 386 -318
473 -44 46 -23 50 34 7 21 -16 45 -30 52 -30 40 -1 -231 293 -362 392 -87 66
-80 70 37 23z m-520 -791 c50 -25 76 -54 87 -95 14 -51 5 -81 -41 -137 -22
-25 -39 -50 -39 -54 0 -11 122 -10 140 2 23 15 28 -6 22 -96 -4 -72 -3 -84 11
-84 8 0 25 12 37 28 l21 27 -6 -30 c-3 -16 -25 -73 -48 -125 -36 -82 -42 -91
-45 -65 -2 17 -8 36 -14 43 -16 18 -91 15 -150 -8 -28 -11 -54 -17 -56 -15 -3
2 5 28 18 57 26 63 39 212 21 246 -6 11 -37 35 -69 52 -98 53 -132 92 -132
151 0 43 30 86 74 105 43 18 130 17 169 -2z m-127 -390 c24 -57 1 -64 -29 -10
-24 44 -25 46 -6 46 14 0 25 -12 35 -36z m-96 -264 c-16 -64 -122 -280 -220
-450 -112 -193 -219 -350 -506 -745 -132 -181 -302 -418 -379 -525 -127 -179
-520 -704 -579 -775 l-25 -30 -1 33 c0 51 18 84 155 277 326 458 581 826 653
943 142 229 245 438 326 663 34 93 57 137 122 229 90 129 298 393 339 430 l27
25 -7 -25 c-44 -152 -226 -517 -350 -701 -53 -78 -94 -144 -91 -146 7 -8 126
140 191 237 73 110 243 437 307 590 l43 105 3 -45 c2 -24 -2 -65 -8 -90z m300
30 c0 -16 -367 -561 -506 -752 -278 -380 -998 -1320 -1162 -1518 -79 -94 -196
-211 -227 -227 -24 -13 -28 -13 -19 -2 70 88 389 522 574 779 129 179 315 435
413 570 254 346 407 585 567 884 70 129 107 169 222 239 60 36 138 52 138 27z
m-15 -265 c-29 -119 -59 -195 -122 -318 -52 -101 -111 -169 -418 -487 -393
-407 -438 -460 -833 -967 -250 -322 -279 -355 -324 -372 -26 -10 -40 0 -19 14
16 9 355 435 563 705 418 545 831 1106 998 1358 l175 264 3 -47 c2 -27 -8 -90
-23 -150z m1354 178 c-8 -10 -31 -38 -51 -62 -22 -25 -90 -151 -163 -298 -149
-304 -146 -301 -416 -482 -331 -223 -486 -351 -569 -470 l-24 -34 45 6 c24 3
114 33 199 65 194 75 428 151 499 162 43 8 65 19 110 58 90 79 134 93 150 48
20 -52 -31 -164 -118 -258 -127 -138 -348 -249 -835 -418 -99 -34 -193 -68
-210 -76 l-31 -13 35 0 c19 -1 94 6 165 14 72 8 155 14 185 14 53 -1 54 -1 20
-10 -228 -62 -346 -107 -481 -185 -86 -50 -218 -179 -283 -278 -48 -73 -149
-272 -178 -348 -11 -32 -24 -58 -27 -58 -4 0 -37 34 -75 76 -38 42 -80 81 -93
87 -21 9 -29 6 -74 -39 -49 -49 -123 -177 -149 -259 -25 -78 -26 -79 -70 -44
-24 19 -45 29 -55 25 -18 -7 -72 -119 -120 -252 -52 -141 -103 -363 -125 -544
-11 -91 -45 -338 -75 -550 -61 -431 -108 -801 -126 -993 -11 -124 -6 -697 7
-824 l6 -53 -75 0 c-42 0 -82 -3 -91 -6 -47 -18 15 -337 96 -499 17 -32 61
-104 98 -160 l68 -100 77 -270 c135 -477 206 -685 317 -930 219 -482 492 -762
984 -1008 228 -114 432 -185 764 -267 84 -20 141 -41 175 -62 150 -94 214
-113 355 -105 200 11 350 62 442 150 57 55 73 86 99 184 23 91 24 159 4 236
-18 70 -48 118 -111 178 -62 58 -104 83 -178 104 -169 49 -327 -31 -414 -207
-97 -198 -55 -358 119 -453 56 -30 161 -44 232 -31 86 16 137 119 137 275 l0
83 -39 39 c-35 36 -43 39 -92 39 -104 -1 -179 -57 -179 -134 0 -78 63 -140
136 -134 46 4 48 21 4 28 -19 4 -45 12 -57 18 -25 14 -53 61 -53 90 0 52 97
110 163 98 19 -3 45 -18 58 -32 22 -23 24 -34 24 -112 0 -73 -4 -96 -26 -143
-33 -71 -65 -84 -179 -76 -112 7 -187 51 -233 136 -81 148 34 419 202 476 65
22 159 19 228 -7 82 -30 182 -131 213 -213 42 -114 26 -268 -40 -367 -75 -112
-272 -188 -493 -188 -115 0 -177 17 -259 73 -74 51 -107 105 -159 261 -33 97
-34 107 -34 251 l0 151 39 79 c79 160 247 283 420 308 91 13 249 -1 366 -34
213 -58 374 -197 448 -385 54 -135 70 -386 38 -574 -18 -111 -25 -125 -81
-188 -152 -169 -426 -304 -710 -349 -124 -19 -424 -13 -560 12 -328 60 -637
166 -962 329 -374 187 -577 328 -813 565 -257 258 -443 528 -650 940 -104 208
-143 305 -186 461 -38 138 -44 202 -64 715 -11 287 -21 360 -69 495 -30 87
-46 187 -77 490 -21 212 -32 1313 -15 1585 21 332 47 468 117 607 34 67 75
116 239 288 116 121 148 163 185 242 40 86 54 162 37 198 -13 25 -12 29 21 60
37 36 77 113 88 173 18 101 226 431 376 598 222 245 377 359 1038 759 184 112
391 240 460 285 69 45 139 89 156 98 54 28 187 131 260 203 74 72 182 211 352
454 112 160 124 175 166 208 34 26 43 28 25 5z m-54 -193 c-22 -110 -45 -172
-101 -281 -86 -166 -226 -334 -344 -412 -31 -20 -107 -59 -170 -85 -63 -27
-134 -59 -157 -71 -24 -12 -43 -19 -43 -17 0 3 71 53 157 111 212 144 335 237
377 287 41 47 105 168 167 313 43 103 120 248 127 241 2 -3 -4 -41 -13 -86z
m-2175 -40 c24 -48 27 -140 5 -223 -59 -225 -231 -572 -437 -880 -152 -227
-676 -967 -685 -967 -9 0 6 77 52 267 53 215 105 364 173 493 27 52 65 138 83
190 35 100 48 101 30 4 -6 -32 -11 -69 -11 -83 1 -21 2 -23 10 -10 17 29 77
291 85 367 7 77 17 95 34 63 33 -62 -12 -240 -175 -685 -24 -66 -44 -124 -44
-129 0 -20 42 29 87 101 52 83 172 346 232 509 71 195 123 296 271 528 42 66
96 154 121 195 33 56 45 70 47 54 4 -27 -74 -262 -133 -404 -26 -61 -45 -113
-42 -116 8 -8 50 68 116 212 90 198 131 349 131 484 0 83 17 94 50 30z m957
-473 c14 -14 13 -20 -11 -60 -59 -102 -171 -187 -336 -255 -146 -60 -209 -97
-330 -196 -106 -86 -372 -342 -558 -538 -56 -59 -102 -105 -102 -103 0 9 297
375 369 455 121 134 561 591 605 628 84 70 153 93 265 88 57 -3 88 -9 98 -19z
m868 -257 c7 -11 -12 -51 -29 -62 -19 -13 -66 -9 -66 5 0 13 66 67 82 67 4 0
10 -4 13 -10z m-2916 -86 c41 -8 93 -57 85 -78 -8 -22 -35 -20 -129 9 -44 14
-87 25 -94 25 -51 0 -180 -147 -206 -235 -9 -29 -19 -133 -25 -245 -16 -310
-36 -499 -75 -725 -13 -77 -29 -198 -35 -270 -9 -116 -30 -524 -30 -599 0 -25
-2 -27 -16 -15 -49 40 -55 125 -28 414 11 117 18 365 23 790 5 380 12 630 18
645 30 73 151 198 233 240 84 44 193 61 279 44z m1731 -34 c23 -16 -26 -54
-349 -275 -157 -108 -307 -212 -333 -231 -89 -67 -48 -16 113 140 288 279 498
414 569 366z m840 -20 c19 -19 18 -50 -2 -50 -6 0 -52 -16 -102 -36 -117 -47
-141 -53 -156 -44 -37 23 23 70 160 127 68 28 75 28 100 3z m-2622 -50 c29
-11 75 -20 103 -20 42 0 50 -3 47 -17 -2 -10 -19 -28 -38 -41 -31 -21 -43 -23
-100 -18 -36 3 -77 8 -92 12 -20 5 -29 1 -37 -14 -30 -56 -43 -146 -51 -354
-6 -155 -13 -226 -23 -245 -21 -41 -120 -203 -122 -200 -1 1 4 92 11 202 38
572 32 543 134 647 74 76 85 79 168 48z m-513 -347 c14 -432 0 -971 -34 -1403
-17 -212 -34 -405 -37 -430 -11 -74 -21 -80 -29 -15 -26 225 -92 577 -145 770
-69 251 -74 286 -74 490 0 140 5 214 17 280 33 171 69 276 122 360 44 69 143
185 160 185 10 0 14 -51 20 -237z m483 -650 c-3 -374 -4 -389 -24 -428 -28
-52 -84 -208 -93 -260 -6 -34 -10 -40 -32 -40 -55 -1 -140 -94 -205 -223 l-34
-67 0 86 c0 216 36 658 66 809 16 78 77 220 137 313 38 59 163 197 179 197 5
0 8 -152 6 -387z m2322 325 c-81 -31 -113 -54 -240 -173 -182 -170 -255 -230
-330 -269 -39 -21 -70 -42 -70 -47 0 -6 11 -25 25 -43 31 -41 32 -74 1 -134
-13 -26 -38 -94 -56 -152 -33 -106 -85 -228 -113 -264 -14 -19 -15 -16 -22 34
-8 60 -26 118 -52 166 -16 30 -15 35 6 95 32 89 131 292 178 364 132 201 290
314 573 409 116 39 194 50 100 14z m-3262 -242 c35 -74 161 -452 191 -571 33
-133 88 -411 113 -570 22 -146 23 -166 20 -750 -4 -655 5 -886 44 -1235 30
-270 44 -359 90 -593 34 -167 35 -179 20 -202 -36 -54 -64 -16 -100 136 -28
119 -49 175 -78 206 -24 25 -47 165 -102 603 -53 425 -67 589 -73 865 l-5 250
38 220 c34 192 39 239 38 375 0 127 -3 166 -20 215 -32 98 -60 85 -167 -75
l-37 -55 0 74 c0 92 -25 299 -51 416 -26 120 -25 315 1 522 27 209 31 233 40
233 5 0 22 -29 38 -64z m1547 -122 c-17 -43 -30 -60 -45 -62 -20 -3 -20 -2 6
40 32 51 58 87 61 84 1 -1 -8 -29 -22 -62z m-105 -63 c-6 -12 -15 -21 -21 -21
-5 0 -2 11 7 25 20 30 31 26 14 -4z m100 -58 c-1 -10 -19 -81 -41 -158 -22
-77 -44 -162 -48 -190 -7 -43 -15 -56 -61 -97 -36 -32 -84 -60 -150 -88 -142
-60 -215 -106 -298 -189 -84 -83 -87 -83 -98 19 -14 127 56 368 130 448 88 95
269 198 436 246 104 30 130 32 130 9z m2394 -33 c44 -39 60 -87 51 -154 -10
-76 -48 -158 -185 -400 -93 -162 -141 -236 -188 -287 -35 -38 -69 -69 -75 -69
-6 0 3 15 19 33 79 85 173 239 198 324 14 49 14 54 -2 62 -22 11 -169 -2 -322
-29 -360 -65 -522 -133 -720 -303 -50 -44 -93 -77 -94 -75 -2 1 1 37 5 78 8
69 6 104 -8 153 -7 26 -41 16 -125 -39 -115 -74 -198 -169 -198 -226 0 -40 12
-35 40 19 31 58 106 134 177 180 77 49 87 42 81 -55 -6 -96 -37 -173 -140
-343 -166 -274 -363 -661 -453 -889 -75 -190 -231 -658 -247 -743 -12 -65 -20
-78 -33 -57 -10 16 -43 12 -55 -7 -15 -25 -8 22 47 302 159 815 315 1191 631
1517 97 100 119 142 46 90 -56 -41 -172 -169 -249 -277 -64 -89 -175 -298
-235 -445 -18 -46 -28 -61 -24 -40 9 50 87 258 128 344 39 81 134 229 189 294
40 47 45 62 23 62 -22 0 -83 -74 -157 -189 -37 -58 -74 -115 -82 -126 -10 -13
-1 39 24 150 62 270 137 648 159 800 22 154 27 175 40 175 14 0 109 -112 146
-173 70 -114 90 -215 58 -292 -31 -75 -22 -73 196 37 268 135 451 251 549 348
42 41 81 84 88 95 14 25 38 13 71 -35 16 -25 22 -47 22 -90 0 -66 5 -70 80
-70 88 0 204 21 256 45 92 44 106 81 60 149 -32 48 -33 92 -3 128 31 39 74 58
129 58 39 0 54 -6 82 -30z m-1824 -427 c-41 -247 -85 -458 -175 -842 -118
-507 -227 -1038 -330 -1604 -9 -48 -28 -120 -44 -160 -16 -39 -31 -79 -34 -87
-27 -76 33 675 108 1356 71 633 112 887 181 1114 24 76 27 82 36 60 5 -14 14
-137 20 -273 7 -137 15 -242 19 -234 23 41 68 310 84 501 12 138 54 258 127
363 32 47 33 47 36 21 2 -16 -11 -112 -28 -215z m-2564 -33 c160 -55 277 -204
334 -424 25 -97 75 -438 95 -646 18 -188 80 -757 95 -870 6 -41 23 -192 40
-335 16 -143 38 -327 50 -410 11 -82 19 -172 19 -200 l-1 -50 -14 43 c-16 52
-51 327 -59 467 -18 302 -123 1103 -181 1380 -25 120 -84 335 -100 368 -38 74
-108 158 -193 230 -72 62 -96 90 -121 140 -28 57 -95 295 -86 304 9 9 72 -57
123 -129 30 -43 59 -80 64 -83 26 -17 -51 118 -113 198 -34 43 -31 44 48 17z
m2384 -106 c8 -35 -4 -241 -15 -252 -2 -2 -6 27 -10 65 -3 37 -10 101 -16 141
-5 40 -9 85 -9 100 l0 26 21 -20 c11 -12 24 -39 29 -60z m-563 -4 c-3 -22 -23
-77 -46 -124 -35 -72 -60 -104 -175 -224 -206 -215 -249 -277 -295 -427 -60
-193 -76 -439 -76 -1160 0 -658 12 -879 71 -1325 6 -45 5 -46 -35 -68 -22 -13
-45 -21 -50 -18 -5 3 -9 43 -9 88 -1 46 -8 110 -17 142 -18 68 -71 172 -91
180 -7 3 -36 -13 -63 -34 -28 -22 -52 -40 -55 -40 -5 0 -39 148 -61 265 -20
111 -61 416 -74 555 -41 439 -41 1309 0 1600 14 100 59 290 68 290 5 0 26 -39
49 -87 33 -73 41 -84 45 -63 3 14 10 54 17 89 17 97 56 190 105 256 56 75 93
104 106 84 20 -32 29 -90 29 -196 0 -62 3 -113 8 -113 4 0 23 26 42 57 100
162 320 312 459 313 l54 0 -6 -40z m2293 20 c-77 -61 -216 -149 -380 -240
-331 -184 -422 -252 -631 -468 -110 -114 -146 -159 -202 -253 -71 -120 -431
-832 -583 -1152 -49 -103 -90 -183 -92 -178 -5 15 50 215 109 397 115 356 218
601 381 908 202 380 277 496 398 616 200 199 371 284 700 350 174 35 188 37
265 38 l60 2 -25 -20z m50 -27 c0 -20 -87 -164 -131 -220 -94 -118 -244 -224
-415 -294 -54 -22 -124 -54 -156 -71 -107 -57 -307 -264 -426 -441 -102 -150
-357 -607 -597 -1067 -76 -146 -140 -267 -142 -270 -8 -9 -38 18 -41 37 -6 40
588 1241 696 1408 165 253 408 457 811 680 89 50 213 125 274 167 111 76 127
85 127 71z m-1966 -203 c-71 -298 -143 -872 -226 -1800 -29 -320 -32 -392 -33
-723 0 -202 -3 -367 -6 -367 -38 0 -52 201 -46 640 5 358 9 399 117 1170 38
272 78 563 89 646 11 83 32 204 46 270 28 122 74 279 80 272 2 -2 -7 -51 -21
-108z m-1590 -132 c10 -90 7 -222 -9 -304 -59 -319 -68 -438 -55 -728 15 -316
69 -812 134 -1226 23 -148 24 -182 5 -163 -9 9 -80 550 -129 988 -112 994
-134 1221 -124 1279 7 47 50 166 65 181 6 6 7 -24 3 -81 -7 -97 3 -244 16
-244 4 0 11 24 15 53 21 170 48 297 64 297 5 0 11 -24 15 -52z m-564 -8 c9 -5
50 -44 91 -88 112 -116 147 -202 203 -487 52 -264 130 -806 150 -1035 3 -36
20 -207 36 -380 17 -173 30 -330 28 -350 -3 -32 -5 -28 -30 45 -61 179 -96
395 -128 800 -33 404 -60 652 -85 780 -69 345 -160 521 -360 694 l-50 43 65
-7 c35 -3 71 -10 80 -15z m-60 -108 c242 -242 314 -513 370 -1397 12 -184 18
-236 56 -484 14 -90 23 -165 21 -168 -8 -7 -67 158 -103 287 -39 139 -47 213
-64 605 -20 460 -68 649 -220 850 -33 44 -75 109 -94 145 -39 74 -106 236
-106 257 0 25 58 -14 140 -95z m3922 -129 c34 -16 52 -32 67 -61 11 -22 18
-42 15 -45 -3 -3 -30 10 -60 28 -83 50 -167 76 -269 82 -133 9 -77 23 75 20
101 -3 134 -7 172 -24z m-62 -75 c41 -19 84 -43 95 -52 19 -16 19 -17 -15 -9
-19 4 -73 8 -120 7 -81 0 -93 -4 -250 -67 -181 -72 -263 -97 -324 -97 l-41 0
90 90 c152 153 193 171 380 167 103 -3 115 -5 185 -39z m-715 -369 c-8 -41
-15 -77 -15 -81 0 -10 -99 -60 -111 -56 -5 2 22 52 61 112 39 60 73 106 76
104 3 -3 -2 -39 -11 -79z m421 -114 c51 -16 103 -49 93 -60 -7 -7 -68 -17
-274 -45 -82 -12 -222 -37 -309 -56 -87 -19 -161 -32 -164 -30 -8 9 56 88 92
112 45 31 72 41 176 69 106 29 307 34 386 10z m29 -131 c-39 -30 -269 -167
-310 -185 -23 -10 -69 -25 -101 -34 -110 -28 -384 -57 -384 -40 0 2 16 33 35
69 41 73 53 80 205 116 133 31 476 88 530 89 42 0 44 -1 25 -15z m-432 -306
l52 -23 -140 -5 c-161 -7 -211 -22 -322 -96 -36 -24 -68 -44 -70 -44 -7 0 66
132 82 149 14 15 173 38 278 40 51 1 81 -5 120 -21z m6 -62 c-2 -2 -38 -9 -79
-15 -149 -22 -242 -91 -419 -311 -129 -160 -213 -299 -280 -463 -13 -33 -32
-31 -45 5 -8 22 3 49 68 174 155 298 196 363 278 445 118 118 234 167 397 168
46 1 82 -1 80 -3z m-3451 -212 c12 -8 32 -34 43 -56 21 -40 21 -41 1 -67 -25
-34 -72 -50 -149 -50 -36 -1 -63 -5 -63 -11 0 -18 50 -111 97 -182 56 -85 87
-108 147 -108 53 0 51 3 61 -127 11 -166 63 -268 234 -460 50 -56 91 -107 91
-112 0 -6 -10 -16 -22 -22 -12 -6 -43 -32 -70 -57 -27 -25 -50 -43 -52 -41 -2
2 -43 103 -91 224 -99 248 -131 318 -169 358 -38 41 -133 81 -281 119 l-130
34 -3 114 c-2 92 1 127 18 181 34 112 120 213 222 259 52 24 86 25 116 4z
m4384 -245 c52 -28 82 -198 59 -335 -18 -106 -62 -187 -151 -274 -100 -99
-214 -179 -504 -352 -264 -158 -334 -215 -400 -328 -75 -127 -129 -286 -162
-470 -27 -151 -24 -665 5 -860 35 -235 93 -455 161 -610 42 -96 70 -170 65
-170 -7 0 -118 169 -158 241 -108 196 -231 587 -286 909 -43 254 -52 629 -16
732 9 28 33 59 74 95 74 66 149 177 186 274 62 162 184 318 281 359 27 12 135
51 239 87 226 78 341 123 401 158 70 41 158 119 192 171 36 54 41 103 19 189
-13 50 -21 57 -89 83 -17 7 -30 23 -38 48 -11 33 -11 39 6 51 22 16 88 17 116
2z m-51 -158 c19 -16 24 -30 27 -89 5 -86 -10 -116 -93 -187 -83 -70 -159
-112 -280 -152 -109 -37 -112 -37 -272 -38 -89 0 -165 3 -168 7 -4 4 19 31 50
60 77 70 115 130 115 182 l1 41 17 -35 c21 -42 92 -74 200 -90 238 -33 444
139 360 303 -12 24 13 23 43 -2z m-4025 -93 c50 -51 125 -137 168 -191 43 -54
101 -116 129 -138 97 -75 90 -64 69 -107 -11 -20 -25 -54 -31 -74 -15 -45 -26
-47 -71 -13 -73 54 -76 26 -14 -126 20 -50 34 -92 32 -94 -3 -3 -53 48 -111
114 -232 257 -277 327 -298 462 -10 67 -6 230 7 251 12 19 36 2 120 -84z
m2357 -190 c37 -51 90 -138 119 -193 51 -99 52 -101 51 -190 0 -78 -5 -104
-37 -195 -49 -139 -76 -248 -76 -304 0 -58 23 -63 41 -8 37 114 131 242 204
276 38 18 160 22 216 6 57 -16 63 -29 39 -93 -32 -85 -95 -175 -180 -257 l-78
-75 -11 -72 c-14 -90 -14 -388 -1 -508 40 -359 153 -785 276 -1043 85 -181
186 -322 412 -575 146 -165 285 -269 540 -407 73 -40 131 -74 129 -76 -7 -8
-290 78 -406 122 -143 56 -406 190 -516 263 -214 143 -385 308 -505 487 -40
60 -108 181 -152 269 -146 297 -226 526 -382 1092 l-56 202 -70 100 c-85 121
-131 217 -164 342 -28 111 -51 247 -43 256 17 16 184 -1 252 -27 27 -10 27
-10 21 22 -15 75 -18 302 -6 391 19 141 100 377 148 430 16 19 19 17 93 -62
42 -44 106 -122 142 -173z m1008 89 c18 -64 -70 -178 -178 -232 -29 -14 -53
-30 -53 -34 0 -13 78 -30 186 -41 54 -6 99 -12 101 -14 3 -2 -26 -14 -64 -26
-170 -57 -268 -129 -362 -267 -23 -35 -43 -63 -44 -63 -1 0 -27 7 -57 15 -67
18 -168 19 -224 3 -29 -9 -63 -34 -118 -89 -43 -42 -78 -71 -78 -64 0 42 343
473 462 580 29 26 91 66 138 90 109 55 184 114 223 177 l31 49 14 -27 c8 -15
18 -41 23 -57z m-3896 -31 c214 -58 258 -87 316 -213 34 -74 160 -385 203
-505 10 -27 21 -48 25 -48 4 0 17 22 30 49 24 54 90 121 120 121 13 0 22 -12
30 -42 30 -114 41 -330 20 -413 -11 -42 -13 -45 -43 -42 -30 2 -32 -1 -101
-135 -46 -90 -76 -138 -86 -138 -48 0 -254 215 -347 364 -72 114 -73 122 -25
135 21 6 54 11 73 11 74 1 70 11 -37 127 -56 59 -116 122 -133 138 -61 56
-151 178 -193 259 -38 76 -41 87 -45 183 -2 57 -1 114 2 129 6 22 9 24 23 12
9 -7 72 -97 140 -200 106 -162 143 -209 143 -182 0 10 -144 264 -189 333 -22
35 -41 68 -41 73 0 12 17 10 115 -16z m4615 -203 c-40 -76 -140 -214 -214
-298 -72 -82 -203 -184 -347 -271 -61 -36 -128 -85 -150 -107 -65 -68 -213
-377 -284 -593 -33 -101 -81 -338 -96 -474 -7 -61 -9 -181 -7 -288 3 -100 4
-181 2 -179 -2 1 -10 45 -18 96 -25 156 -39 431 -33 661 9 318 40 464 142 669
85 169 126 206 440 391 278 164 443 284 536 390 30 33 55 60 57 60 2 0 -11
-26 -28 -57z m-3322 -175 c12 -40 29 -104 37 -142 9 -37 25 -81 37 -96 16 -23
20 -38 15 -72 -9 -66 -43 -182 -54 -185 -17 -6 -22 19 -33 174 -19 274 -22
287 -57 278 -25 -6 -26 -5 -20 31 6 38 31 84 46 84 4 0 18 -33 29 -72z m-294
5 c26 -27 60 -76 77 -110 16 -35 36 -63 43 -63 7 0 31 16 53 35 50 42 60 43
67 8 11 -51 26 -207 26 -265 0 -66 -6 -69 -81 -43 -40 15 -45 14 -56 -2 -7 -9
-13 -28 -13 -42 0 -14 -5 -33 -10 -41 -9 -12 -23 -2 -80 58 -38 40 -87 101
-109 135 -42 64 -126 245 -118 253 2 3 21 -18 42 -46 20 -27 41 -50 47 -50 5
0 9 19 8 43 -4 84 0 113 20 145 11 17 24 32 29 32 5 0 30 -21 55 -47z m153
-56 c13 -13 14 -20 5 -29 -14 -14 -38 5 -66 53 l-19 32 32 -19 c18 -11 40 -27
48 -37z m399 -223 c-76 -336 -60 -590 60 -957 20 -60 34 -110 31 -113 -9 -9
-236 656 -261 764 -13 55 -13 70 0 119 17 67 51 148 78 188 44 66 111 138 114
123 2 -8 -8 -64 -22 -124z m129 -10 c24 -94 20 -193 -12 -267 -36 -82 -43
-235 -18 -391 21 -134 113 -549 156 -699 75 -265 253 -719 266 -680 2 6 -23
112 -56 235 -90 332 -123 517 -151 843 -15 177 -24 633 -13 680 l10 40 17 -55
c25 -82 34 -191 46 -550 5 -191 16 -362 24 -415 31 -183 92 -355 216 -610 166
-340 380 -660 599 -900 362 -396 1012 -759 1649 -919 243 -62 305 -70 547 -70
199 0 229 2 310 23 272 71 505 186 614 305 54 58 50 25 -10 -97 -74 -149 -189
-293 -274 -342 -82 -48 -369 -121 -592 -150 -131 -17 -424 -20 -558 -5 -280
31 -637 134 -890 255 -217 104 -384 232 -640 489 -190 190 -314 334 -476 548
-159 211 -399 572 -463 696 -22 43 -13 41 15 -5 41 -65 31 -18 -31 164 -209
605 -352 1038 -379 1150 -38 156 -51 318 -40 468 12 150 39 295 71 373 l11 27
18 -41 c10 -23 25 -67 34 -100z m-760 -138 c126 -151 161 -219 185 -357 35
-212 97 -387 321 -911 186 -436 325 -697 547 -1023 121 -179 357 -494 457
-610 216 -251 518 -561 694 -712 289 -247 675 -402 1106 -444 167 -16 550 -6
725 20 74 11 136 18 138 16 10 -10 -283 -84 -431 -110 -313 -53 -730 -33
-1006 50 -270 81 -661 253 -885 389 -446 272 -687 515 -1293 1308 -320 418
-363 512 -418 913 -14 102 -36 269 -50 373 -47 347 -113 560 -226 739 -17 27
-19 38 -10 70 22 77 12 377 -14 458 -8 24 48 -34 160 -169z m-804 78 c49 -48
86 -90 84 -94 -3 -4 -23 -10 -46 -13 -50 -7 -95 -38 -91 -62 6 -29 91 -166
156 -249 73 -93 179 -197 248 -245 47 -31 57 -52 39 -80 -8 -12 -17 -10 -52
15 -101 69 -186 163 -254 277 -91 151 -186 284 -284 395 -44 50 -81 96 -81
101 0 22 57 40 124 41 l69 0 88 -86z m1134 -153 c22 -10 50 -29 61 -42 13 -15
64 -150 128 -343 59 -176 166 -477 238 -670 171 -461 221 -605 202 -581 -30
39 -254 495 -327 666 -105 247 -367 946 -367 980 0 14 21 11 65 -10z m571
-339 c1 -383 22 -653 69 -886 14 -66 23 -121 22 -123 -6 -5 -74 221 -112 372
-56 218 -124 570 -131 676 -8 119 6 187 50 237 27 31 82 72 96 72 3 0 5 -156
6 -348z m2428 317 c46 -36 35 -55 -41 -67 -91 -15 -236 -88 -310 -155 -79 -72
-123 -107 -133 -107 -12 0 13 69 50 139 41 76 90 123 181 171 67 36 81 39 150
40 62 0 81 -4 103 -21z m-3064 -91 c62 -173 208 -562 278 -738 221 -558 567
-1175 934 -1666 168 -224 299 -376 498 -575 276 -277 450 -407 683 -512 446
-201 957 -291 1377 -243 160 19 350 55 474 91 45 13 82 22 84 20 2 -2 -27 -21
-65 -43 -246 -145 -890 -222 -1313 -157 -325 50 -631 161 -827 302 -308 220
-735 666 -1089 1135 -381 507 -582 872 -877 1598 -152 375 -207 565 -207 719
0 86 7 161 15 161 1 0 17 -42 35 -92z m-82 6 c-4 -3 -12 5 -18 18 -12 22 -12
22 6 6 10 -10 15 -20 12 -24z m-365 -186 c131 -163 213 -458 267 -958 55 -517
104 -638 418 -1045 59 -77 163 -212 231 -300 433 -560 742 -847 1176 -1096
269 -154 696 -326 969 -390 l81 -19 -70 6 c-95 8 -278 39 -402 69 -353 85
-745 313 -1135 662 -268 240 -1094 1111 -1246 1316 -366 491 -566 1041 -498
1374 30 147 138 423 167 423 4 0 23 -19 42 -42z m-386 -244 c59 -47 114 -93
121 -102 13 -17 18 -282 5 -282 -5 0 -28 38 -53 83 -60 109 -179 231 -270 275
-36 17 -95 36 -132 43 -38 6 -68 14 -68 18 0 4 17 17 38 29 32 18 53 22 144
22 l106 0 109 -86z m3836 15 c33 -17 77 -60 93 -91 17 -32 11 -34 -49 -17 -86
23 -252 -41 -351 -136 -90 -86 -177 -236 -225 -386 -20 -64 -71 -344 -71 -393
0 -14 -4 -26 -9 -26 -17 0 -24 130 -18 358 5 203 9 242 36 367 21 97 36 144
48 153 65 47 219 130 287 154 88 30 217 39 259 17z m-4042 -75 c71 -38 194
-163 242 -244 49 -85 87 -206 87 -278 0 -57 -29 -142 -49 -142 -5 0 -21 33
-36 73 -109 290 -227 471 -378 578 l-72 51 76 -4 c58 -4 88 -11 130 -34z
m4019 -94 c-53 -27 -215 -164 -233 -196 -6 -10 -3 -22 8 -34 18 -20 14 -24
-29 -34 -50 -12 -148 -123 -200 -228 -25 -51 -46 -87 -46 -81 0 36 58 200 98
277 36 71 65 110 132 177 72 72 97 91 160 117 47 20 92 31 120 31 l45 0 -55
-29z m-156 -296 c9 -4 21 -14 26 -24 8 -16 4 -17 -58 -12 -63 4 -70 2 -100
-23 -41 -34 -85 -98 -139 -200 -51 -96 -57 -83 -10 18 80 171 199 273 281 241z
m-3454 -259 c18 -55 48 -138 66 -184 19 -46 34 -85 32 -86 -2 -2 -43 15 -93
37 -49 22 -134 50 -188 63 -54 13 -101 25 -104 28 -10 11 57 37 94 37 21 0 44
4 51 8 23 15 82 116 88 152 7 44 15 68 19 55 2 -5 18 -55 35 -110z m-128 -221
c95 -30 201 -81 245 -118 16 -14 63 -81 103 -148 40 -68 86 -142 102 -165 15
-23 28 -45 28 -48 0 -4 -50 39 -111 96 -165 155 -243 223 -354 312 -91 72
-116 97 -101 97 3 0 42 -12 88 -26z m3105 -116 c-3 -7 -5 -2 -5 12 0 14 2 19
5 13 2 -7 2 -19 0 -25z"/>
</g>
</svg>
